<?xml version="1.0" encoding="UTF-8" standalone="no"?>
<!-- Created with Inkscape (http://www.inkscape.org/) -->

<svg
   width="128"
   height="128"
   viewBox="0 0 128 128"
   version="1.1"
   id="svg1"
   xmlns="http://www.w3.org/2000/svg"
   xmlns:svg="http://www.w3.org/2000/svg">
  <defs
     id="defs1" />
  <g
     id="layer2"
     style="display:none">
    <path
       id="rect19"
       style="fill:#5e2d15;fill-opacity:1"
       d="m 8,10.148087 c 0,0 2.385572,0.473908 3.146338,0.147076 C 11.199918,11.706611 11.960601,16 11.960601,16 H 6.5849082 Z" />
    <path
       style="fill:#c0a975;fill-opacity:1"
       d="m 7.9963715,10.734375 c 0,0 2.4831435,-0.551419 2.2726795,1.028978 -0.210464,1.580397 -0.07374,2.517897 -0.7612408,2.556959 -0.6874977,0.03906 -0.7181927,0 -1.5114389,0 -0.7932463,0 -1.3323088,-2.226562 -1.3323088,-2.226562 z"
       id="path20" />
    <g
       id="g17">
      <path
         style="display:inline;fill:#c0a975;fill-opacity:1"
         d="m 10.445312,5.0390625 c 0,0 0.947645,-1.1583866 1.796875,-1.671875 C 13.25,2.7578125 14.632812,2.671875 14.632812,2.671875 c 0,0 -1.28125,0.2734375 -2.296875,0.859375 -0.91097,0.52556 -1.890625,1.5078125 -1.890625,1.5078125 z"
         id="path17" />
      <path
         style="fill:#e7dabd;fill-opacity:1"
         d="m 8.75,6.453125 c 0,0 0.21875,-0.59375 0.265625,-0.96875 C 9.0625,5.109375 8.5007852,4.7686311 8.4695352,4.1592561 8.4382852,3.5498811 8.5417912,3.2265873 8.8934684,2.9430243 8.7148156,3.4770535 8.740892,3.8675491 8.9422391,4.2571226 9.1321457,4.6245606 9.3109296,4.7956019 9.5921796,4.7799769 9.8734296,4.7643519 10.371697,4.2194731 11.496994,3.4233107 12.475086,2.7312985 13.109375,2.609375 13.40625,2.03125 c 0.296875,-0.578125 0.04639,-1.82267613 -0.453125,-2.421875 -0.577528,-0.6927787 -1.71875,-1.25046 -1.71875,-1.25046 0,0 0.744634,-0.178336 1.762429,0.6126505 0.686027,0.53315071 1.066378,1.00939546 1.173176,1.73594544 C 14.267341,1.3698632 14.125,2.03125 14.125,2.03125 c 0,0 0.461966,-0.4922016 0.463063,-1.40513956 0.0011,-0.88933234 -0.227993,-1.79391894 -1.160311,-2.58800774 -0.689926,-0.5876348 -1.21274,-0.7554323 -2.327529,-0.9612228 0.774511,-0.3494216 1.973465,0.031654 2.490386,0.3915449 0.603228,0.4199793 1.188245,0.6645938 1.6084,2.22438105 0.332654,1.23494917 0.08225,2.26031915 0.08225,2.26031915 0,0 0.560316,-0.6899025 0.604799,-1.38480339 0.07092,-1.10796245 -0.158754,-1.97195331 -1.260264,-3.13748421 1.075054,0.2928769 1.659545,1.2311173 1.828775,2.22319174 0.232917,1.36542296 0.02441,2.32877186 -0.698878,2.75032526 -0.435926,0.2540705 -1.266814,0.362924 -2.129958,0.670974 -0.863145,0.30805 -2.067905,1.0583646 -2.533419,1.4905029 C 10.231018,5.3653761 9.625,6.5 9.625,6.5 9.625,6.5 9.40625,6.828125 9.109375,6.734375 8.8125,6.640625 8.75,6.453125 8.75,6.453125 Z"
         id="path18" />
    </g>
    <path
       id="path1"
       style="fill:#6f3d24;fill-opacity:1"
       d="M 14.138672,2.2695312 C 13.276409,2.2567302 11.048266,3.8615809 10.619141,4.4765625 10.129378,5.1784455 10.265354,5.7666122 9.2617188,6.2773438 8.8495963,6.4082681 8.4223788,6.4651529 8,6.5410156 7.1364562,6.5019696 5.9194725,5.7825806 5.2421875,6.5214844 c -0.447954,0.4887075 0.039794,1.2307894 0.058594,1.9707031 0.01518,0.5975075 -0.7810497,1.7581165 -0.2929687,2.5000005 0.3072289,0.466988 1.0045997,1.071888 1.7363281,1.457031 0.1204869,0.345708 0.5276578,0.599609 1.0136719,0.599609 h 0.484375 c 0.4860141,0 0.893185,-0.253901 1.0136719,-0.599609 0.7317284,-0.385143 1.4290993,-0.990043 1.7363283,-1.457031 0.488081,-0.741884 -0.308149,-1.902493 -0.292969,-2.5000005 0.0049,-0.1916212 0.04061,-0.3827255 0.08398,-0.5703125 0.0522,-0.1662061 0.125858,-0.3354251 0.271485,-0.5292969 0.287357,-0.3825572 1.342698,-0.2730658 2.042968,-0.6054687 1.330552,-0.6315852 1.734641,-3.8654859 1.31836,-4.40625 -0.05813,-0.075517 -0.15416,-0.1094994 -0.27734,-0.1113282 z" />
    <g
       id="g8"
       clip-path="none">
      <path
         style="fill:#e7dabd;fill-opacity:1"
         d="m 10.547023,7.0681622 c 0,0 0.25947,-0.2816811 0.33681,-0.5550247 0.07141,-0.2523872 -0.0469,-0.6736207 0.09114,-1.1706008 0.13805,-0.4969802 0.690251,-1.2838654 1.490941,-1.7670406 0.80069,-0.4831751 2.305436,-1.0629853 2.305436,-1.0629853 l -0.767699,4.3846827 c 0,0 -0.875001,-0.2817037 -1.766859,-0.2735025 -0.786972,0.00724 -1.689769,0.4444712 -1.689769,0.4444712 z"
         id="path3" />
      <path
         style="display:inline;fill:#c0a975;fill-opacity:1"
         d="m 10.547023,7.0681622 c 0,0 0.25947,-0.2816811 0.33681,-0.5550247 0.07141,-0.2523872 -0.0469,-0.6736207 0.09114,-1.1706008 0.13805,-0.4969802 0.690251,-1.2838654 1.490941,-1.7670406 C 13.266604,3.092321 14.77135,2.5125108 14.77135,2.5125108 14.263708,2.7393459 13.724268,3.02733 13.236662,3.3411651 12.749056,3.6550003 12.512159,4 12.941061,4.2475866 c -0.698051,0.2418513 -0.742187,0.6178871 -0.07195,0.7834505 -0.538609,0.064815 -1.026557,0.597154 -0.523731,0.839439 -0.334159,0.1377152 -1.053995,0.3725456 -0.515046,0.6128043 -0.367095,0.088375 -0.932714,0.3042673 -1.283309,0.5848818 z"
         id="path3-5" />
      <path
         style="display:inline;fill:#955c50;fill-opacity:1"
         d="M 14.15833,6.9524363 C 13.343744,6.2454657 11.960601,6.2992064 11.960601,6.2992064 12.573484,6.2170697 13.040739,6.0378486 13.47871,5.8391042 13.184584,5.642888 12.83805,5.4990804 12.396894,5.4498951 12.942738,5.3463042 13.295659,5.1600322 13.639344,4.9698016 13.467497,4.7274985 13.146725,4.6341206 12.769629,4.5970664 c 0.337632,-0.1406755 0.654163,-0.3341061 1.1044,-0.19327 -0.20674,-0.2458685 -0.42073,-0.4820718 -0.80069,-0.4969802 0.273078,-0.1392197 0.540877,-0.3206711 0.842105,-0.2346851 0.06882,-0.2063306 0.02695,-0.365222 -0.11044,-0.4831751 0,0 0.483166,-0.5107851 0.966346,-0.6764452"
         id="path4" />
    </g>
    <path
       style="fill:#2a190f;fill-opacity:1"
       d="m 8.9857019,8.8607692 c 0,0 -0.068513,-0.6797645 0.10161,-1.0377303 0.1396884,-0.2939257 0.3927347,-0.4866911 0.6951143,-0.5543228 0.3851878,-0.086153 0.5611878,-0.06317 0.5611878,-0.06317 0,0 -0.172599,-0.1732524 -0.6103987,-0.1753214 C 9.2590958,7.0279844 8.8645129,7.2171024 8.7483882,7.8347581 8.6258838,8.4863468 8.9857019,8.8607696 8.9857019,8.8607692 Z"
       id="path2" />
    <path
       style="fill:#e7dabd;fill-opacity:1"
       d="m 10.982252,7.5903493 c 0,0 -0.541378,-0.3425048 -1.1269512,-0.1657281 -0.5855728,0.1767767 -0.7071068,0.7292039 -0.7181554,0.894932 -0.011048,0.1657282 0.022652,0.7075471 0.022652,0.7075471 0,0 0.4465766,0.391531 0.6706101,0.4518798 0.2320205,0.0625 0.5220765,0.089059 0.7872415,-0.054572 0.265165,-0.1436311 0.353555,-0.4419418 0.353555,-0.4419418 z"
       id="path12" />
    <path
       style="fill:#e7dabd;fill-opacity:1"
       d="m 9.8994949,12.385417 c 0,0 0.5413791,-0.685009 0.4861361,-1.082757 C 10.330388,10.904912 9.9785423,10.916879 9.2926788,10.463429 8.6068153,10.00998 8.2451634,9.3360461 8,9.3360461 c -0.2451634,0 -1.8680584,3.2321279 -1.8680584,3.2321279 l 0.8175922,0.800564 1.767767,0.09944 z"
       id="path15" />
    <path
       style="fill:#c0a975;fill-opacity:1"
       d="m 9.4078348,12.573242 c -0.5248059,-0.596621 -0.9484662,-0.524805 -1.407835,-0.524805 -0.4593689,0 -1.4205922,0.364602 -1.4150679,0.651864 0.00552,0.287262 1.4150679,0.602145 1.4150679,0.602145 0,0 1.1813398,-0.04972 1.407835,-0.729204 z"
       id="path5" />
    <circle
       style="fill:#000000;fill-opacity:1"
       id="path6"
       cx="7.9963713"
       cy="13.048788"
       r="0.24153468" />
    <g
       id="g9">
      <path
         style="fill:#2a190f;fill-opacity:1"
         d="m 9.5078102,11.266224 c 0,0 -0.089463,-0.401685 -0.5348315,-0.530814 C 8.2379059,10.522285 8.1210938,10.148691 8,10.148087 7.7845563,10.147013 7.4743396,10.728136 7.4743396,10.728136 l 0.9360096,1.502602 c 0,0 0.1935271,-0.0081 0.4947768,0.06629 0.3012497,0.07439 0.569,-0.09944 0.569,-0.09944 z"
         id="path14" />
      <path
         style="fill:#000000"
         d="m 7.9999995,10.463429 c 0,0 0.1703984,0.264706 0.4300391,0.303376 0.2596408,0.03867 0.8091223,0.08118 0.8407003,0.341924 0.02194,0.181163 0.02661,0.629067 -0.2385549,0.757407 -0.265165,0.12834 -0.5237951,0.0057 -0.5243004,0.179597 -5.053e-4,0.173856 0.3287952,0.07004 0.270184,0.273393 -0.022744,0.07891 -0.3591013,0.237544 -0.7816963,0.248592 -0.422595,0.01105 -0.4557406,-0.182301 -0.4557406,-0.182301 z"
         id="path7" />
      <path
         style="fill:#000000"
         d="m 9.3736004,12.535108 c -0.1701637,0.03307 -0.4021829,-0.01914 -0.3690375,-0.155215 0.033145,-0.136071 0.2755049,-0.158051 0.4032719,-0.573243 0.1209897,-0.393168 0,-0.736009 0,-0.736009 0,0 0.3904147,0.315204 0.3093592,0.78997 -0.067187,0.393536 -0.3435936,0.674497 -0.3435936,0.674497 z"
         id="path13" />
    </g>
    <g
       id="g11">
      <path
         style="fill:#000000;fill-opacity:1"
         d="m 10.863915,8.854839 c 0,0 -0.108808,0.1900124 -0.354843,0.2929354 -0.239935,0.1003715 -0.413787,0.086447 -0.5731289,0.060698 -0.1540909,-0.0249 -0.5758139,-0.3060738 -0.5758139,-0.3060738 0,0 0.2810308,0.3125782 0.5617458,0.3866638 0.362315,0.095621 0.562501,0.03906 0.75,-0.113281 0.223115,-0.1812777 0.19204,-0.3209423 0.19204,-0.3209424 z"
         id="path11" />
      <path
         id="path9"
         d="m 10.905314,8.2346609 c 0.161707,0.3742002 -0.0531,0.8270273 -0.479795,1.0114183 C 9.9988278,9.4304701 9.3601292,8.9023988 9.3601292,8.9023988 c 0,0 -0.013301,-0.9168717 0.4133893,-1.1012622 0.4266915,-0.1843906 0.9700875,0.059325 1.1317955,0.4335243 z"
         style="fill:#20140c;fill-opacity:1;stroke-width:0.852568" />
      <path
         style="fill:#000000;fill-opacity:1"
         d="m 9.3601292,8.9023988 c 0,0 -0.147681,-0.4255127 0,-0.7574463 0.147681,-0.3319335 0.4397459,-0.5660051 0.7995148,-0.5798101 0.359769,-0.013805 1.201875,0.2478766 1.201875,0.2478766 0,0 -0.424806,0.3460233 -0.591237,0.2213356 C 10.603851,7.909667 10.100524,7.7791212 9.8399248,7.8909803 9.5634827,8.0096396 9.4207593,8.3815905 9.3601292,8.9023988 Z"
         id="path10" />
      <rect
         style="fill:#120c09;fill-opacity:1;stroke-width:1.14184"
         id="rect11"
         width="1.2070312"
         height="0.390625"
         x="8.0570698"
         y="9.8654966"
         ry="0.1953125"
         transform="rotate(-9.1771109)" />
    </g>
    <path
       id="path19"
       style="display:inline;fill:#e7dabd;fill-opacity:1"
       d="m 9.0117188,5.3671875 c 0.00722,0.039063 0.00884,0.077719 0.00391,0.1171875 C 8.96875,5.859375 8.75,6.453125 8.75,6.453125 c 0,0 0.048391,0.2666726 0.359375,0.28125 C 9.46875,6.7512207 9.625,6.5 9.625,6.5 c 0,0 0.081175,-0.5086572 0.391622,-0.851611 z" />
  </g>
  <g
     id="g40"
     style="display:inline">
    <g
       id="g83"
       transform="matrix(6.8346409,0.35818834,-0.35818834,6.8346409,12.233581,17.161264)"
       style="display:inline">
      <path
         id="path63"
         style="fill:#5e2d15;fill-opacity:1"
         d="m 8.1074219,10.167969 c -0.4605032,0.135966 -2.3193382,0.657727 -3.0097657,0.443359 0.09425,1.409317 -0.2128906,5.759766 -0.2128906,5.759766 L 8.4121094,16 h 3.5488286 c -1e-6,0 -0.760874,-4.29363 -0.814454,-5.705078 -0.664237,0.285362 -2.5668693,-0.03987 -3.0390621,-0.126953 z" />
      <path
         style="fill:#c0a975;fill-opacity:1"
         d="m 8.8964844,10.640625 c -0.3121917,-1.36e-4 -0.599162,0.04076 -0.7617188,0.06836 -0.5265624,-0.03345 -2.3323122,-0.05515 -2.0117187,1.271485 0.3745075,1.54974 0.3375729,2.495906 1.0253906,2.46289 0.577618,-0.02773 0.6877492,-0.06177 1.1757813,-0.121093 0.4915594,0.008 0.6062417,0.03085 1.1835937,-0.002 0.6875005,-0.03906 0.5512545,-0.976244 0.7617185,-2.556641 0.123864,-0.930108 -0.686225,-1.122747 -1.3730466,-1.123047 z"
         id="path64" />
      <g
         id="g66">
        <path
           style="display:inline;fill:#c0a975;fill-opacity:1"
           d="m 10.445312,5.0390625 c 0,0 0.947645,-1.1583866 1.796875,-1.671875 C 13.25,2.7578125 14.632812,2.671875 14.632812,2.671875 c 0,0 -1.28125,0.2734375 -2.296875,0.859375 -0.91097,0.52556 -1.890625,1.5078125 -1.890625,1.5078125 z M 5.2453905,5.3115788 c 0,0 -1.0635381,-1.0529849 -1.9617901,-1.4748917 C 2.2176113,3.3359955 0.8333916,3.395072 0.8333916,3.395072 c 0,0 1.3028132,0.1380124 2.3741216,0.6145784 0.9609156,0.4274586 2.0378773,1.3019284 2.0378773,1.3019284 z"
           id="path65" />
        <path
           style="fill:#e7dabd;fill-opacity:1"
           d="m 8.75,6.453125 c 0,0 0.21875,-0.59375 0.265625,-0.96875 C 9.0625,5.109375 8.5007852,4.7686311 8.4695352,4.1592561 8.4382852,3.5498811 8.5417912,3.2265873 8.8934684,2.9430243 8.7148156,3.4770535 8.740892,3.8675491 8.9422391,4.2571226 9.1321457,4.6245606 9.3109296,4.7956019 9.5921796,4.7799769 9.8734296,4.7643519 10.371697,4.2194731 11.496994,3.4233107 12.475086,2.7312985 13.109375,2.609375 13.40625,2.03125 c 0.296875,-0.578125 0.04639,-1.82267613 -0.453125,-2.421875 -0.577528,-0.6927787 -1.71875,-1.25046 -1.71875,-1.25046 0,0 0.744634,-0.178336 1.762429,0.6126505 0.686027,0.53315071 1.066378,1.00939546 1.173176,1.73594544 C 14.267341,1.3698632 14.125,2.03125 14.125,2.03125 c 0,0 0.461966,-0.4922016 0.463063,-1.40513956 0.0011,-0.88933234 -0.227993,-1.79391894 -1.160311,-2.58800774 -0.689926,-0.5876348 -1.21274,-0.7554323 -2.327529,-0.9612228 0.774511,-0.3494216 1.973465,0.031654 2.490386,0.3915449 0.603228,0.4199793 1.188245,0.6645938 1.6084,2.22438105 0.332654,1.23494917 0.08225,2.26031915 0.08225,2.26031915 0,0 0.560316,-0.6899025 0.604799,-1.38480339 0.07092,-1.10796245 -0.158754,-1.97195331 -1.260264,-3.13748421 1.075054,0.2928769 1.659545,1.2311173 1.828775,2.22319174 0.232917,1.36542296 0.02441,2.32877186 -0.698878,2.75032526 -0.435926,0.2540705 -1.266814,0.362924 -2.129958,0.670974 -0.863145,0.30805 -2.067905,1.0583646 -2.533419,1.4905029 C 10.231018,5.3653761 9.625,6.5 9.625,6.5 9.625,6.5 9.40625,6.828125 9.109375,6.734375 8.8125,6.640625 8.75,6.453125 8.75,6.453125 Z m -1.6707748,0.087562 c 0,0 -0.2796155,-0.5676318 -0.3654318,-0.9356777 C 6.627977,5.2369629 7.1509972,4.8393705 7.118379,4.2300672 7.0857608,3.6207639 6.9490284,3.3100605 6.5696373,3.0648111 6.8031327,3.5772406 6.818017,3.9683227 6.6584944,4.3768086 6.5080359,4.7620844 6.3481101,4.9508767 6.0667675,4.9647359 5.785425,4.9785951 5.2329318,4.4887844 4.0305777,3.814609 2.9855088,3.2286262 2.34195,3.1736718 1.9862708,2.6297457 1.6305916,2.0858196 1.7496134,0.82190348 2.1837587,0.17377355 2.6857078,-0.57557814 3.7623845,-1.2494946 3.7623845,-1.2494946 c 0,0 -0.759196,-0.099524 -1.6887348,0.79351834 -0.6265394,0.6019394 -0.9550257,1.11533274 -0.9852935,1.84906606 -0.027593,0.6689008 0.183102,1.3117858 0.183102,1.3117858 0,0 -0.51088437,-0.4412167 -0.60740336,-1.3490388 C 0.57000032,0.47149126 0.70328328,-0.45208666 1.5474891,-1.3392791 2.172211,-1.9958117 2.6746214,-2.2173389 3.7617925,-2.5385293 2.9549998,-2.8050783 1.8024471,-2.3007654 1.3259767,-1.8888131 0.769953,-1.40808 0.21370996,-1.1036546 -0.04110123,0.49150616 -0.24284558,1.754462 0.11336702,2.7480405 0.11336702,2.7480405 c 0,0 -0.62936097,-0.6275542 -0.74623721,-1.3139986 -0.1863451,-1.09447973 -0.0482409,-1.97774503 0.92540375,-3.2520302 -1.03855077,0.4036463 -1.52176706,1.39784282 -1.58636996,2.40217192 -0.088915,1.38228948 0.2191466,2.31856618 0.98253673,2.66220608 0.46009555,0.207112 1.29781014,0.2285177 2.18842577,0.4446571 0.8906166,0.2161392 2.167206,0.8364118 2.6753406,1.2175234 0.9401529,0.7051348 1.6614516,1.770197 1.6614516,1.770197 0,0 0.2518501,0.3034619 0.5372992,0.1791936 C 7.0366666,6.7336925 7.0792252,6.5406866 7.0792252,6.5406866 Z"
           id="path66" />
      </g>
      <path
         id="path67"
         style="display:inline;fill:#6f3d24;fill-opacity:1"
         d="M 14.138672,2.2695313 C 13.276409,2.2567303 11.048266,3.8615809 10.619141,4.4765625 10.129378,5.1784455 10.265354,5.7666122 9.2617188,6.2773437 8.8495962,6.408268 8.4223788,6.4651529 8,6.5410156 c -0.027444,-0.00124 -0.055855,-0.00331 -0.083984,-0.00586 -0.027709,0.00547 -0.054867,0.00957 -0.082031,0.013672 C 7.4059896,6.5175316 6.9762845,6.5070504 6.5527344,6.4199219 5.5012112,6.0168966 5.5741187,5.4163751 5.0136719,4.7695312 4.5226146,4.2027744 2.1394045,2.8404975 1.2832031,2.9433594 1.1608891,2.958054 1.0694491,3.0008517 1.0195312,3.0820313 0.66205592,3.6633462 1.4017339,6.8390802 2.7910156,7.328125 c 0.7311794,0.2573838 1.7679791,0.038247 2.09375,0.3886719 0.1650944,0.1775876 0.2568846,0.3382076 0.3261719,0.4980469 0.062741,0.1820259 0.1176751,0.3665813 0.1425781,0.5566406 0.077553,0.5926475 -0.5922521,1.8307766 -0.029297,2.5175786 0.3543596,0.432315 1.110928,0.961031 1.8789063,1.267578 0.154271,0.327626 0.5777197,0.536858 1.0546875,0.492187 0.4790243,-0.0054 0.8788673,-0.257652 0.9980469,-0.599609 0.7317284,-0.385143 1.4290986,-0.990043 1.7363286,-1.457031 0.48808,-0.741885 -0.308149,-1.902493 -0.292969,-2.5000005 0.0049,-0.1916212 0.04061,-0.3827255 0.08398,-0.5703125 0.0522,-0.1662061 0.125858,-0.3354251 0.271485,-0.5292969 0.287357,-0.3825572 1.342698,-0.2730658 2.042968,-0.6054687 1.330552,-0.6315852 1.734641,-3.8654859 1.31836,-4.40625 -0.05813,-0.075517 -0.154164,-0.1094993 -0.277344,-0.1113281 z" />
      <g
         id="g70"
         clip-path="none">
        <path
           id="path68"
           style="fill:#e7dabd;fill-opacity:1"
           d="m 14.515625,2.6152344 c -0.46374,0.1870805 -1.451307,0.6003642 -2.048828,0.9609375 -0.80069,0.4831752 -1.354138,1.2686448 -1.492188,1.765625 -0.13804,0.4969801 -0.01843,0.9194878 -0.08984,1.171875 -0.07734,0.2733436 -0.337891,0.5546875 -0.337891,0.5546875 0,0 0.902481,-0.4380725 1.689453,-0.4453125 0.350752,-0.00323 0.696897,0.040113 0.990234,0.091797 0.616735,-0.3885782 1.014222,-1.3488093 1.207032,-2.2753907 l 0.07617,-0.4296875 c 0.08095,-0.5666511 0.08332,-1.0823934 0.0059,-1.3945312 z M 0.94401608,3.3264923 C 1.4247709,3.4640739 2.4501278,3.7718647 3.0820657,4.0680048 3.928875,4.4648382 4.5613951,5.1881539 4.7506374,5.6679814 c 0.1892324,0.4798285 0.1144417,0.9125243 0.2118421,1.1560645 0.1054885,0.263762 0.3940207,0.5163297 0.3940207,0.5163297 0,0 -0.9433282,-0.3413378 -1.7267459,-0.2662771 C 3.2805862,7.1075497 2.940868,7.1868373 2.6545403,7.2689002 2.0005664,6.946917 1.5048854,6.0334949 1.2162775,5.1321435 L 1.0956102,4.7127718 C 0.95587248,4.1576865 0.89960572,3.6450172 0.94397432,3.3264968 Z" />
        <path
           id="path69"
           style="display:inline;fill:#c0a975;fill-opacity:1"
           d="m 14.515625,2.6152344 c -0.46374,0.1870805 -1.451307,0.6003642 -2.048828,0.9609375 -0.80069,0.4831752 -1.354138,1.2686448 -1.492188,1.765625 -0.13804,0.4969801 -0.01843,0.9194878 -0.08984,1.171875 -0.07734,0.2733436 -0.337891,0.5546875 -0.337891,0.5546875 0.350592,-0.2806145 0.916105,-0.4975625 1.2832,-0.5859375 -0.538949,-0.2402587 0.181466,-0.473613 0.515625,-0.6113281 -0.502826,-0.242285 -0.01517,-0.7750288 0.523438,-0.8398438 -0.670237,-0.1655634 -0.625786,-0.5413518 0.07226,-0.7832031 -0.428902,-0.2475866 -0.192684,-0.5924148 0.294922,-0.90625 0.407079,-0.2620057 0.850581,-0.507459 1.28125,-0.7128907 -0.001,-0.00439 -8.83e-4,-0.00936 -0.002,-0.013672 z M 0.94401608,3.3264923 C 1.4247709,3.4640739 2.4501278,3.7718647 3.0820657,4.0680048 3.928875,4.4648382 4.5613951,5.1881539 4.7506374,5.6679814 4.9398698,6.1478099 4.8650791,6.5805057 4.9624795,6.8240459 5.067968,7.0878079 5.3565002,7.3403756 5.3565002,7.3403756 4.9784965,7.0979451 4.3934042,6.9412978 4.0190825,6.8917788 4.5299652,6.5965008 3.7891046,6.4397287 3.442381,6.3376971 3.9171268,6.0441798 3.3764553,5.5653283 2.8340229,5.5571682 3.4832821,5.322453 3.3997941,4.9533696 2.6802917,4.7858088 3.0809643,4.4947461 2.8099959,4.1764984 2.2922564,3.9153511 1.8600204,3.697332 1.3932911,3.4995819 0.94350784,3.3402928 c 5.3564e-4,-0.00447 -1.0022e-4,-0.0094 5.5993e-4,-0.013806 z" />
        <path
           id="path70"
           style="display:inline;fill:#955c50;fill-opacity:1"
           d="m 14.517578,2.6289062 c -0.385361,0.2148033 -0.71289,0.5605469 -0.71289,0.5605469 0.137389,0.1179531 0.180148,0.2760913 0.111328,0.4824219 -0.301228,-0.085986 -0.568719,0.095155 -0.841797,0.234375 0.37996,0.014908 0.594041,0.2521784 0.800781,0.4980469 -0.450237,-0.1408361 -0.767837,0.052684 -1.105469,0.1933593 0.377096,0.037054 0.697294,0.1307438 0.869141,0.3730469 -0.343685,0.1902306 -0.696344,0.3749247 -1.242188,0.4785157 0.441156,0.049185 0.787906,0.1944087 1.082032,0.390625 -0.437971,0.1987444 -0.904695,0.3768476 -1.517578,0.4589843 -1e-6,0 0.76048,-0.027632 1.486328,0.2460938 0.930083,-0.861964 1.26818,-3.0813546 1.070312,-3.9160157 z M 0.94350287,3.3402933 C 1.3492059,3.5136387 1.7110807,3.8232522 1.7110807,3.8232522 1.5867738,3.9549202 1.560779,4.1166616 1.6507894,4.3146683 1.9413792,4.1976664 2.2263393,4.3498547 2.5124738,4.4597676 2.1361535,4.5143106 1.9480468,4.7726587 1.7681396,5.0387905 2.2011888,4.8516634 2.5372773,5.0109251 2.8877643,5.1155376 2.5166073,5.1918059 2.2079566,5.3184523 2.0623786,5.5773909 2.4240653,5.7306545 2.7940982,5.877474 3.3477802,5.9234413 2.9141822,6.0184702 2.5845117,6.1991436 2.3125071,6.4250295 c 0.4563462,0.1518752 0.9391303,0.2802168 1.5572415,0.2978399 1e-6,-2e-7 -0.7592023,0.052011 -1.4524619,0.4001092 C 1.402199,6.3629567 0.83396465,4.1910649 0.94350287,3.3402933 Z" />
      </g>
      <path
         style="fill:#2a190f;fill-opacity:1"
         d="m 8.9857019,8.8607692 c 0,0 -0.068513,-0.6797645 0.10161,-1.0377303 0.1396884,-0.2939257 0.3927347,-0.4866911 0.6951143,-0.5543228 0.3851878,-0.086153 0.5611878,-0.06317 0.5611878,-0.06317 0,0 -0.172599,-0.1732524 -0.6103987,-0.1753214 C 9.2590958,7.0279844 8.8645129,7.2171024 8.7483882,7.8347581 8.6258838,8.4863468 8.9857019,8.8607696 8.9857019,8.8607692 Z m -1.8892201,0.09901 c 0,0 -0.00292,-0.6832022 -0.2095257,-1.0214243 C 6.7173093,7.6606405 6.4454998,7.4953817 6.1377072,7.4597277 5.7456241,7.4143098 5.5729906,7.4555639 5.5729906,7.4555639 c 0,0 0.1535437,-0.1903448 0.5887288,-0.238165 0.471288,-0.051787 0.8834776,0.09505 1.0635287,0.6971836 C 7.415191,8.5497965 7.0964819,8.9597794 7.0964818,8.959779 Z"
         id="path71" />
      <path
         id="path72"
         style="fill:#e7dabd;fill-opacity:1"
         d="M 10.175781,7.375 C 10.072371,7.37731 9.9652637,7.390682 9.8554688,7.423828 9.269896,7.6006047 9.1477674,8.1545843 9.1367188,8.3203124 c -0.011048,0.1657282 0.023437,0.7070313 0.023437,0.7070313 0,0 0.4458884,0.390823 0.6699219,0.4511718 0.2320213,0.0625 0.5219453,0.088944 0.7871103,-0.054687 0.110631,-0.059925 0.190585,-0.1456855 0.246093,-0.2265625 -0.09084,-0.2695365 -0.168848,-0.516709 -0.164062,-0.7050781 0.0049,-0.1916212 0.04061,-0.3827255 0.08398,-0.5703125 0.03588,-0.114255 0.08368,-0.2313365 0.15625,-0.3554688 C 10.835915,7.5097757 10.53713,7.3669128 10.175781,7.375 Z M 5.7576169,7.6065462 c 0.103085,-0.00851 0.2110033,-0.00641 0.3236614,0.015079 0.6008432,0.1145993 0.7802094,0.6527782 0.8085208,0.8164436 0.028311,0.1636655 0.050596,0.7056079 0.050596,0.7056079 0,0 -0.4025937,0.4352901 -0.6190917,0.5187261 C 6.0970864,9.748813 5.8115148,9.8054174 5.5327889,9.6902906 5.4165001,9.6422579 5.3280197,9.5653247 5.2643618,9.4906929 5.3265299,9.2131376 5.378274,8.9591651 5.3538243,8.7723282 5.3289213,8.5822689 5.2734311,8.3959442 5.2106905,8.2139182 5.1630641,8.1040396 5.1032876,7.9925959 5.0181398,7.8767293 5.1151871,7.8095863 5.3974021,7.6362745 5.7576169,7.6065462 Z" />
      <path
         id="path73"
         style="fill:#e7dabd;fill-opacity:1"
         d="M 8.0644531,9.3496094 C 7.8320993,9.472112 7.5405851,10.107012 6.9589844,10.585938 c -0.6347079,0.522658 -0.9846865,0.547875 -0.9980469,0.949218 -0.00433,0.129855 0.056204,0.281799 0.140625,0.429688 0.3310818,0.226344 0.7148509,0.437436 1.1015625,0.591797 0.1542709,0.327626 0.5777198,0.536857 1.0546875,0.492187 0.4790241,-0.0054 0.8788673,-0.257652 0.9980469,-0.599609 0.3684581,-0.193937 0.7275944,-0.443413 1.0332036,-0.703125 0.0685,-0.155903 0.11358,-0.314669 0.0957,-0.44336 C 10.329527,10.904986 9.9788323,10.916341 9.2929688,10.462891 8.6644927,10.047383 8.3083391,9.4471533 8.0644531,9.3496094 Z" />
      <path
         id="path74"
         style="fill:#e7dabd;fill-opacity:1"
         d="m 8.2050781,12.044922 c -0.016784,0.0015 -0.034076,0.0041 -0.050781,0.0059 -0.3263852,0.03364 -0.6435855,0.10163 -0.9746094,0.494141 0.00782,0.0032 0.015621,0.0086 0.023437,0.01172 0.154271,0.327626 0.5777197,0.536858 1.0546875,0.492187 0.4790243,-0.0054 0.8788673,-0.257652 0.9980469,-0.599609 0.00745,-0.0039 0.014042,-0.0097 0.021484,-0.01367 -0.370239,-0.355759 -0.6933708,-0.391285 -1.0214844,-0.390625 -0.016794,3.4e-5 -0.033932,-2.58e-4 -0.050781,0 z" />
      <path
         id="path75"
         style="fill:#000000;fill-opacity:1"
         d="" />
      <g
         id="g78">
        <path
           style="fill:#2a190f;fill-opacity:1"
           d="M 8.109375,10.220703 C 8.002601,10.35178 7.8216177,10.611638 7.3046875,10.822266 6.8752564,10.997241 6.828125,11.40625 6.828125,11.40625 l 0.1308594,0.923828 c 0,0 0.2843483,0.144534 0.5761718,0.03906 0.2918236,-0.105472 0.4863282,-0.117188 0.4863282,-0.117188 l 0.1757812,-0.363281 0.2128907,0.341797 c 0,0 0.1928909,-0.008 0.4941406,0.06641 0.3012497,0.07439 0.5703125,-0.09961 0.5703125,-0.09961 l 0.033203,-0.931641 c 0,0 -0.089788,-0.400168 -0.5351562,-0.529297 -0.5361151,-0.15544 -0.743391,-0.396427 -0.8632813,-0.515625 z"
           id="path76" />
        <path
           style="fill:#000000"
           d="m 8.1308594,10.613281 c -0.066818,0.07484 -0.1630845,0.152594 -0.2832032,0.183594 -0.2541763,0.0656 -0.7946782,0.165118 -0.7988281,0.427734 -0.00288,0.182464 0.039279,0.628596 0.3164063,0.728516 0.2771276,0.09992 0.5203828,-0.04789 0.5390625,0.125 0.018675,0.172851 -0.3197807,0.102716 -0.2402344,0.298828 0.02486,0.06129 0.2586218,0.15398 0.5683594,0.169922 0.3063744,-0.04823 0.5266045,-0.164964 0.5449219,-0.228516 C 8.835955,12.115006 8.5073072,12.218778 8.5078125,12.044922 8.5083178,11.871025 8.766085,11.993574 9.03125,11.865234 9.2964149,11.736894 9.2934244,11.290538 9.2714844,11.109375 9.2399064,10.848631 8.6893283,10.806248 8.4296875,10.767578 8.3069865,10.749303 8.2051337,10.680724 8.1308594,10.613281 Z"
           id="path77" />
        <path
           style="fill:#000000"
           d="m 9.3736004,12.535108 c -0.1701637,0.03307 -0.4021829,-0.01914 -0.3690375,-0.155215 0.033145,-0.136071 0.2755049,-0.158051 0.4032719,-0.573243 0.1209897,-0.393168 0,-0.736009 0,-0.736009 0,0 0.3904147,0.315204 0.3093592,0.78997 -0.067187,0.393536 -0.3435936,0.674497 -0.3435936,0.674497 z m -2.2788192,0.119428 c 0.1726883,0.0151 0.3979791,-0.06108 0.3507915,-0.19294 C 7.398386,12.329735 7.1550562,12.333209 6.9845898,11.933647 6.8231656,11.55528 6.9076559,11.20167 6.9076559,11.20167 c 0,0 -0.3553282,0.354287 -0.2250902,0.817979 0.1079547,0.384357 0.4122155,0.634887 0.4122155,0.634887 z"
           id="path78" />
      </g>
      <g
         id="g82">
        <path
           style="fill:#000000;fill-opacity:1"
           d="m 10.863915,8.854839 c 0,0 -0.108808,0.1900124 -0.354843,0.2929354 -0.239935,0.1003715 -0.413787,0.086447 -0.5731289,0.060698 -0.1540909,-0.0249 -0.5758139,-0.3060738 -0.5758139,-0.3060738 0,0 0.2810308,0.3125782 0.5617458,0.3866638 0.362315,0.095621 0.562501,0.03906 0.75,-0.113281 0.223115,-0.1812777 0.19204,-0.3209423 0.19204,-0.3209424 z M 5.2279379,9.150208 c 0,0 0.1280736,0.177598 0.3835192,0.2542395 0.2491123,0.074742 0.4205564,0.042721 0.5763339,4.572e-4 0.150644,-0.04087 0.5406661,-0.364586 0.5406661,-0.364586 0,0 -0.2468179,0.3402416 -0.5182511,0.443264 C 5.8598709,9.6165521 5.6548693,9.5812261 5.4524735,9.4493186 5.2116321,9.2923559 5.2279379,9.1502081 5.2279379,9.150208 Z"
           id="path79" />
        <path
           id="path80"
           d="m 10.905314,8.2346609 c 0.161707,0.3742002 -0.0531,0.8270273 -0.479795,1.0114183 C 9.9988278,9.4304701 9.3601292,8.9023988 9.3601292,8.9023988 c 0,0 -0.013301,-0.9168717 0.4133893,-1.1012622 C 10.20021,7.616746 10.743606,7.8604616 10.905314,8.2346609 Z M 5.1219394,8.5377547 C 5.0002328,8.926808 5.2611964,9.354701 5.704828,9.4934801 6.1484559,9.6322595 6.7284571,9.0403189 6.7284571,9.0403189 c 0,0 -0.082611,-0.9132393 -0.5262379,-1.0520184 C 5.7585911,7.8495214 5.2436471,8.1487022 5.1219394,8.5377547 Z"
           style="fill:#20140c;fill-opacity:1;stroke-width:0.852568" />
        <path
           style="fill:#000000;fill-opacity:1"
           d="m 9.3601292,8.9023988 c 0,0 -0.147681,-0.4255127 0,-0.7574463 0.147681,-0.3319335 0.4397459,-0.5660051 0.7995148,-0.5798101 0.359769,-0.013805 1.201875,0.2478766 1.201875,0.2478766 0,0 -0.424806,0.3460233 -0.591237,0.2213356 C 10.603851,7.909667 10.100524,7.7791212 9.8399248,7.8909803 9.5634827,8.0096396 9.4207593,8.3815905 9.3601292,8.9023988 Z M 6.7284571,9.0403189 c 0,0 0.1023938,-0.4386186 -0.079175,-0.7532969 C 6.467714,7.9723437 6.1527819,7.7700835 5.7935408,7.7939602 5.4342997,7.8178369 4.62416,8.166109 4.62416,8.166109 c 0,0 0.4586481,0.2997234 0.611134,0.158322 0.1524859,-0.1414013 0.6394098,-0.323844 0.9102739,-0.2398377 0.287331,0.089113 0.468152,0.4441079 0.5828892,0.9557256 z"
           id="path81" />
        <path
           style="display:inline;fill:#120c09;fill-opacity:1;stroke-width:1.14184"
           id="path82"
           width="1.2070312"
           height="0.390625"
           x="8.0570698"
           y="9.8654966"
           ry="0.1953125"
           transform="rotate(-9.1771109)"
           d="m 8.2523823,9.8654966 h 0.8164062 c 0.1082032,0 0.1953125,0.087109 0.1953125,0.1953124 0,0.108203 -0.087109,0.195313 -0.1953125,0.195313 H 8.2523823 c -0.1082031,0 -0.1953125,-0.08711 -0.1953125,-0.195313 0,-0.108203 0.087109,-0.1953124 0.1953125,-0.1953124 z M 4.8676007,9.4991598 4.0700995,9.3244856 C 3.964402,9.301335 3.8606723,9.3677898 3.8375217,9.4734873 3.8143711,9.5791848 3.8808258,9.6829145 3.9865234,9.7060651 L 4.7840245,9.8807393 C 4.889722,9.9038899 4.9934518,9.8374351 5.0166023,9.7317376 5.0397529,9.6260401 4.9732982,9.5223104 4.8676007,9.4991598 Z" />
      </g>
      <path
         id="path83"
         style="display:inline;fill:#e7dabd;fill-opacity:1"
         d="m 9.0117188,5.3671875 c 0.00722,0.039063 0.00884,0.077719 0.00391,0.1171875 C 8.96875,5.859375 8.75,6.453125 8.75,6.453125 c 0,0 0.048391,0.2666726 0.359375,0.28125 C 9.46875,6.7512207 9.625,6.5 9.625,6.5 c 0,0 0.081175,-0.5086572 0.391622,-0.851611 z M 6.7054287,5.488055 c -0.0031,0.039604 -6.677e-4,0.078217 0.00836,0.1169543 0.08582,0.3680455 0.3654356,0.9356773 0.3654356,0.9356773 0,0 -0.020251,0.27027 -0.3280077,0.3172742 C 6.395572,6.9122791 6.2139183,6.6787672 6.2139183,6.6787672 c 0,0 -0.1338995,-0.4973856 -0.4784943,-0.8060101 z" />
    </g>
  </g>
</svg>
