<?xml version="1.0" encoding="UTF-8" standalone="no"?>
<!-- Created with Inkscape (http://www.inkscape.org/) -->

<svg
   width="16"
   height="16"
   viewBox="0 0 16 16"
   version="1.1"
   id="svg1"
   xml:space="preserve"
   xmlns="http://www.w3.org/2000/svg"
   xmlns:svg="http://www.w3.org/2000/svg"><defs
     id="defs1" /><g
     id="layer1"
     style="display:none"><path
       style="font-size:13.3333px;font-family:'Arial Black';-inkscape-font-specification:'Arial Black, Normal';white-space:pre;fill:#35d4f4"
       d="M 8.0794067,14.584557 H 5.4036322 v -3.300772 q -0.390624,0.410155 -0.8984353,0.618488 -0.5013008,0.208332 -1.1197888,0.208332 -1.2630176,0 -2.0898385,-0.904945 -0.82682078,-0.911456 -0.82682078,-2.6041604 0,-1.1328096 0.37760321,-1.9986928 Q 1.2239552,5.7369235 1.8945265,5.3137475 2.5650977,4.8840611 3.3723873,4.8840611 q 0.6966128,0 1.2825489,0.3059888 0.4296864,0.227864 0.944008,0.8723937 V 5.0403107 H 8.0794067 Z M 5.4231634,8.5168644 q 0,-0.8919248 -0.3385408,-1.2890592 -0.3320304,-0.3971344 -0.8463521,-0.3971344 -0.4752592,0 -0.8007792,0.3971344 -0.3190096,0.390624 -0.3190096,1.3151008 0,0.8268209 0.3124992,1.2109345 0.3190096,0.3776035 0.7747376,0.3776035 0.5338529,0 0.8723937,-0.3971347 Q 5.4231634,9.3371749 5.4231634,8.5168644 Z M 12.643197,5.0403107 h 1.263018 V 6.98041 h -1.263018 v 4.973946 H 9.9869538 V 6.98041 H 8.997373 V 5.0403107 H 9.9869538 V 4.7278115 q 0,-0.423176 0.091145,-0.9309872 0.09115,-0.5078112 0.338541,-0.8268208 0.253906,-0.3255201 0.703123,-0.5208321 0.455728,-0.2018224 1.328122,-0.2018224 0.696613,0 2.024735,0.16276 l -0.292968,1.6015585 q -0.47526,-0.078125 -0.768228,-0.078125 -0.358072,0 -0.514321,0.1236976 -0.15625,0.1171872 -0.221354,0.3776032 -0.03255,0.1432288 -0.03255,0.6054672 z"
       id="text1"
       transform="matrix(1.1338365,0,0,1.1338365,-0.47053468,-1.5423153)"
       aria-label="qf" /></g><g
     id="layer2"
     style="display:none"><path
       id="rect19"
       style="fill:#5e2d15;fill-opacity:1"
       d="m 8,10.148087 c 0,0 2.385572,0.473908 3.146338,0.147076 C 11.199918,11.706611 11.960601,16 11.960601,16 H 6.5849082 Z" /><path
       style="fill:#c0a975;fill-opacity:1"
       d="m 7.9963715,10.734375 c 0,0 2.4831435,-0.551419 2.2726795,1.028978 -0.210464,1.580397 -0.07374,2.517897 -0.7612408,2.556959 -0.6874977,0.03906 -0.7181927,0 -1.5114389,0 -0.7932463,0 -1.3323088,-2.226562 -1.3323088,-2.226562 z"
       id="path20" /><g
       id="g17"><path
         style="display:inline;fill:#c0a975;fill-opacity:1"
         d="m 10.445312,5.0390625 c 0,0 0.947645,-1.1583866 1.796875,-1.671875 C 13.25,2.7578125 14.632812,2.671875 14.632812,2.671875 c 0,0 -1.28125,0.2734375 -2.296875,0.859375 -0.91097,0.52556 -1.890625,1.5078125 -1.890625,1.5078125 z"
         id="path17" /><path
         style="fill:#e7dabd;fill-opacity:1"
         d="m 8.75,6.453125 c 0,0 0.21875,-0.59375 0.265625,-0.96875 C 9.0625,5.109375 8.5007852,4.7686311 8.4695352,4.1592561 8.4382852,3.5498811 8.5417912,3.2265873 8.8934684,2.9430243 8.7148156,3.4770535 8.740892,3.8675491 8.9422391,4.2571226 9.1321457,4.6245606 9.3109296,4.7956019 9.5921796,4.7799769 9.8734296,4.7643519 10.371697,4.2194731 11.496994,3.4233107 12.475086,2.7312985 13.109375,2.609375 13.40625,2.03125 c 0.296875,-0.578125 0.04639,-1.82267613 -0.453125,-2.421875 -0.577528,-0.6927787 -1.71875,-1.25046 -1.71875,-1.25046 0,0 0.744634,-0.178336 1.762429,0.6126505 0.686027,0.53315071 1.066378,1.00939546 1.173176,1.73594544 C 14.267341,1.3698632 14.125,2.03125 14.125,2.03125 c 0,0 0.461966,-0.4922016 0.463063,-1.40513956 0.0011,-0.88933234 -0.227993,-1.79391894 -1.160311,-2.58800774 -0.689926,-0.5876348 -1.21274,-0.7554323 -2.327529,-0.9612228 0.774511,-0.3494216 1.973465,0.031654 2.490386,0.3915449 0.603228,0.4199793 1.188245,0.6645938 1.6084,2.22438105 0.332654,1.23494917 0.08225,2.26031915 0.08225,2.26031915 0,0 0.560316,-0.6899025 0.604799,-1.38480339 0.07092,-1.10796245 -0.158754,-1.97195331 -1.260264,-3.13748421 1.075054,0.2928769 1.659545,1.2311173 1.828775,2.22319174 0.232917,1.36542296 0.02441,2.32877186 -0.698878,2.75032526 -0.435926,0.2540705 -1.266814,0.362924 -2.129958,0.670974 -0.863145,0.30805 -2.067905,1.0583646 -2.533419,1.4905029 C 10.231018,5.3653761 9.625,6.5 9.625,6.5 9.625,6.5 9.40625,6.828125 9.109375,6.734375 8.8125,6.640625 8.75,6.453125 8.75,6.453125 Z"
         id="path18" /></g><path
       id="path1"
       style="fill:#6f3d24;fill-opacity:1"
       d="M 14.138672,2.2695312 C 13.276409,2.2567302 11.048266,3.8615809 10.619141,4.4765625 10.129378,5.1784455 10.265354,5.7666122 9.2617188,6.2773438 8.8495963,6.4082681 8.4223788,6.4651529 8,6.5410156 7.1364562,6.5019696 5.9194725,5.7825806 5.2421875,6.5214844 c -0.447954,0.4887075 0.039794,1.2307894 0.058594,1.9707031 0.01518,0.5975075 -0.7810497,1.7581165 -0.2929687,2.5000005 0.3072289,0.466988 1.0045997,1.071888 1.7363281,1.457031 0.1204869,0.345708 0.5276578,0.599609 1.0136719,0.599609 h 0.484375 c 0.4860141,0 0.893185,-0.253901 1.0136719,-0.599609 0.7317284,-0.385143 1.4290993,-0.990043 1.7363283,-1.457031 0.488081,-0.741884 -0.308149,-1.902493 -0.292969,-2.5000005 0.0049,-0.1916212 0.04061,-0.3827255 0.08398,-0.5703125 0.0522,-0.1662061 0.125858,-0.3354251 0.271485,-0.5292969 0.287357,-0.3825572 1.342698,-0.2730658 2.042968,-0.6054687 1.330552,-0.6315852 1.734641,-3.8654859 1.31836,-4.40625 -0.05813,-0.075517 -0.15416,-0.1094994 -0.27734,-0.1113282 z" /><g
       id="g8"
       clip-path="none"><path
         style="fill:#e7dabd;fill-opacity:1"
         d="m 10.547023,7.0681622 c 0,0 0.25947,-0.2816811 0.33681,-0.5550247 0.07141,-0.2523872 -0.0469,-0.6736207 0.09114,-1.1706008 0.13805,-0.4969802 0.690251,-1.2838654 1.490941,-1.7670406 0.80069,-0.4831751 2.305436,-1.0629853 2.305436,-1.0629853 l -0.767699,4.3846827 c 0,0 -0.875001,-0.2817037 -1.766859,-0.2735025 -0.786972,0.00724 -1.689769,0.4444712 -1.689769,0.4444712 z"
         id="path3" /><path
         style="display:inline;fill:#c0a975;fill-opacity:1"
         d="m 10.547023,7.0681622 c 0,0 0.25947,-0.2816811 0.33681,-0.5550247 0.07141,-0.2523872 -0.0469,-0.6736207 0.09114,-1.1706008 0.13805,-0.4969802 0.690251,-1.2838654 1.490941,-1.7670406 C 13.266604,3.092321 14.77135,2.5125108 14.77135,2.5125108 14.263708,2.7393459 13.724268,3.02733 13.236662,3.3411651 12.749056,3.6550003 12.512159,4 12.941061,4.2475866 c -0.698051,0.2418513 -0.742187,0.6178871 -0.07195,0.7834505 -0.538609,0.064815 -1.026557,0.597154 -0.523731,0.839439 -0.334159,0.1377152 -1.053995,0.3725456 -0.515046,0.6128043 -0.367095,0.088375 -0.932714,0.3042673 -1.283309,0.5848818 z"
         id="path3-5" /><path
         style="display:inline;fill:#955c50;fill-opacity:1"
         d="M 14.15833,6.9524363 C 13.343744,6.2454657 11.960601,6.2992064 11.960601,6.2992064 12.573484,6.2170697 13.040739,6.0378486 13.47871,5.8391042 13.184584,5.642888 12.83805,5.4990804 12.396894,5.4498951 12.942738,5.3463042 13.295659,5.1600322 13.639344,4.9698016 13.467497,4.7274985 13.146725,4.6341206 12.769629,4.5970664 c 0.337632,-0.1406755 0.654163,-0.3341061 1.1044,-0.19327 -0.20674,-0.2458685 -0.42073,-0.4820718 -0.80069,-0.4969802 0.273078,-0.1392197 0.540877,-0.3206711 0.842105,-0.2346851 0.06882,-0.2063306 0.02695,-0.365222 -0.11044,-0.4831751 0,0 0.483166,-0.5107851 0.966346,-0.6764452"
         id="path4" /></g><path
       style="fill:#2a190f;fill-opacity:1"
       d="m 8.9857019,8.8607692 c 0,0 -0.068513,-0.6797645 0.10161,-1.0377303 0.1396884,-0.2939257 0.3927347,-0.4866911 0.6951143,-0.5543228 0.3851878,-0.086153 0.5611878,-0.06317 0.5611878,-0.06317 0,0 -0.172599,-0.1732524 -0.6103987,-0.1753214 C 9.2590958,7.0279844 8.8645129,7.2171024 8.7483882,7.8347581 8.6258838,8.4863468 8.9857019,8.8607696 8.9857019,8.8607692 Z"
       id="path2" /><path
       style="fill:#e7dabd;fill-opacity:1"
       d="m 10.982252,7.5903493 c 0,0 -0.541378,-0.3425048 -1.1269512,-0.1657281 -0.5855728,0.1767767 -0.7071068,0.7292039 -0.7181554,0.894932 -0.011048,0.1657282 0.022652,0.7075471 0.022652,0.7075471 0,0 0.4465766,0.391531 0.6706101,0.4518798 0.2320205,0.0625 0.5220765,0.089059 0.7872415,-0.054572 0.265165,-0.1436311 0.353555,-0.4419418 0.353555,-0.4419418 z"
       id="path12" /><path
       style="fill:#e7dabd;fill-opacity:1"
       d="m 9.8994949,12.385417 c 0,0 0.5413791,-0.685009 0.4861361,-1.082757 C 10.330388,10.904912 9.9785423,10.916879 9.2926788,10.463429 8.6068153,10.00998 8.2451634,9.3360461 8,9.3360461 c -0.2451634,0 -1.8680584,3.2321279 -1.8680584,3.2321279 l 0.8175922,0.800564 1.767767,0.09944 z"
       id="path15" /><path
       style="fill:#c0a975;fill-opacity:1"
       d="m 9.4078348,12.573242 c -0.5248059,-0.596621 -0.9484662,-0.524805 -1.407835,-0.524805 -0.4593689,0 -1.4205922,0.364602 -1.4150679,0.651864 0.00552,0.287262 1.4150679,0.602145 1.4150679,0.602145 0,0 1.1813398,-0.04972 1.407835,-0.729204 z"
       id="path5" /><circle
       style="fill:#000000;fill-opacity:1"
       id="path6"
       cx="7.9963713"
       cy="13.048788"
       r="0.24153468" /><g
       id="g9"><path
         style="fill:#2a190f;fill-opacity:1"
         d="m 9.5078102,11.266224 c 0,0 -0.089463,-0.401685 -0.5348315,-0.530814 C 8.2379059,10.522285 8.1210938,10.148691 8,10.148087 7.7845563,10.147013 7.4743396,10.728136 7.4743396,10.728136 l 0.9360096,1.502602 c 0,0 0.1935271,-0.0081 0.4947768,0.06629 0.3012497,0.07439 0.569,-0.09944 0.569,-0.09944 z"
         id="path14" /><path
         style="fill:#000000"
         d="m 7.9999995,10.463429 c 0,0 0.1703984,0.264706 0.4300391,0.303376 0.2596408,0.03867 0.8091223,0.08118 0.8407003,0.341924 0.02194,0.181163 0.02661,0.629067 -0.2385549,0.757407 -0.265165,0.12834 -0.5237951,0.0057 -0.5243004,0.179597 -5.053e-4,0.173856 0.3287952,0.07004 0.270184,0.273393 -0.022744,0.07891 -0.3591013,0.237544 -0.7816963,0.248592 -0.422595,0.01105 -0.4557406,-0.182301 -0.4557406,-0.182301 z"
         id="path7" /><path
         style="fill:#000000"
         d="m 9.3736004,12.535108 c -0.1701637,0.03307 -0.4021829,-0.01914 -0.3690375,-0.155215 0.033145,-0.136071 0.2755049,-0.158051 0.4032719,-0.573243 0.1209897,-0.393168 0,-0.736009 0,-0.736009 0,0 0.3904147,0.315204 0.3093592,0.78997 -0.067187,0.393536 -0.3435936,0.674497 -0.3435936,0.674497 z"
         id="path13" /></g><g
       id="g11"><path
         style="fill:#000000;fill-opacity:1"
         d="m 10.863915,8.854839 c 0,0 -0.108808,0.1900124 -0.354843,0.2929354 -0.239935,0.1003715 -0.413787,0.086447 -0.5731289,0.060698 -0.1540909,-0.0249 -0.5758139,-0.3060738 -0.5758139,-0.3060738 0,0 0.2810308,0.3125782 0.5617458,0.3866638 0.362315,0.095621 0.562501,0.03906 0.75,-0.113281 0.223115,-0.1812777 0.19204,-0.3209423 0.19204,-0.3209424 z"
         id="path11" /><path
         id="path9"
         d="m 10.905314,8.2346609 c 0.161707,0.3742002 -0.0531,0.8270273 -0.479795,1.0114183 C 9.9988278,9.4304701 9.3601292,8.9023988 9.3601292,8.9023988 c 0,0 -0.013301,-0.9168717 0.4133893,-1.1012622 0.4266915,-0.1843906 0.9700875,0.059325 1.1317955,0.4335243 z"
         style="fill:#20140c;fill-opacity:1;stroke-width:0.852568" /><path
         style="fill:#000000;fill-opacity:1"
         d="m 9.3601292,8.9023988 c 0,0 -0.147681,-0.4255127 0,-0.7574463 0.147681,-0.3319335 0.4397459,-0.5660051 0.7995148,-0.5798101 0.359769,-0.013805 1.201875,0.2478766 1.201875,0.2478766 0,0 -0.424806,0.3460233 -0.591237,0.2213356 C 10.603851,7.909667 10.100524,7.7791212 9.8399248,7.8909803 9.5634827,8.0096396 9.4207593,8.3815905 9.3601292,8.9023988 Z"
         id="path10" /><rect
         style="fill:#120c09;fill-opacity:1;stroke-width:1.14184"
         id="rect11"
         width="1.2070312"
         height="0.390625"
         x="8.0570698"
         y="9.8654966"
         ry="0.1953125"
         transform="rotate(-9.1771109)" /></g><path
       id="path19"
       style="display:inline;fill:#e7dabd;fill-opacity:1"
       d="m 9.0117188,5.3671875 c 0.00722,0.039063 0.00884,0.077719 0.00391,0.1171875 C 8.96875,5.859375 8.75,6.453125 8.75,6.453125 c 0,0 0.048391,0.2666726 0.359375,0.28125 C 9.46875,6.7512207 9.625,6.5 9.625,6.5 c 0,0 0.081175,-0.5086572 0.391622,-0.851611 z" /></g><g
     id="g40"
     style="display:none"><g
       id="g43"
       style="display:none"><path
         id="path21"
         style="fill:#5e2d15;fill-opacity:1"
         d="m 8,10.148438 c 0,-1e-6 -2.3857184,0.473316 -3.1464844,0.146484 C 4.7999356,11.70637 4.0390625,16 4.0390625,16 H 8 11.960938 c -1e-6,0 -0.760874,-4.29363 -0.814454,-5.705078 C 10.385718,10.621754 8,10.148438 8,10.148438 Z" /><path
         style="fill:#c0a975;fill-opacity:1"
         d="m 7.0742187,10.640625 c -0.6805852,0.0055 -1.4659335,0.205558 -1.34375,1.123047 0.210464,1.580397 0.074218,2.517578 0.7617188,2.556641 0.6864478,0.039 0.7180997,1.18e-4 1.5078125,0 0.7897128,1.18e-4 0.8213647,0.039 1.5078125,0 0.6875005,-0.03906 0.5512545,-0.976244 0.7617185,-2.556641 C 10.475314,10.218427 8.1055018,10.711689 8,10.734375 c -0.04286,-0.0092 -0.4601176,-0.09753 -0.9257813,-0.09375 z"
         id="path22" /><g
         id="g24"><path
           style="display:inline;fill:#c0a975;fill-opacity:1"
           d="m 10.445312,5.0390625 c 0,0 0.947645,-1.1583866 1.796875,-1.671875 C 13.25,2.7578125 14.632812,2.671875 14.632812,2.671875 c 0,0 -1.28125,0.2734375 -2.296875,0.859375 -0.91097,0.52556 -1.890625,1.5078125 -1.890625,1.5078125 z m -4.890624,0 c 0,0 -0.947645,-1.1583866 -1.796875,-1.671875 C 2.75,2.7578125 1.367188,2.671875 1.367188,2.671875 c 0,0 1.28125,0.2734375 2.296875,0.859375 0.91097,0.52556 1.890625,1.5078125 1.890625,1.5078125 z"
           id="path23" /><path
           style="fill:#e7dabd;fill-opacity:1"
           d="m 8.75,6.453125 c 0,0 0.21875,-0.59375 0.265625,-0.96875 C 9.0625,5.109375 8.5007852,4.7686311 8.4695352,4.1592561 8.4382852,3.5498811 8.5417912,3.2265873 8.8934684,2.9430243 8.7148156,3.4770535 8.740892,3.8675491 8.9422391,4.2571226 9.1321457,4.6245606 9.3109296,4.7956019 9.5921796,4.7799769 9.8734296,4.7643519 10.371697,4.2194731 11.496994,3.4233107 12.475086,2.7312985 13.109375,2.609375 13.40625,2.03125 c 0.296875,-0.578125 0.04639,-1.82267613 -0.453125,-2.421875 -0.577528,-0.6927787 -1.71875,-1.25046 -1.71875,-1.25046 0,0 0.744634,-0.178336 1.762429,0.6126505 0.686027,0.53315071 1.066378,1.00939546 1.173176,1.73594544 C 14.267341,1.3698632 14.125,2.03125 14.125,2.03125 c 0,0 0.461966,-0.4922016 0.463063,-1.40513956 0.0011,-0.88933234 -0.227993,-1.79391894 -1.160311,-2.58800774 -0.689926,-0.5876348 -1.21274,-0.7554323 -2.327529,-0.9612228 0.774511,-0.3494216 1.973465,0.031654 2.490386,0.3915449 0.603228,0.4199793 1.188245,0.6645938 1.6084,2.22438105 0.332654,1.23494917 0.08225,2.26031915 0.08225,2.26031915 0,0 0.560316,-0.6899025 0.604799,-1.38480339 0.07092,-1.10796245 -0.158754,-1.97195331 -1.260264,-3.13748421 1.075054,0.2928769 1.659545,1.2311173 1.828775,2.22319174 0.232917,1.36542296 0.02441,2.32877186 -0.698878,2.75032526 -0.435926,0.2540705 -1.266814,0.362924 -2.129958,0.670974 -0.863145,0.30805 -2.067905,1.0583646 -2.533419,1.4905029 C 10.231018,5.3653761 9.625,6.5 9.625,6.5 9.625,6.5 9.40625,6.828125 9.109375,6.734375 8.8125,6.640625 8.75,6.453125 8.75,6.453125 Z m -1.5,0 c 0,0 -0.21875,-0.59375 -0.265625,-0.96875 C 6.9375,5.109375 7.4992148,4.7686311 7.5304648,4.1592561 7.5617148,3.5498811 7.4582088,3.2265873 7.1065316,2.9430243 7.2851844,3.4770535 7.259108,3.8675491 7.0577609,4.2571226 6.8678543,4.6245606 6.6890704,4.7956019 6.4078204,4.7799769 6.1265704,4.7643519 5.628303,4.2194731 4.503006,3.4233107 3.524914,2.7312985 2.890625,2.609375 2.59375,2.03125 2.296875,1.453125 2.54736,0.20857387 3.046875,-0.390625 c 0.577528,-0.6927787 1.71875,-1.25046 1.71875,-1.25046 0,0 -0.744634,-0.178336 -1.762429,0.6126505 C 2.317169,-0.49528379 1.936818,-0.01903904 1.83002,0.70751094 1.732659,1.3698632 1.875,2.03125 1.875,2.03125 c 0,0 -0.461966,-0.4922016 -0.463063,-1.40513956 C 1.410837,-0.2632219 1.63993,-1.1678085 2.572248,-1.9618973 3.262174,-2.5495321 3.784988,-2.7173296 4.899777,-2.9231201 4.125266,-3.2725417 2.926312,-2.8914661 2.409391,-2.5315752 1.806163,-2.1115959 1.221146,-1.8669814 0.800991,-0.30719415 0.468337,0.92775502 0.718741,1.953125 0.718741,1.953125 c 0,0 -0.560316,-0.6899025 -0.604799,-1.38480339 C 0.043022,-0.53964084 0.272696,-1.4036317 1.374206,-2.5691626 0.299152,-2.2762857 -0.285339,-1.3380453 -0.454569,-0.34597086 -0.687486,1.0194521 -0.478979,1.982801 0.244309,2.4043544 0.680235,2.6584249 1.511123,2.7672784 2.374267,3.0753284 3.237412,3.3833784 4.442172,4.133693 4.907686,4.5658313 5.768982,5.3653761 6.375,6.5 6.375,6.5 c 0,0 0.21875,0.328125 0.515625,0.234375 C 7.1875,6.640625 7.25,6.453125 7.25,6.453125 Z"
           id="path24" /></g><path
         id="path25"
         style="display:inline;fill:#6f3d24;fill-opacity:1"
         d="m 1.8613281,2.2695313 c -0.12318,0.00183 -0.2192137,0.035811 -0.2773437,0.1113281 -0.416281,0.5407641 -0.012193,3.7746648 1.3183594,4.40625 0.7002699,0.3324029 1.7556117,0.2229115 2.0429687,0.6054687 0.145627,0.1938718 0.2192844,0.3630908 0.2714844,0.5292969 0.04337,0.187587 0.079084,0.3786913 0.083984,0.5703125 0.01518,0.5975075 -0.7810497,1.7581165 -0.2929687,2.5000005 0.307229,0.466988 1.0045997,1.071888 1.7363281,1.457031 0.1204869,0.345708 0.5276578,0.599609 1.0136719,0.599609 H 8 8.2421875 c 0.4860141,0 0.893185,-0.253901 1.0136719,-0.599609 0.7317284,-0.385143 1.4290986,-0.990043 1.7363286,-1.457031 0.48808,-0.741885 -0.308149,-1.902493 -0.292969,-2.5000005 0.0049,-0.1916212 0.04061,-0.3827255 0.08398,-0.5703125 0.0522,-0.1662061 0.125858,-0.3354251 0.271485,-0.5292969 0.287357,-0.3825572 1.342698,-0.2730658 2.042968,-0.6054687 1.330552,-0.6315852 1.734641,-3.8654859 1.31836,-4.40625 C 14.357886,2.3053424 14.261852,2.2713601 14.138672,2.2695313 13.276409,2.2567303 11.048266,3.8615809 10.619141,4.4765625 10.129378,5.1784455 10.265354,5.7666122 9.2617188,6.2773437 8.8495962,6.408268 8.4223788,6.4651529 8,6.5410156 7.5776212,6.4651529 7.1504037,6.408268 6.7382812,6.2773437 5.734646,5.7666121 5.8706224,5.1784455 5.3808594,4.4765625 4.9517344,3.8615809 2.7235911,2.2567303 1.8613281,2.2695313 Z" /><g
         id="g28"
         clip-path="none"><path
           id="path26"
           style="fill:#e7dabd;fill-opacity:1"
           d="m 14.515625,2.6152344 c -0.46374,0.1870805 -1.451307,0.6003642 -2.048828,0.9609375 -0.80069,0.4831752 -1.354138,1.2686448 -1.492188,1.765625 -0.13804,0.4969801 -0.01843,0.9194878 -0.08984,1.171875 -0.07734,0.2733436 -0.337891,0.5546875 -0.337891,0.5546875 0,0 0.902481,-0.4380725 1.689453,-0.4453125 0.350752,-0.00323 0.696897,0.040113 0.990234,0.091797 0.616735,-0.3885782 1.014222,-1.3488093 1.207032,-2.2753907 l 0.07617,-0.4296875 c 0.08095,-0.5666511 0.08332,-1.0823934 0.0059,-1.3945312 z m -13.03125,0 c 0.46374,0.1870805 1.451307,0.6003642 2.048828,0.9609375 0.80069,0.4831752 1.354138,1.2686448 1.492188,1.765625 0.13804,0.4969801 0.01843,0.9194878 0.08984,1.171875 0.07734,0.2733436 0.337891,0.5546875 0.337891,0.5546875 0,0 -0.902481,-0.4380725 -1.689453,-0.4453125 C 3.412917,6.6198169 3.066772,6.6631599 2.773435,6.7148439 2.1567,6.3262657 1.759213,5.3660346 1.566403,4.4394532 L 1.490233,4.0097657 C 1.409283,3.4431146 1.406913,2.9273723 1.484333,2.6152345 Z" /><path
           id="path27"
           style="display:inline;fill:#c0a975;fill-opacity:1"
           d="m 14.515625,2.6152344 c -0.46374,0.1870805 -1.451307,0.6003642 -2.048828,0.9609375 -0.80069,0.4831752 -1.354138,1.2686448 -1.492188,1.765625 -0.13804,0.4969801 -0.01843,0.9194878 -0.08984,1.171875 -0.07734,0.2733436 -0.337891,0.5546875 -0.337891,0.5546875 0.350592,-0.2806145 0.916105,-0.4975625 1.2832,-0.5859375 -0.538949,-0.2402587 0.181466,-0.473613 0.515625,-0.6113281 -0.502826,-0.242285 -0.01517,-0.7750288 0.523438,-0.8398438 -0.670237,-0.1655634 -0.625786,-0.5413518 0.07226,-0.7832031 -0.428902,-0.2475866 -0.192684,-0.5924148 0.294922,-0.90625 0.407079,-0.2620057 0.850581,-0.507459 1.28125,-0.7128907 -0.001,-0.00439 -8.83e-4,-0.00936 -0.002,-0.013672 z m -13.03125,0 c 0.46374,0.1870805 1.451307,0.6003642 2.048828,0.9609375 0.80069,0.4831752 1.354138,1.2686448 1.492188,1.765625 0.13804,0.4969801 0.01843,0.9194878 0.08984,1.171875 0.07734,0.2733436 0.337891,0.5546875 0.337891,0.5546875 C 5.10253,6.7877449 4.537017,6.5707969 4.169922,6.4824219 4.708871,6.2421632 3.988456,6.0088089 3.654297,5.8710938 4.157123,5.6288088 3.669467,5.096065 3.130859,5.03125 3.801096,4.8656866 3.756645,4.4898982 3.058599,4.2480469 3.487501,4.0004603 3.251283,3.6556321 2.763677,3.3417969 2.356598,3.0797912 1.913096,2.8343379 1.482427,2.6289062 c 0.001,-0.00439 8.83e-4,-0.00936 0.002,-0.013672 z" /><path
           id="path28"
           style="display:inline;fill:#955c50;fill-opacity:1"
           d="m 14.517578,2.6289062 c -0.385361,0.2148033 -0.71289,0.5605469 -0.71289,0.5605469 0.137389,0.1179531 0.180148,0.2760913 0.111328,0.4824219 -0.301228,-0.085986 -0.568719,0.095155 -0.841797,0.234375 0.37996,0.014908 0.594041,0.2521784 0.800781,0.4980469 -0.450237,-0.1408361 -0.767837,0.052684 -1.105469,0.1933593 0.377096,0.037054 0.697294,0.1307438 0.869141,0.3730469 -0.343685,0.1902306 -0.696344,0.3749247 -1.242188,0.4785157 0.441156,0.049185 0.787906,0.1944087 1.082032,0.390625 -0.437971,0.1987444 -0.904695,0.3768476 -1.517578,0.4589843 -1e-6,0 0.76048,-0.027632 1.486328,0.2460938 0.930083,-0.861964 1.26818,-3.0813546 1.070312,-3.9160157 z m -13.035156,0 C 1.867783,2.8437095 2.195312,3.1894531 2.195312,3.1894531 2.057923,3.3074062 2.015164,3.4655444 2.083984,3.671875 2.385212,3.585889 2.652703,3.76703 2.925781,3.90625 2.545821,3.921158 2.33174,4.1584284 2.125,4.4042969 2.575237,4.2634608 2.892837,4.4569809 3.230469,4.5976562 2.853373,4.6347102 2.533175,4.7284 2.361328,4.9707031 2.705013,5.1609337 3.057672,5.3456278 3.603516,5.4492188 3.16236,5.4984038 2.81561,5.6436275 2.521484,5.8398438 c 0.437971,0.1987444 0.904695,0.3768476 1.517578,0.4589843 10e-7,0 -0.76048,-0.027632 -1.486328,0.2460938 C 1.622651,5.6829579 1.284554,3.4635673 1.482422,2.6289062 Z" /></g><path
         style="fill:#2a190f;fill-opacity:1"
         d="m 8.9857019,8.8607692 c 0,0 -0.068513,-0.6797645 0.10161,-1.0377303 0.1396884,-0.2939257 0.3927347,-0.4866911 0.6951143,-0.5543228 0.3851878,-0.086153 0.5611878,-0.06317 0.5611878,-0.06317 0,0 -0.172599,-0.1732524 -0.6103987,-0.1753214 C 9.2590958,7.0279844 8.8645129,7.2171024 8.7483882,7.8347581 8.6258838,8.4863468 8.9857019,8.8607696 8.9857019,8.8607692 Z m -1.9714038,0 c 0,0 0.068513,-0.6797645 -0.10161,-1.0377303 C 6.7729997,7.5291132 6.5199534,7.3363478 6.2175738,7.2687161 5.832386,7.1825631 5.656386,7.2055461 5.656386,7.2055461 c 0,0 0.172599,-0.1732524 0.6103987,-0.1753214 0.4741195,-0.00224 0.8687024,0.1868777 0.9848271,0.8045334 0.1225044,0.6515887 -0.2373137,1.0260115 -0.2373137,1.0260111 z"
         id="path29" /><path
         id="path30"
         style="fill:#e7dabd;fill-opacity:1"
         d="M 10.175781,7.375 C 10.072371,7.37731 9.9652637,7.390682 9.8554688,7.423828 9.269896,7.6006047 9.1477674,8.1545843 9.1367188,8.3203124 c -0.011048,0.1657282 0.023437,0.7070313 0.023437,0.7070313 0,0 0.4458884,0.390823 0.6699219,0.4511718 0.2320213,0.0625 0.5219453,0.088944 0.7871103,-0.054687 0.110631,-0.059925 0.190585,-0.1456855 0.246093,-0.2265625 -0.09084,-0.2695365 -0.168848,-0.516709 -0.164062,-0.7050781 0.0049,-0.1916212 0.04061,-0.3827255 0.08398,-0.5703125 0.03588,-0.114255 0.08368,-0.2313365 0.15625,-0.3554688 C 10.835915,7.5097757 10.53713,7.3669128 10.175781,7.375 Z m -4.351562,0 c 0.10341,0.00231 0.2105173,0.015682 0.3203122,0.048828 0.5855728,0.1767767 0.7077014,0.7307563 0.71875,0.8964844 0.011048,0.1657282 -0.023437,0.7070313 -0.023437,0.7070313 0,0 -0.4458884,0.390823 -0.6699219,0.4511718 C 5.937901,9.5410155 5.647977,9.5674595 5.382812,9.4238285 5.272181,9.3639035 5.192227,9.278143 5.136719,9.197266 5.227559,8.9277295 5.305567,8.680557 5.300781,8.4921879 5.295881,8.3005667 5.260171,8.1094624 5.216801,7.9218754 5.180921,7.8076204 5.133121,7.6905389 5.060551,7.5664066 5.164085,7.5097757 5.46287,7.3669128 5.824219,7.375 Z" /><path
         id="path31"
         style="fill:#e7dabd;fill-opacity:1"
         d="m 8,9.3359375 c -0.2451634,0 -0.6071053,0.6735045 -1.2929688,1.1269535 -0.6858635,0.45345 -1.0365578,0.442095 -1.0917968,0.839843 -0.017877,0.128691 0.027203,0.287457 0.095703,0.44336 0.3056087,0.259712 0.664745,0.509188 1.0332031,0.703125 0.1204869,0.345708 0.5276578,0.599609 1.0136719,0.599609 H 8 8.2421875 c 0.4860141,0 0.893185,-0.253901 1.0136719,-0.599609 0.3684581,-0.193937 0.7275944,-0.443413 1.0332036,-0.703125 0.0685,-0.155903 0.11358,-0.314669 0.0957,-0.44336 C 10.329527,10.904986 9.9788323,10.916341 9.2929688,10.462891 8.6071053,10.009442 8.2451634,9.3359375 8,9.3359375 Z" /><path
         id="path32"
         style="fill:#e7dabd;fill-opacity:1"
         d="m 7.6835937,12.044922 c -0.3072134,0.0047 -0.6138384,0.0571 -0.9609375,0.390625 0.00744,0.004 0.014034,0.0098 0.021484,0.01367 0.1204869,0.345708 0.5276578,0.599609 1.0136719,0.599609 H 8 8.2421875 c 0.4860141,0 0.893185,-0.253901 1.0136719,-0.599609 0.00745,-0.0039 0.014042,-0.0097 0.021484,-0.01367 -0.370239,-0.355759 -0.6933708,-0.391285 -1.0214844,-0.390625 -0.084523,1.7e-4 -0.1697277,0.0039 -0.2558594,0.0039 -0.086132,0 -0.1713364,-0.0037 -0.2558594,-0.0039 -0.020507,-4.1e-5 -0.040066,-3.11e-4 -0.060547,0 z" /><path
         id="circle32"
         style="fill:#000000;fill-opacity:1"
         d="m 7.9882812,12.806641 c -0.1263526,0.008 -0.2269099,0.113729 -0.2265625,0.242187 H 8 8.2382813 C 8.2386399,12.916227 8.1321063,12.808377 8,12.806641 c -0.00413,5.4e-5 -0.00764,-2.59e-4 -0.011719,0 z" /><g
         id="g35"><path
           style="fill:#2a190f;fill-opacity:1"
           d="m 7.9882812,10.148438 c -0.1176393,0.02266 -0.2488357,0.381425 -0.9609375,0.58789 -0.4453684,0.129129 -0.5351562,0.529297 -0.5351562,0.529297 l 0.033203,0.931641 c 0,0 0.2690628,0.173999 0.5703125,0.09961 0.3012497,-0.07439 0.4941407,-0.06641 0.4941406,-0.06641 L 8,11.572266 8.4101563,12.230469 c 0,0 0.1928909,-0.008 0.4941406,0.06641 0.3012497,0.07439 0.5703125,-0.09961 0.5703125,-0.09961 l 0.033203,-0.931641 c 0,0 -0.089788,-0.400168 -0.5351562,-0.529297 C 8.2375834,10.523203 8.1210938,10.149041 8,10.148438 c -0.00378,1.8e-5 -0.00792,-7.32e-4 -0.011719,0 z"
           id="path33" /><path
           style="fill:#000000"
           d="m 8,10.462891 c -2.04e-5,3.3e-5 -0.1700631,0.26602 -0.4296875,0.304687 -0.2596408,0.03867 -0.8102189,0.08105 -0.8417969,0.341797 -0.02194,0.181163 -0.02493,0.627519 0.2402344,0.755859 0.265165,0.12834 0.5229322,0.0058 0.5234375,0.179688 5.053e-4,0.173856 -0.3281424,0.07008 -0.2695313,0.273437 0.022679,0.07868 0.3564535,0.238143 0.7773438,0.25 0.4208903,-0.01186 0.7546649,-0.171316 0.7773438,-0.25 C 8.835955,12.115006 8.5073072,12.218778 8.5078125,12.044922 8.5083178,11.871025 8.766085,11.993574 9.03125,11.865234 9.2964149,11.736894 9.2934244,11.290538 9.2714844,11.109375 9.2399064,10.848631 8.6893283,10.806248 8.4296875,10.767578 8.1700631,10.728911 8.0000214,10.462924 8,10.462891 Z"
           id="path34" /><path
           style="fill:#000000"
           d="m 9.3736004,12.535108 c -0.1701637,0.03307 -0.4021829,-0.01914 -0.3690375,-0.155215 0.033145,-0.136071 0.2755049,-0.158051 0.4032719,-0.573243 0.1209897,-0.393168 0,-0.736009 0,-0.736009 0,0 0.3904147,0.315204 0.3093592,0.78997 -0.067187,0.393536 -0.3435936,0.674497 -0.3435936,0.674497 z m -2.7472008,0 c 0.1701637,0.03307 0.4021829,-0.01914 0.3690375,-0.155215 -0.033145,-0.136071 -0.2755049,-0.158051 -0.4032719,-0.573243 -0.1209897,-0.393168 0,-0.736009 0,-0.736009 0,0 -0.3904147,0.315204 -0.3093592,0.78997 0.067187,0.393536 0.3435936,0.674497 0.3435936,0.674497 z"
           id="path35" /></g><g
         id="g39"><path
           style="fill:#000000;fill-opacity:1"
           d="m 10.863915,8.854839 c 0,0 -0.108808,0.1900124 -0.354843,0.2929354 -0.239935,0.1003715 -0.413787,0.086447 -0.5731289,0.060698 -0.1540909,-0.0249 -0.5758139,-0.3060738 -0.5758139,-0.3060738 0,0 0.2810308,0.3125782 0.5617458,0.3866638 0.362315,0.095621 0.562501,0.03906 0.75,-0.113281 0.223115,-0.1812777 0.19204,-0.3209423 0.19204,-0.3209424 z m -5.72783,0 c 0,0 0.108808,0.1900124 0.354843,0.2929354 0.239935,0.1003715 0.413787,0.086447 0.5731289,0.060698 0.1540909,-0.0249 0.5758139,-0.3060738 0.5758139,-0.3060738 0,0 -0.2810308,0.3125782 -0.5617458,0.3866638 -0.362315,0.095621 -0.562501,0.03906 -0.75,-0.113281 C 5.10501,8.9945037 5.136085,8.8548391 5.136085,8.854839 Z"
           id="path36" /><path
           id="path37"
           d="m 10.905314,8.2346609 c 0.161707,0.3742002 -0.0531,0.8270273 -0.479795,1.0114183 C 9.9988278,9.4304701 9.3601292,8.9023988 9.3601292,8.9023988 c 0,0 -0.013301,-0.9168717 0.4133893,-1.1012622 0.4266915,-0.1843906 0.9700875,0.059325 1.1317955,0.4335243 z m -5.810628,0 c -0.161707,0.3742002 0.0531,0.8270273 0.479795,1.0114183 0.4266912,0.1843909 1.0653898,-0.3436804 1.0653898,-0.3436804 0,0 0.013301,-0.9168717 -0.4133893,-1.1012622 C 5.79979,7.616746 5.256394,7.8604616 5.094686,8.2346609 Z"
           style="fill:#20140c;fill-opacity:1;stroke-width:0.852568" /><path
           style="fill:#000000;fill-opacity:1"
           d="m 9.3601292,8.9023988 c 0,0 -0.147681,-0.4255127 0,-0.7574463 0.147681,-0.3319335 0.4397459,-0.5660051 0.7995148,-0.5798101 0.359769,-0.013805 1.201875,0.2478766 1.201875,0.2478766 0,0 -0.424806,0.3460233 -0.591237,0.2213356 C 10.603851,7.909667 10.100524,7.7791212 9.8399248,7.8909803 9.5634827,8.0096396 9.4207593,8.3815905 9.3601292,8.9023988 Z m -2.7202584,0 c 0,0 0.147681,-0.4255127 0,-0.7574463 C 6.4921898,7.813019 6.2001249,7.5789474 5.840356,7.5651424 5.480587,7.5513374 4.638481,7.813019 4.638481,7.813019 c 0,0 0.424806,0.3460233 0.591237,0.2213356 C 5.396149,7.909667 5.899476,7.7791212 6.1600752,7.8909803 6.4365173,8.0096396 6.5792407,8.3815905 6.6398708,8.9023988 Z"
           id="path38" /><path
           style="display:inline;fill:#120c09;fill-opacity:1;stroke-width:1.14184"
           id="path39"
           width="1.2070312"
           height="0.390625"
           x="8.0570698"
           y="9.8654966"
           ry="0.1953125"
           transform="rotate(-9.1771109)"
           d="m 8.2523823,9.8654966 h 0.8164062 c 0.1082032,0 0.1953125,0.087109 0.1953125,0.1953124 0,0.108203 -0.087109,0.195313 -0.1953125,0.195313 H 8.2523823 c -0.1082031,0 -0.1953125,-0.08711 -0.1953125,-0.195313 0,-0.108203 0.087109,-0.1953124 0.1953125,-0.1953124 z M 4.8560804,9.3168081 4.0812065,9.0597292 C 3.9785079,9.0256571 3.8684,9.0809051 3.8343278,9.1836037 3.8002557,9.2863023 3.8555037,9.3964102 3.9582023,9.4304823 L 4.7330762,9.6875611 C 4.8357748,9.7216333 4.9458827,9.6663853 4.9799549,9.5636867 5.014027,9.4609881 4.9587791,9.3508802 4.8560804,9.3168081 Z" /></g><path
         id="path40"
         style="display:inline;fill:#e7dabd;fill-opacity:1"
         d="m 9.0117188,5.3671875 c 0.00722,0.039063 0.00884,0.077719 0.00391,0.1171875 C 8.96875,5.859375 8.75,6.453125 8.75,6.453125 c 0,0 0.048391,0.2666726 0.359375,0.28125 C 9.46875,6.7512207 9.625,6.5 9.625,6.5 c 0,0 0.081175,-0.5086572 0.391622,-0.851611 z m -2.0234376,0 c -0.00722,0.039063 -0.00884,0.077719 -0.00391,0.1171875 C 7.03125,5.859375 7.25,6.453125 7.25,6.453125 c 0,0 -0.048391,0.2666726 -0.359375,0.28125 C 6.53125,6.7512207 6.375,6.5 6.375,6.5 c 0,0 -0.081175,-0.5086572 -0.391622,-0.851611 z" /></g><g
       id="g83"
       transform="matrix(0.81788339,0.04286345,-0.04286345,0.81788339,1.734231,2.6396108)"><path
         id="path63"
         style="fill:#5e2d15;fill-opacity:1"
         d="m 8.1953125,10.183594 c -0.5704971,0.164765 -2.2703392,0.62282 -2.9238281,0.419922 0.09425,1.409316 -0.2148438,5.757812 -0.2148438,5.757812 L 8.5,16 h 3.460938 c -1e-6,0 -0.760874,-4.29363 -0.814454,-5.705078 -0.6287,0.270095 -2.366577,-0.0071 -2.9511715,-0.111328 z" /><path
         style="fill:#c0a975;fill-opacity:1"
         d="m 8.8222656,10.642578 c -0.2337804,0.0045 -0.4499054,0.02793 -0.6015625,0.05078 -0.6128594,-0.02749 -2.2285698,0.0163 -1.9238281,1.277344 0.3745075,1.54974 0.3356198,2.497859 1.0234375,2.464844 0.5419607,-0.02602 0.6745307,-0.05852 1.0917969,-0.111328 0.4205001,0.0089 0.553992,0.02687 1.0957031,-0.0039 0.6875005,-0.03906 0.5512545,-0.976244 0.7617185,-2.556641 0.128443,-0.964492 -0.7459241,-1.134684 -1.4472654,-1.121094 z"
         id="path64" /><g
         id="g66"><path
           style="display:inline;fill:#c0a975;fill-opacity:1"
           d="m 10.445312,5.0390625 c 0,0 0.947645,-1.1583866 1.796875,-1.671875 C 13.25,2.7578125 14.632812,2.671875 14.632812,2.671875 c 0,0 -1.28125,0.2734375 -2.296875,0.859375 -0.91097,0.52556 -1.890625,1.5078125 -1.890625,1.5078125 z M 5.4185792,5.3025024 c 0,0 -1.063538,-1.052985 -1.96179,-1.4748917 C 2.3908001,3.326919 1.0065803,3.3859955 1.0065803,3.3859955 c 0,0 1.3028132,0.1380125 2.3741217,0.6145785 0.9609156,0.4274586 2.0378772,1.3019284 2.0378772,1.3019284 z"
           id="path65" /><path
           style="fill:#e7dabd;fill-opacity:1"
           d="m 8.75,6.453125 c 0,0 0.21875,-0.59375 0.265625,-0.96875 C 9.0625,5.109375 8.5007852,4.7686311 8.4695352,4.1592561 8.4382852,3.5498811 8.5417912,3.2265873 8.8934684,2.9430243 8.7148156,3.4770535 8.740892,3.8675491 8.9422391,4.2571226 9.1321457,4.6245606 9.3109296,4.7956019 9.5921796,4.7799769 9.8734296,4.7643519 10.371697,4.2194731 11.496994,3.4233107 12.475086,2.7312985 13.109375,2.609375 13.40625,2.03125 c 0.296875,-0.578125 0.04639,-1.82267613 -0.453125,-2.421875 -0.577528,-0.6927787 -1.71875,-1.25046 -1.71875,-1.25046 0,0 0.744634,-0.178336 1.762429,0.6126505 0.686027,0.53315071 1.066378,1.00939546 1.173176,1.73594544 C 14.267341,1.3698632 14.125,2.03125 14.125,2.03125 c 0,0 0.461966,-0.4922016 0.463063,-1.40513956 0.0011,-0.88933234 -0.227993,-1.79391894 -1.160311,-2.58800774 -0.689926,-0.5876348 -1.21274,-0.7554323 -2.327529,-0.9612228 0.774511,-0.3494216 1.973465,0.031654 2.490386,0.3915449 0.603228,0.4199793 1.188245,0.6645938 1.6084,2.22438105 0.332654,1.23494917 0.08225,2.26031915 0.08225,2.26031915 0,0 0.560316,-0.6899025 0.604799,-1.38480339 0.07092,-1.10796245 -0.158754,-1.97195331 -1.260264,-3.13748421 1.075054,0.2928769 1.659545,1.2311173 1.828775,2.22319174 0.232917,1.36542296 0.02441,2.32877186 -0.698878,2.75032526 -0.435926,0.2540705 -1.266814,0.362924 -2.129958,0.670974 -0.863145,0.30805 -2.067905,1.0583646 -2.533419,1.4905029 C 10.231018,5.3653761 9.625,6.5 9.625,6.5 9.625,6.5 9.40625,6.828125 9.109375,6.734375 8.8125,6.640625 8.75,6.453125 8.75,6.453125 Z m -1.4975861,0.078485 c 0,0 -0.2796154,-0.5676318 -0.3654318,-0.9356778 C 6.8011657,5.2278865 7.3241859,4.8302941 7.2915677,4.2209908 7.2589495,3.6116875 7.1222171,3.300984 6.742826,3.0557347 6.9763214,3.5681641 6.9912058,3.9592463 6.8316832,4.3677321 6.6812246,4.7530079 6.5212988,4.9418002 6.2399563,4.9556595 5.9586137,4.9695187 5.4061206,4.4797079 4.2037664,3.8055325 3.1586975,3.2195497 2.5151388,3.1645954 2.1594596,2.6206693 1.8037804,2.0767432 1.9228022,0.81282704 2.3569474,0.16469711 2.8588966,-0.58465459 3.9355733,-1.258571 3.9355733,-1.258571 c 0,0 -0.759196,-0.099524 -1.6887348,0.79351829 C 1.620299,0.13688669 1.2918128,0.65028003 1.261545,1.3840133 1.233952,2.0529141 1.444647,2.6957991 1.444647,2.6957991 c 0,0 -0.51088442,-0.4412167 -0.60740341,-1.3490388 -0.0940545,-0.88434549 0.0392284,-1.80792341 0.88343421,-2.6951159 0.624722,-0.6565325 1.1271323,-0.8780598 2.2143034,-1.1992501 -0.8067926,-0.266549 -1.9593454,0.2377638 -2.4358158,0.6497162 -0.55602364,0.4807331 -1.11226668,0.7851585 -1.36707787,2.3803192 -0.20174436,1.2629558 0.15446825,2.2565344 0.15446825,2.2565344 0,0 -0.62936098,-0.6275542 -0.74623721,-1.3139986 -0.1863451,-1.09447979 -0.0482409,-1.97774508 0.92540375,-3.2520302 -1.03855077,0.4036462 -1.52176702,1.39784276 -1.58637002,2.40217187 -0.088916,1.38228953 0.2191467,2.31856613 0.98253678,2.66220603 0.46009555,0.207112 1.29781012,0.2285178 2.18842572,0.4446571 0.8906166,0.2161393 2.167206,0.8364119 2.6753407,1.2175234 0.9401529,0.7051349 1.6614515,1.7701971 1.6614515,1.7701971 0,0 0.2518501,0.3034619 0.5372992,0.1791936 C 7.2098554,6.724616 7.2524139,6.5316102 7.2524139,6.5316102 Z"
           id="path66" /></g><path
         id="path67"
         style="display:inline;fill:#6f3d24;fill-opacity:1"
         d="M 14.138672,2.2695313 C 13.276409,2.2567303 11.048266,3.8615809 10.619141,4.4765625 10.129378,5.1784455 10.265354,5.7666122 9.2617188,6.2773437 8.8508066,6.4078835 8.4250728,6.4654861 8.0039063,6.5410156 7.5771519,6.5099237 7.1469156,6.4970289 6.7246094,6.4101562 5.6730862,6.0071309 5.7479468,5.4085626 5.1875,4.7617187 4.6964427,4.1949619 2.3112795,2.8307319 1.4550781,2.9335938 c -0.122314,0.014695 -0.213754,0.059445 -0.2636719,0.140625 -0.35747528,0.5813149 0.3822027,3.7550958 1.7714844,4.2441406 0.7311794,0.2573838 1.7699322,0.038247 2.0957031,0.3886718 0.1650944,0.1775876 0.2568846,0.3382077 0.3261719,0.4980469 0.062741,0.182026 0.1176751,0.3685345 0.1425781,0.5585938 0.077553,0.5926475 -0.5942052,1.8288231 -0.03125,2.5156251 0.3543596,0.432315 1.1128811,0.961031 1.8808594,1.267578 0.1448706,0.307662 0.5257275,0.511438 0.9667969,0.498047 0.4400529,-0.03279 0.8001919,-0.274583 0.9121094,-0.595703 0.7317284,-0.385143 1.4290986,-0.990043 1.7363286,-1.457031 0.48808,-0.741885 -0.308149,-1.902493 -0.292969,-2.5000005 0.0049,-0.1916212 0.04061,-0.3827255 0.08398,-0.5703125 0.0522,-0.1662061 0.125858,-0.3354251 0.271485,-0.5292969 0.287357,-0.3825572 1.342698,-0.2730658 2.042968,-0.6054687 1.330552,-0.6315852 1.734641,-3.8654859 1.31836,-4.40625 -0.05813,-0.075517 -0.154164,-0.1094993 -0.277344,-0.1113281 z" /><g
         id="g70"
         clip-path="none"><path
           id="path68"
           style="fill:#e7dabd;fill-opacity:1"
           d="m 14.515625,2.6152344 c -0.46374,0.1870805 -1.451307,0.6003642 -2.048828,0.9609375 -0.80069,0.4831752 -1.354138,1.2686448 -1.492188,1.765625 -0.13804,0.4969801 -0.01843,0.9194878 -0.08984,1.171875 -0.07734,0.2733436 -0.337891,0.5546875 -0.337891,0.5546875 0,0 0.902481,-0.4380725 1.689453,-0.4453125 0.350752,-0.00323 0.696897,0.040113 0.990234,0.091797 0.616735,-0.3885782 1.014222,-1.3488093 1.207032,-2.2753907 l 0.07617,-0.4296875 c 0.08095,-0.5666511 0.08332,-1.0823934 0.0059,-1.3945312 z M 1.1172048,3.3174158 c 0.4807548,0.1375816 1.5061118,0.4453725 2.1380497,0.7415126 0.8468092,0.3968334 1.4793293,1.120149 1.6685716,1.5999766 0.1892324,0.4798285 0.1144417,0.9125243 0.2118422,1.1560645 0.1054885,0.263762 0.3940206,0.5163296 0.3940206,0.5163296 0,0 -0.9433281,-0.3413377 -1.7267458,-0.2662771 C 3.4537749,7.0984733 3.1140567,7.1777608 2.8277291,7.2598238 2.1737551,6.9378406 1.6780741,6.0244184 1.3894662,5.1230671 L 1.2687989,4.7036954 C 1.1290612,4.14861 1.0727945,3.6359408 1.1171631,3.3174203 Z" /><path
           id="path69"
           style="display:inline;fill:#c0a975;fill-opacity:1"
           d="m 14.515625,2.6152344 c -0.46374,0.1870805 -1.451307,0.6003642 -2.048828,0.9609375 -0.80069,0.4831752 -1.354138,1.2686448 -1.492188,1.765625 -0.13804,0.4969801 -0.01843,0.9194878 -0.08984,1.171875 -0.07734,0.2733436 -0.337891,0.5546875 -0.337891,0.5546875 0.350592,-0.2806145 0.916105,-0.4975625 1.2832,-0.5859375 -0.538949,-0.2402587 0.181466,-0.473613 0.515625,-0.6113281 -0.502826,-0.242285 -0.01517,-0.7750288 0.523438,-0.8398438 -0.670237,-0.1655634 -0.625786,-0.5413518 0.07226,-0.7832031 -0.428902,-0.2475866 -0.192684,-0.5924148 0.294922,-0.90625 0.407079,-0.2620057 0.850581,-0.507459 1.28125,-0.7128907 -0.001,-0.00439 -8.83e-4,-0.00936 -0.002,-0.013672 z M 1.1172048,3.3174158 C 1.5979596,3.4549974 2.6233166,3.7627883 3.2552545,4.0589284 4.1020637,4.4557618 4.7345838,5.1790774 4.9238261,5.658905 5.1130585,6.1387335 5.0382678,6.5714293 5.1356683,6.8149695 5.2411568,7.0787315 5.5296889,7.3312991 5.5296889,7.3312991 5.1516853,7.0888687 4.566593,6.9322214 4.1922713,6.8827024 4.703154,6.5874243 3.9622933,6.4306522 3.6155697,6.3286207 4.0903155,6.0351033 3.5496441,5.5562519 3.0072116,5.5480918 3.6564709,5.3133765 3.5729828,4.9442931 2.8534804,4.7767324 3.254153,4.4856696 2.9831847,4.1674219 2.4654451,3.9062747 2.0332091,3.6882556 1.5664798,3.4905055 1.1166966,3.3312163 c 5.356e-4,-0.00447 -1.002e-4,-0.0094 5.599e-4,-0.013806 z" /><path
           id="path70"
           style="display:inline;fill:#955c50;fill-opacity:1"
           d="m 14.517578,2.6289062 c -0.385361,0.2148033 -0.71289,0.5605469 -0.71289,0.5605469 0.137389,0.1179531 0.180148,0.2760913 0.111328,0.4824219 -0.301228,-0.085986 -0.568719,0.095155 -0.841797,0.234375 0.37996,0.014908 0.594041,0.2521784 0.800781,0.4980469 -0.450237,-0.1408361 -0.767837,0.052684 -1.105469,0.1933593 0.377096,0.037054 0.697294,0.1307438 0.869141,0.3730469 -0.343685,0.1902306 -0.696344,0.3749247 -1.242188,0.4785157 0.441156,0.049185 0.787906,0.1944087 1.082032,0.390625 -0.437971,0.1987444 -0.904695,0.3768476 -1.517578,0.4589843 -1e-6,0 0.76048,-0.027632 1.486328,0.2460938 0.930083,-0.861964 1.26818,-3.0813546 1.070312,-3.9160157 z M 1.1166916,3.3312169 C 1.5223946,3.5045623 1.8842694,3.8141757 1.8842694,3.8141757 1.7599625,3.9458437 1.7339677,4.1075852 1.8239781,4.3055918 2.114568,4.18859 2.399528,4.3407782 2.6856625,4.4506911 2.3093423,4.5052341 2.1212356,4.7635823 1.9413284,5.0297141 2.3743775,4.8425869 2.710466,5.0018487 3.060953,5.1064612 2.689796,5.1827295 2.3811453,5.3093758 2.2355673,5.5683145 2.5972541,5.7215781 2.967287,5.8683975 3.520969,5.9143648 3.0873709,6.0093937 2.7577004,6.1900671 2.4856959,6.4159531 c 0.4563462,0.1518752 0.9391303,0.2802168 1.5572415,0.2978398 1e-6,-10e-8 -0.7592024,0.052011 -1.452462,0.4001093 C 1.5753877,6.3538802 1.0071534,4.1819884 1.1166916,3.3312169 Z" /></g><path
         style="fill:#2a190f;fill-opacity:1"
         d="m 8.9857019,8.8607692 c 0,0 -0.068513,-0.6797645 0.10161,-1.0377303 0.1396884,-0.2939257 0.3927347,-0.4866911 0.6951143,-0.5543228 0.3851878,-0.086153 0.5611878,-0.06317 0.5611878,-0.06317 0,0 -0.172599,-0.1732524 -0.6103987,-0.1753214 C 9.2590958,7.0279844 8.8645129,7.2171024 8.7483882,7.8347581 8.6258838,8.4863468 8.9857019,8.8607696 8.9857019,8.8607692 Z m -1.7160313,0.089933 c 0,0 -0.00292,-0.6832023 -0.2095258,-1.0214244 C 6.8904981,7.6515641 6.6186885,7.4863052 6.3108959,7.4506513 5.9188128,7.4052333 5.7461793,7.4464874 5.7461793,7.4464874 c 0,0 0.1535437,-0.1903448 0.5887288,-0.238165 0.4712881,-0.051787 0.8834776,0.09505 1.0635288,0.6971836 0.1899428,0.6352141 -0.1287663,1.045197 -0.1287663,1.0451966 z"
         id="path71" /><path
         id="path72"
         style="fill:#e7dabd;fill-opacity:1"
         d="M 10.175781,7.375 C 10.072371,7.37731 9.9652637,7.390682 9.8554688,7.423828 9.269896,7.6006047 9.1477674,8.1545843 9.1367188,8.3203124 c -0.011048,0.1657282 0.023437,0.7070313 0.023437,0.7070313 0,0 0.4458884,0.390823 0.6699219,0.4511718 0.2320213,0.0625 0.5219453,0.088944 0.7871103,-0.054687 0.110631,-0.059925 0.190585,-0.1456855 0.246093,-0.2265625 -0.09084,-0.2695365 -0.168848,-0.516709 -0.164062,-0.7050781 0.0049,-0.1916212 0.04061,-0.3827255 0.08398,-0.5703125 0.03588,-0.114255 0.08368,-0.2313365 0.15625,-0.3554688 C 10.835915,7.5097757 10.53713,7.3669128 10.175781,7.375 Z M 5.9308057,7.5974697 c 0.1030849,-0.00851 0.2110032,-0.00641 0.3236614,0.015079 0.6008431,0.1145993 0.7802093,0.6527782 0.8085207,0.8164435 0.028311,0.1636655 0.050596,0.705608 0.050596,0.705608 0,0 -0.4025936,0.43529 -0.6190917,0.5187261 C 6.2702752,9.7397366 5.9847036,9.796341 5.7059776,9.6812141 5.5896888,9.6331815 5.5012084,9.5562483 5.4375505,9.4816165 5.4997187,9.2040612 5.5514628,8.9500886 5.527013,8.7632517 5.50211,8.5731924 5.4466198,8.3868677 5.3838792,8.2048417 5.3362529,8.0949631 5.2764764,7.9835195 5.1913286,7.8676528 5.2883758,7.8005099 5.5705908,7.6271981 5.9308057,7.5974697 Z" /><path
         id="path73"
         style="fill:#e7dabd;fill-opacity:1"
         d="M 8.1542969,9.4023438 C 7.9339595,9.6076223 7.6450303,10.152772 7.1308594,10.576172 6.4961515,11.09883 6.1461729,11.124047 6.1328125,11.525391 c -0.00433,0.129854 0.058157,0.283752 0.1425781,0.43164 0.3310819,0.226345 0.7148509,0.435484 1.1015625,0.589844 0.1448705,0.307662 0.5257276,0.511438 0.9667969,0.498047 0.4400528,-0.03279 0.800192,-0.274583 0.9121094,-0.595703 0.3684581,-0.193937 0.7275944,-0.443413 1.0332036,-0.703125 0.0685,-0.155903 0.11358,-0.314669 0.0957,-0.44336 C 10.329527,10.904986 9.9788323,10.916341 9.2929688,10.462891 8.7373572,10.095556 8.3948847,9.5834662 8.1542969,9.4023438 Z" /><path
         id="path74"
         style="fill:#e7dabd;fill-opacity:1"
         d="m 8.2929688,12.044922 c -0.313734,0.0353 -0.6206592,0.114178 -0.9394532,0.492187 0.00782,0.0032 0.015621,0.0067 0.023437,0.0098 0.1448706,0.307662 0.5257275,0.511438 0.9667969,0.498047 0.4400529,-0.03279 0.8001919,-0.274583 0.9121094,-0.595703 0.00745,-0.0039 0.014042,-0.0097 0.021484,-0.01367 -0.3565604,-0.342615 -0.6686699,-0.388313 -0.984375,-0.390625 z" /><path
         id="path75"
         style="fill:#000000;fill-opacity:1"
         d="" /><g
         id="g78"><path
           style="fill:#2a190f;fill-opacity:1"
           d="m 8.2011719,10.310547 c -0.1183292,0.140261 -0.3166445,0.338473 -0.7226563,0.503906 -0.429431,0.174975 -0.4765625,0.583984 -0.4765625,0.583985 l 0.1308594,0.921875 c 0,0 0.2843483,0.144534 0.5761719,0.03906 0.2918235,-0.105472 0.484375,-0.117188 0.484375,-0.117187 l 0.097656,-0.201172 0.1191407,0.189453 c 0,0 0.1928909,-0.008 0.4941406,0.06641 0.3012497,0.07439 0.5703125,-0.09961 0.5703125,-0.09961 l 0.033203,-0.931641 c 0,0 -0.089788,-0.400168 -0.5351562,-0.529297 C 8.5515762,10.614241 8.3335141,10.437671 8.2011719,10.310547 Z"
           id="path76" /><path
           style="fill:#000000"
           d="m 8.2207031,10.683594 c -0.055568,0.04564 -0.1221895,0.08559 -0.1992187,0.105469 -0.2541764,0.0656 -0.7966314,0.165117 -0.8007813,0.427734 -0.00288,0.182464 0.039279,0.628596 0.3164063,0.728516 0.2771276,0.09992 0.5223359,-0.04985 0.5410156,0.123046 0.018675,0.172851 -0.3197807,0.104669 -0.2402344,0.300782 0.022467,0.05539 0.2150632,0.135449 0.4804688,0.162109 0.261165,-0.05426 0.4424301,-0.155456 0.4589844,-0.212891 0.058611,-0.203353 -0.2700366,-0.09958 -0.2695313,-0.273437 5.053e-4,-0.173897 0.2582725,-0.05135 0.5234375,-0.179688 0.2651649,-0.12834 0.2621744,-0.574696 0.2402344,-0.755859 -0.031578,-0.260744 -0.5821561,-0.303127 -0.8417969,-0.341797 -0.078685,-0.01172 -0.1489503,-0.04441 -0.2089844,-0.08398 z"
           id="path77" /><path
           style="fill:#000000"
           d="m 9.3736004,12.535108 c -0.1701637,0.03307 -0.4021829,-0.01914 -0.3690375,-0.155215 0.033145,-0.136071 0.2755049,-0.158051 0.4032719,-0.573243 0.1209897,-0.393168 0,-0.736009 0,-0.736009 0,0 0.3904147,0.315204 0.3093592,0.78997 -0.067187,0.393536 -0.3435936,0.674497 -0.3435936,0.674497 z M 7.26797,12.645459 c 0.1726883,0.0151 0.397979,-0.06107 0.3507915,-0.192939 -0.047187,-0.131861 -0.2905165,-0.128387 -0.460983,-0.52795 -0.1614241,-0.378367 -0.076934,-0.731977 -0.076934,-0.731977 0,0 -0.3553281,0.354287 -0.2250901,0.81798 0.1079546,0.384357 0.4122155,0.634886 0.4122155,0.634886 z"
           id="path78" /></g><g
         id="g82"><path
           style="fill:#000000;fill-opacity:1"
           d="m 10.863915,8.854839 c 0,0 -0.108808,0.1900124 -0.354843,0.2929354 -0.239935,0.1003715 -0.413787,0.086447 -0.5731289,0.060698 -0.1540909,-0.0249 -0.5758139,-0.3060738 -0.5758139,-0.3060738 0,0 0.2810308,0.3125782 0.5617458,0.3866638 0.362315,0.095621 0.562501,0.03906 0.75,-0.113281 0.223115,-0.1812777 0.19204,-0.3209423 0.19204,-0.3209424 z M 5.4011266,9.1411316 c 0,0 0.1280737,0.177598 0.3835192,0.2542395 0.2491123,0.074742 0.4205565,0.042721 0.576334,4.572e-4 0.150644,-0.040871 0.5406661,-0.3645861 0.5406661,-0.3645861 0,0 -0.246818,0.3402416 -0.5182512,0.4432641 C 6.0330597,9.6074757 5.8280581,9.5721497 5.6256622,9.4402422 5.3848208,9.2832794 5.4011266,9.1411317 5.4011266,9.1411316 Z"
           id="path79" /><path
           id="path80"
           d="m 10.905314,8.2346609 c 0.161707,0.3742002 -0.0531,0.8270273 -0.479795,1.0114183 C 9.9988278,9.4304701 9.3601292,8.9023988 9.3601292,8.9023988 c 0,0 -0.013301,-0.9168717 0.4133893,-1.1012622 C 10.20021,7.616746 10.743606,7.8604616 10.905314,8.2346609 Z M 5.2951282,8.5286783 c -0.1217066,0.3890532 0.139257,0.8169463 0.5828886,0.9557254 0.4436278,0.1387794 1.0236291,-0.4531613 1.0236291,-0.4531613 0,0 -0.082611,-0.9132393 -0.526238,-1.0520184 C 5.9317798,7.8404449 5.4168358,8.1396258 5.2951282,8.5286783 Z"
           style="fill:#20140c;fill-opacity:1;stroke-width:0.852568" /><path
           style="fill:#000000;fill-opacity:1"
           d="m 9.3601292,8.9023988 c 0,0 -0.147681,-0.4255127 0,-0.7574463 0.147681,-0.3319335 0.4397459,-0.5660051 0.7995148,-0.5798101 0.359769,-0.013805 1.201875,0.2478766 1.201875,0.2478766 0,0 -0.424806,0.3460233 -0.591237,0.2213356 C 10.603851,7.909667 10.100524,7.7791212 9.8399248,7.8909803 9.5634827,8.0096396 9.4207593,8.3815905 9.3601292,8.9023988 Z M 6.9016459,9.0312424 c 0,0 0.1023938,-0.4386185 -0.079175,-0.7532969 C 6.6409027,7.9632672 6.3259706,7.761007 5.9667296,7.7848837 5.6074884,7.8087604 4.7973487,8.1570326 4.7973487,8.1570326 c 0,0 0.4586482,0.2997234 0.611134,0.158322 0.1524859,-0.1414013 0.6394099,-0.323844 0.9102739,-0.2398377 0.287331,0.089113 0.468152,0.4441079 0.5828893,0.9557255 z"
           id="path81" /><path
           style="display:inline;fill:#120c09;fill-opacity:1;stroke-width:1.14184"
           id="path82"
           width="1.2070312"
           height="0.390625"
           x="8.0570698"
           y="9.8654966"
           ry="0.1953125"
           transform="rotate(-9.1771109)"
           d="m 8.2523823,9.8654966 h 0.8164062 c 0.1082032,0 0.1953125,0.087109 0.1953125,0.1953124 0,0.108203 -0.087109,0.195313 -0.1953125,0.195313 H 8.2523823 c -0.1082031,0 -0.1953125,-0.08711 -0.1953125,-0.195313 0,-0.108203 0.087109,-0.1953124 0.1953125,-0.1953124 z M 5.0400202,9.5178208 4.242519,9.3431467 C 4.1368215,9.3199961 4.0330918,9.3864508 4.0099412,9.4921484 3.9867906,9.5978459 4.0532453,9.7015756 4.1589429,9.7247262 L 4.956444,9.8994003 C 5.0621416,9.9225509 5.1658713,9.8560962 5.1890219,9.7503986 5.2121724,9.6447011 5.1457177,9.5409714 5.0400202,9.5178208 Z" /></g><path
         id="path83"
         style="display:inline;fill:#e7dabd;fill-opacity:1"
         d="m 9.0117188,5.3671875 c 0.00722,0.039063 0.00884,0.077719 0.00391,0.1171875 C 8.96875,5.859375 8.75,6.453125 8.75,6.453125 c 0,0 0.048391,0.2666726 0.359375,0.28125 C 9.46875,6.7512207 9.625,6.5 9.625,6.5 c 0,0 0.081175,-0.5086572 0.391622,-0.851611 z M 6.8786175,5.4789786 c -0.0031,0.039604 -6.678e-4,0.078217 0.00836,0.1169542 0.08582,0.3680456 0.3654356,0.9356774 0.3654356,0.9356774 0,0 -0.020251,0.2702699 -0.3280077,0.3172742 C 6.5687608,6.9032027 6.387107,6.6696908 6.387107,6.6696908 c 0,0 -0.1338994,-0.4973857 -0.4784942,-0.8060102 z" /></g></g><g
     id="layer3"
     style="display:none"><g
       id="group0"
       transform="matrix(1.0060935,0,0,1.0060935,0.79902502,3.0465089)"
       fill="none"
       style="display:inline"><path
         id="shape0"
         transform="translate(0,5.1274897)"
         fill="none"
         stroke="#fc7f7f"
         stroke-width="1.44"
         stroke-linecap="round"
         stroke-linejoin="miter"
         stroke-miterlimit="0"
         d="M 0,0 H 5.67" /><path
         id="shape1"
         transform="translate(3.9179999,5.1274897)"
         fill="none"
         stroke="#fc7f7f"
         stroke-width="1.44"
         stroke-linecap="round"
         stroke-linejoin="miter"
         stroke-miterlimit="0"
         d="M 0,1.554 C 0.448471,1.93885 1.04247,2.05285 1.782,1.896 2.89129,1.66072 3.36246,0 4.15446,0" /><path
         id="shape2"
         transform="translate(8.3340001,3.0334898)"
         fill="none"
         stroke="#fc7f7f"
         stroke-width="1.44"
         stroke-linecap="round"
         stroke-linejoin="miter"
         stroke-miterlimit="0"
         d="M 0.0184711,3.86504 C 0.938892,3.4521 1.40074,2.79375 1.404,1.89 1.40726,0.98625 0.939265,0.35625 0,0" /><path
         id="shape3"
         transform="translate(4.5652404,1.8815317)"
         fill="none"
         stroke="#fc7f7f"
         stroke-width="1.44"
         stroke-linecap="round"
         stroke-linejoin="miter"
         stroke-miterlimit="0"
         d="M 2.33176,2.04596 C 2.25209,0.0926863 0.778568,-0.168374 0,0.0769763" /><path
         id="shape4"
         transform="translate(1.2496352)"
         fill="none"
         stroke="#fc7f7f"
         stroke-width="1.44"
         stroke-linecap="round"
         stroke-linejoin="miter"
         stroke-miterlimit="0"
         d="M 3.69175,3.48745 C 1.19779,3.90344 -0.032579,2.74095 6.5559e-4,0" /><path
         id="shape5"
         transform="translate(10.026,7.9474899)"
         fill="none"
         stroke="#fc7f7f"
         stroke-width="1.44"
         stroke-linecap="round"
         stroke-linejoin="miter"
         stroke-miterlimit="0"
         d="M 0,0 C 0.774134,0.471411 1.14013,1.08341 1.098,1.836" /><path
         id="shape6"
         transform="translate(11.330805,5.1274897)"
         fill="none"
         stroke="#fc7f7f"
         stroke-width="1.44"
         stroke-linecap="round"
         stroke-linejoin="miter"
         stroke-miterlimit="0"
         d="M 0,0 H 2.9792" /></g></g><g
     id="g46"
     style="display:none"><path
       id="path8"
       fill="none"
       stroke="#fc7f7f"
       stroke-width="1.44877"
       stroke-linecap="round"
       stroke-linejoin="miter"
       stroke-miterlimit="0"
       d="M 0.82112211,8 C 2.440309,16 6.879995,12.554033 8.0156285,8.007063 9.151262,3.4600927 13.370019,0 15.231925,8" /></g><g
     id="g47"
     style="display:none"><path
       id="path46"
       fill="none"
       stroke="#fc7f7f"
       stroke-width="1.36172"
       stroke-linecap="round"
       stroke-linejoin="miter"
       stroke-miterlimit="0"
       d="m 1.0344123,6.4596643 c 1.5218994,7.5193267 5.6948303,4.2804077 6.7622302,0.00664 1.0673998,-4.2737692 5.0326755,-7.5259649 6.7827105,-0.00664" /><path
       id="rect47"
       style="fill:#e0e0e0"
       d="M 9.1933594,7.625 C 8.5323029,7.625 8,8.1573029 8,8.8183594 v 5.6347656 c 0,0.661056 0.5323029,1.193359 1.1933594,1.193359 h 5.2812496 c 0.661056,0 1.19336,-0.532303 1.19336,-1.193359 V 8.8183594 C 15.667969,8.1573029 15.135665,7.625 14.474609,7.625 Z m 0.2832031,1.4863281 h 4.7148435 c 0.163303,0 0.294922,0.1316192 0.294922,0.2949219 0,0.1633027 -0.131619,0.2949219 -0.294922,0.2949219 H 9.4765625 c -0.1633028,0 -0.2949219,-0.1316192 -0.2949219,-0.2949219 0,-0.1633027 0.1316191,-0.2949219 0.2949219,-0.2949219 z m 0,1.4863279 h 4.7148435 c 0.163303,0 0.294922,0.13162 0.294922,0.294922 0,0.163303 -0.131619,0.294922 -0.294922,0.294922 H 9.4765625 c -0.1633028,0 -0.2949219,-0.131619 -0.2949219,-0.294922 0,-0.163302 0.1316191,-0.294922 0.2949219,-0.294922 z m -0.03125,1.486328 c 0.00993,-10e-4 0.021044,0 0.03125,0 h 4.7148435 c 0.163303,0 0.294922,0.13162 0.294922,0.294922 0,0.163303 -0.131619,0.292969 -0.294922,0.292969 H 9.4765625 c -0.1633028,0 -0.2949219,-0.129666 -0.2949219,-0.292969 0,-0.153095 0.1146711,-0.27988 0.2636719,-0.294922 z m 0,1.486328 c 0.00993,-10e-4 0.021044,0 0.03125,0 h 4.7148435 c 0.163303,0 0.294922,0.129666 0.294922,0.292969 0,0.163302 -0.131619,0.294922 -0.294922,0.294922 H 9.4765625 c -0.1633028,0 -0.2949219,-0.13162 -0.2949219,-0.294922 0,-0.153096 0.1146711,-0.277927 0.2636719,-0.292969 z" /></g><g
     id="g111"
     style="display:inline"><path
       id="path133"
       style="baseline-shift:baseline;display:inline;overflow:visible;vector-effect:none;fill:#e0e0e0;fill-opacity:1;enable-background:accumulate;stop-color:#000000;stop-opacity:1"
       d="M 4.5292969,0.640625 C 3.9654417,0.6510132 3.3465318,0.9149644 3.0410156,1.1523438 c -0.4753684,0.3693505 -0.94197,0.5929853 -1.21875,1.8867187 -0.219138,1.0243031 0.029297,1.8535156 0.029297,1.8535156 0,0 -0.4885197,-0.5409808 -0.5546875,-1.1074219 C 1.1913795,2.882012 1.3424113,2.1664985 2.1933594,1.1660156 1.3266443,1.4516353 0.88885548,2.243845 0.79296875,3.0625 0.66099613,4.1892404 0.87278738,4.9674711 1.4824219,5.28125 1.7131294,5.3999952 2.0753782,5.4675337 2.4863281,5.5527344 v 0.00195 c -0.026218,0.336709 0.03099,0.8359701 0.1660157,1.34375 0.00242,0.00909 0.00534,0.018247 0.00781,0.027344 0.020307,0.074842 0.042733,0.1500297 0.066406,0.2246094 0.00144,0.00454 0.00246,0.00914 0.00391,0.013672 8.158e-4,0.00255 0.00113,0.00527 0.00195,0.00781 0.0019,0.00591 0.00394,0.011681 0.00586,0.017578 0.026904,0.082568 0.054941,0.1633921 0.085938,0.2441407 5.167e-4,0.00135 0.00144,0.00256 0.00195,0.00391 0.095962,0.2493129 0.2115772,0.4860278 0.3457031,0.6914062 0.030467,0.046754 0.06135,0.091548 0.09375,0.1347657 0.00225,0.003 0.0036,0.00678 0.00586,0.00977 0.033059,0.043649 0.068477,0.085525 0.1035156,0.125 0.00478,0.00538 0.010806,0.010333 0.015625,0.015625 0.00968,0.010675 0.019472,0.02092 0.029297,0.03125 0.018552,0.019425 0.037565,0.040438 0.056641,0.058594 0.023307,0.022682 0.047878,0.044118 0.072266,0.064453 0.060301,0.050393 0.1223659,0.094437 0.1875,0.1308594 0.035089,0.019514 0.070946,0.037706 0.1074219,0.052734 0.5869871,0.2418508 1.4458434,0.1076328 1.6972656,0.4082031 0.039374,0.04707 0.072206,0.092371 0.1015625,0.1367188 0.020169,0.030691 0.038254,0.060091 0.054687,0.089844 -0.2122457,0.064794 -0.3886719,0.1308593 -0.3886718,0.1308593 0,0 0.361411,0.2634107 0.4921874,0.1542969 -0.043529,0.051883 -0.079047,0.1092865 -0.1015624,0.1699219 -0.062746,0.1689812 -0.034609,0.3523632 0.060547,0.5058592 0,0 -0.00827,0.05842 0.052734,0.140625 -0.011834,0.04537 -0.023872,0.09134 -0.037109,0.138672 -0.088708,0.316589 -0.1982832,0.674155 -0.1835937,0.996094 -0.00271,1.230312 -0.4238281,4.615234 -0.4238281,4.615234 L 8,16.089844 l 2.832031,0.148437 c 0,0 -0.426803,-3.448448 -0.421875,-4.65039 6.5e-5,-0.01583 -2.17e-4,-0.03575 0,-0.05078 h -0.002 c -0.006,-0.298754 -0.102875,-0.621536 -0.183594,-0.910156 -0.01324,-0.04733 -0.02527,-0.09331 -0.03711,-0.138672 0.061,-0.08221 0.05273,-0.140625 0.05273,-0.140625 0.09516,-0.153496 0.123294,-0.336878 0.06055,-0.5058591 -0.02252,-0.060635 -0.05803,-0.118039 -0.101562,-0.1699219 -0.01328,-0.011082 -0.03031,-0.021962 -0.04883,-0.033203 0.01864,0.011292 0.03546,0.022053 0.04883,0.033203 0.130776,0.1091138 0.492187,-0.1542969 0.492187,-0.1542969 0,0 -0.176426,-0.066066 -0.388672,-0.1308593 0.01643,-0.029753 0.03452,-0.059153 0.05469,-0.089844 0.02928,-0.044476 0.06182,-0.089211 0.101562,-0.1367188 0.251422,-0.30057 1.110279,-0.1663523 1.697266,-0.4082031 0.03647,-0.015029 0.07234,-0.03322 0.107422,-0.052734 0.06513,-0.036422 0.127198,-0.080466 0.1875,-0.1308594 0.02217,-0.018483 0.0449,-0.038407 0.06641,-0.058594 0.002,-0.0019 0.0058,-0.0059 0.0078,-0.00781 0.0257,-0.024457 0.04947,-0.049433 0.07422,-0.076172 0.003,-0.00329 0.0067,-0.00645 0.0098,-0.00977 0.0052,-0.00565 0.01052,-0.011836 0.01563,-0.017578 0.0102,-0.011497 0.0191,-0.025221 0.0293,-0.037109 0.02695,-0.031789 0.05434,-0.063375 0.08008,-0.097656 0.03228,-0.042994 0.06338,-0.088268 0.09375,-0.1347657 0.14108,-0.2160262 0.260557,-0.4669766 0.359375,-0.7304687 0.02071,-0.055089 0.0416,-0.1101324 0.06055,-0.1660156 0.184231,-0.5494126 0.276786,-1.1289815 0.271484,-1.5390625 -3.34e-4,-0.023222 -0.0026,-0.044399 -0.0039,-0.066406 -0.001,-0.017502 -8.47e-4,-0.036039 -0.002,-0.052734 -4.21e-4,-0.00621 4.75e-4,-0.015384 0,-0.021484 0.410989,-0.085208 0.773172,-0.1527256 1.003906,-0.2714844 0.609635,-0.3137789 0.821425,-1.0920096 0.689453,-2.21875 -0.09589,-0.818655 -0.533675,-1.6108647 -1.40039,-1.8964844 0.850948,1.0004829 1.001979,1.7159964 0.896484,2.6191406 -0.06617,0.5664412 -0.554688,1.1074219 -0.554687,1.1074219 -10e-7,0 0.24843,-0.8292125 0.0293,-1.8535156 C 13.900787,1.7453278 13.434353,1.5216943 12.958984,1.1523438 12.653468,0.91496444 12.034558,0.6510132 11.470703,0.640625 11.282751,0.637162 11.099609,0.66146238 10.9375,0.72460938 c 0.902947,0.21609633 1.32419,0.37652942 1.863281,0.88671872 0.72849,0.6894344 0.87691,1.4386926 0.837891,2.1660157 -0.04003,0.7466296 -0.439453,1.1289062 -0.439453,1.1289062 0,0 0.144989,-0.534178 0.09375,-1.0800781 C 13.236763,3.2273609 12.946441,2.8209293 12.408203,2.3554688 11.60967,1.6649077 10.992188,1.7792969 10.992188,1.7792969 c -1e-6,0 0.910859,0.5043361 1.353515,1.0957031 0.382861,0.5114857 0.533215,1.5398863 0.265625,2 C 12.343739,5.3351137 11.819862,5.4075797 10.990234,5.9316406 10.035746,6.5345745 9.6056994,6.9602134 9.375,6.9609375 9.1443006,6.9616616 9.0048062,6.8125678 8.8652344,6.5039062 8.7172544,6.1766501 8.713805,5.8568503 8.8828125,5.4277344 8.5830271,5.6445817 8.4829829,5.9045597 8.4824219,6.4042969 8.4818994,6.869708 8.8678138,7.1647975 8.8769531,7.4492188 c 6.003e-4,0.020816 -1.597e-4,0.041532 -0.00391,0.0625 -0.0099,0.055455 -0.027167,0.116756 -0.044922,0.1796874 -0.00162,0.00575 -0.00224,0.011808 -0.00391,0.017578 C 8.7953651,7.8090126 8.7602581,7.912149 8.7265551,8.003906 8.7448461,7.954899 8.7623551,7.906338 8.7792891,7.8554686 8.762255,7.9064678 8.743767,7.9570627 8.7265625,8.0039062 8.6821867,8.1247302 8.6493014,8.2059884 8.6308594,8.25 8.4212177,8.2821857 8.2098298,8.3056462 8,8.3320312 7.7901702,8.3056461 7.5787824,8.2821855 7.3691406,8.25 7.3506986,8.2059884 7.3178133,8.1247302 7.2734375,8.0039062 7.256233,7.9570627 7.237745,7.9064678 7.2207031,7.8554688 c 0.016935,0.050869 0.034443,0.09943 0.052734,0.1484374 -0.033704,-0.091757 -0.06881,-0.1948934 -0.097656,-0.2949218 -0.00169,-0.00593 -0.00223,-0.011564 -0.00391,-0.017578 -9.491e-4,-0.00337 -0.00297,-0.00641 -0.00391,-0.00977 -0.016509,-0.059368 -0.031643,-0.117438 -0.041016,-0.1699218 -0.00374,-0.020968 -0.0045,-0.041684 -0.00391,-0.0625 C 7.1321831,7.1647977 7.5181006,6.869708 7.5175781,6.4042969 7.5170171,5.9045597 7.4169729,5.6445817 7.1171875,5.4277344 7.286195,5.8568503 7.2827456,6.1766503 7.1347656,6.5039062 6.9951938,6.8125678 6.8556994,6.9616615 6.625,6.9609375 6.3943005,6.9602134 5.9642537,6.5345745 5.0097656,5.9316406 4.1801384,5.4075798 3.6562614,5.3351138 3.3886719,4.875 3.1210823,4.4148862 3.2714356,3.3864857 3.6542969,2.875 4.0969526,2.283633 5.0078125,1.7792969 5.0078125,1.7792969 c 0,0 -0.6174824,-0.1143895 -1.4160156,0.5761719 C 3.0535594,2.8209292 2.763237,3.227361 2.7070312,3.8261719 2.6557919,4.372072 2.8007812,4.90625 2.8007812,4.90625 c 0,0 -0.3994242,-0.3822766 -0.4394531,-1.1289062 C 2.3223086,3.0500208 2.4707287,2.3007626 3.1992188,1.6113281 3.7383096,1.1011388 4.1595535,0.94070568 5.0625,0.72460938 4.9003907,0.6614624 4.7172486,0.63716227 4.5292969,0.640625 Z m 8.6035151,4.8867188 c -0.139717,0.050754 -0.294241,0.1096243 -0.453124,0.171875 -0.115361,0.045198 -0.231034,0.094037 -0.345704,0.1425781 0.11537,-0.048944 0.229647,-0.097035 0.345704,-0.1425781 0.158131,-0.062055 0.313967,-0.1213247 0.453124,-0.171875 z M 4.6914062,6.4101562 c 0.071881,0.057849 0.1388458,0.1183643 0.203125,0.1796876 0.057334,0.054697 0.1113176,0.1099877 0.1621094,0.1660156 C 5.0055498,6.6995708 4.9522359,6.6447987 4.8945312,6.5898438 4.8306447,6.5290015 4.7627886,6.4676035 4.6914062,6.4101562 Z m 6.6171878,0 c -0.06993,0.056279 -0.136476,0.1162257 -0.199219,0.1757813 0.06314,-0.060002 0.128793,-0.1191036 0.199219,-0.1757813 z M 11.101562,6.59375 C 11.047096,6.6458029 10.99581,6.6967491 10.947266,6.75 10.995395,6.6972206 11.04762,6.6453534 11.101562,6.59375 Z m -0.197265,0.2070312 c -0.04111,0.047082 -0.08108,0.093737 -0.117188,0.140625 0.03613,-0.046902 0.07606,-0.093528 0.117188,-0.140625 z m -0.267578,0.3574219 c -0.03387,0.054966 -0.06453,0.1086492 -0.08984,0.1601563 0.02531,-0.051494 0.05597,-0.1051986 0.08984,-0.1601563 z M 5.3710938,7.171875 c 0.023733,0.039215 0.045093,0.077761 0.064453,0.1152344 -0.019429,-0.037601 -0.040613,-0.075886 -0.064453,-0.1152344 z m 0.091797,0.1699219 c 0.022508,0.047731 0.042152,0.093477 0.056641,0.1367187 -0.01432,-0.042737 -0.034487,-0.089618 -0.056641,-0.1367187 z m 0.8535156,0.3476562 c 0.036955,0.036759 0.069288,0.07638 0.099609,0.1171875 0.021869,0.029431 0.041907,0.059607 0.060547,0.089844 -0.018605,-0.03013 -0.038769,-0.060516 -0.060547,-0.089844 -0.036448,-0.038194 -0.069817,-0.077523 -0.099609,-0.1171875 z m 3.3671876,0 C 9.653721,7.7291171 9.620504,7.7684461 9.583985,7.8066406 9.562207,7.8359686 9.542043,7.8663546 9.523438,7.8964846 9.542078,7.8662476 9.562116,7.8360726 9.583985,7.8066406 9.614307,7.7658336 9.64664,7.7262126 9.683594,7.6894531 Z M 6.4863281,7.9121094 c 0.057815,0.096705 0.099757,0.1918436 0.1289063,0.2714844 0.016439,0.044916 0.030237,0.086542 0.039063,0.1171874 C 6.6451652,8.2690963 6.6330321,8.231668 6.6152344,8.1835938 6.585856,8.1042383 6.5438556,8.0081479 6.4863281,7.9121094 Z m 3.0273438,0 c -0.057528,0.096039 -0.099528,0.1921289 -0.1289063,0.2714844 -0.017798,0.048074 -0.029931,0.085502 -0.039063,0.1171874 0.00883,-0.030645 0.022623,-0.072271 0.039063,-0.1171874 0.029149,-0.079641 0.071091,-0.1747796 0.1289063,-0.2714844 z M 5.7207031,8.5957031 c 0.031713,0.051523 0.066698,0.099459 0.099609,0.140625 -0.032912,-0.041166 -0.067897,-0.089102 -0.099609,-0.140625 z m 4.5585939,0 c -0.03171,0.051523 -0.0667,0.099459 -0.09961,0.140625 0.03291,-0.041166 0.0679,-0.089102 0.09961,-0.140625 z m -4.1015626,0.375 c 0.013935,-6.107e-4 0.02998,-2.29e-5 0.048828,0 0.037697,4.6e-5 0.084425,7.669e-4 0.1425781,0.00586 0.058154,0.00509 0.1273484,0.013856 0.2070313,0.027344 C 6.496489,8.9904181 6.4272941,8.981655 6.3691406,8.9765625 6.3109872,8.97147 6.264259,8.9707491 6.2265625,8.9707031 c -0.075393,-9.19e-5 -0.1113281,0.00586 -0.1113281,0.00586 0,0 0.020695,-0.00403 0.0625,-0.00586 z m 3.53125,0 c 0.023895,-0.00108 0.045605,2.3e-5 0.064453,0 0.075393,-9.18e-5 0.1113281,0.00586 0.1113281,0.00586 0,0 -0.035935,-0.00595 -0.1113281,-0.00586 -0.037696,4.6e-5 -0.084425,7.669e-4 -0.1425781,0.00586 -0.058153,0.00509 -0.1273484,0.013856 -0.2070313,0.027344 0.079683,-0.013488 0.1488778,-0.022251 0.2070313,-0.027344 0.029077,-0.00255 0.054229,-0.00478 0.078125,-0.00586 z m -2.71875,0.2304688 c 0.023174,0.020807 0.045467,0.044653 0.066406,0.068359 0.02094,0.023707 0.042047,0.047681 0.060547,0.074219 -0.0185,-0.026538 -0.039607,-0.050512 -0.060547,-0.074219 -0.02094,-0.023706 -0.043232,-0.047552 -0.066406,-0.068359 z m 2.0195312,0 c -0.023174,0.020807 -0.045467,0.044653 -0.066406,0.068359 -0.02094,0.023707 -0.042047,0.047681 -0.060547,0.074219 0.0185,-0.026538 0.039607,-0.050512 0.060547,-0.074219 0.02094,-0.023706 0.043232,-0.047552 0.066406,-0.068359 z M 7.1679688,9.4277344 c 0.01931,0.035685 0.036696,0.076554 0.050781,0.1191406 C 7.2046648,9.504288 7.1872788,9.46342 7.1679688,9.4277344 Z m 1.6640624,0 C 8.8127202,9.4634194 8.7953352,9.5042884 8.7812502,9.546875 8.7953352,9.504288 8.8127212,9.46342 8.8320312,9.4277344 Z M 7.2910156,9.9570312 c 0.00646,0.087626 0.0078,0.1658578 0.00781,0.2226568 -1.6e-5,-0.0568 -0.00135,-0.135031 -0.00781,-0.2226568 z m 1.4179688,0 c -0.00646,0.087626 -0.0078,0.1658578 -0.00781,0.2226568 1.58e-5,-0.0568 0.00135,-0.135031 0.00781,-0.2226568 z M 7.4101562,11.337891 c -0.088927,0.0887 -0.1872049,0.176749 -0.296875,0.257812 -0.06769,0.05003 -0.1316574,0.09374 -0.1914062,0.132813 -0.059749,0.03907 -0.1161841,0.0726 -0.1679688,0.103515 0.051785,-0.03091 0.1082199,-0.06445 0.1679688,-0.103515 0.059749,-0.03907 0.1237163,-0.08278 0.1914062,-0.132813 0.1096693,-0.08105 0.2079489,-0.16912 0.296875,-0.257812 z m 0.4394532,0.222656 c -0.02102,0.01641 -0.04384,0.03409 -0.068359,0.05078 0.024519,-0.01669 0.04734,-0.03437 0.068359,-0.05078 z m 0.3007812,0 c 0.02102,0.01641 0.04384,0.03409 0.068359,0.05078 -0.024519,-0.01669 -0.04734,-0.03437 -0.068359,-0.05078 z m 0.7363282,0.03516 c 0.06769,0.05003 0.1316573,0.09374 0.1914062,0.132813 0.059749,0.03907 0.116184,0.0726 0.1679688,0.103515 C 9.1943088,11.801125 9.1378739,11.767585 9.078125,11.72852 9.018376,11.68945 8.9544088,11.64574 8.8867188,11.595707 Z m 1.5058592,0.173828 c -0.0054,0.02951 -0.01136,0.05933 -0.01953,0.08789 0.0083,-0.02878 0.0141,-0.05815 0.01953,-0.08789 z m -0.08984,0.253907 c -0.0149,0.02668 -0.03021,0.05282 -0.04883,0.07812 -0.03362,0.0457 -0.07205,0.09264 -0.115234,0.140626 -0.04318,0.04799 -0.09111,0.09718 -0.1425782,0.146484 0.051469,-0.04931 0.099395,-0.0985 0.1425782,-0.146484 0.04318,-0.04799 0.08161,-0.09493 0.115234,-0.140626 0.01844,-0.02507 0.03403,-0.05168 0.04883,-0.07812 z m -4.5566402,0.07617 c 0.033566,0.04563 0.072239,0.09263 0.1152343,0.140625 -0.042995,-0.04799 -0.081669,-0.095 -0.1152343,-0.140625 z m 1.1816406,0.140625 c -0.00836,0.01301 -0.017201,0.02841 -0.025391,0.04297 0.00875,-0.01534 0.016503,-0.02951 0.025391,-0.04297 z m 2.1445312,0 c 0.00889,0.01346 0.01664,0.02763 0.025391,0.04297 -0.00819,-0.01456 -0.017033,-0.02996 -0.025391,-0.04297 z m -2.1757812,0.05274 c -0.046813,0.08601 -0.085769,0.196276 -0.085937,0.324219 -7.278e-4,-0.130143 0.039516,-0.239894 0.085937,-0.324219 z m 2.2070312,0 c 0.046422,0.08432 0.086665,0.194075 0.085937,0.324219 -1.69e-4,-0.127943 -0.039125,-0.238213 -0.085937,-0.324219 z m 0.070312,0.46289 c -0.00448,0.0199 -0.010001,0.03953 -0.015625,0.05859 0.00569,-0.01912 0.011136,-0.03866 0.015625,-0.05859 z m -1.3535156,0.13086 c -0.00103,0.0032 -0.00249,0.0068 -0.00391,0.0098 0.00136,-0.0028 0.0029,-0.0067 0.00391,-0.0098 z m 0.359375,0 c 0.00102,0.0031 0.00253,0.0069 0.00391,0.0098 -0.00141,-0.0029 -0.00288,-0.0065 -0.00391,-0.0098 z m 0.9101563,0.09766 c -0.00634,0.01252 -0.012936,0.02523 -0.019531,0.03711 0.00671,-0.01202 0.013062,-0.02444 0.019531,-0.03711 z m -0.5429723,0.10741 c 0.017877,0.0035 0.035145,0.0064 0.052734,0.0078 -0.01758,-0.0014 -0.034868,-0.0044 -0.052734,-0.0078 z m 0.3164062,0.201172 c -0.017676,0.0025 -0.036226,0.0039 -0.054687,0.0039 0.018511,-2.41e-4 0.037114,-0.0014 0.054687,-0.0039 z" /></g></svg>
