<?xml version="1.0" encoding="UTF-8" standalone="no"?>
<!-- Created with Inkscape (http://www.inkscape.org/) -->

<svg
   width="16"
   height="16"
   viewBox="0 0 16 16"
   version="1.1"
   id="svg1"
   xmlns="http://www.w3.org/2000/svg"
   xmlns:svg="http://www.w3.org/2000/svg">
  <defs
     id="defs1" />
  <g
     id="layer1"
     style="display:inline">
    <path
       style="font-size:13.3333px;font-family:'Arial Black';-inkscape-font-specification:'Arial Black, Normal';white-space:pre;fill:#35d4f4"
       d="M 8.0794067,14.584557 H 5.4036322 v -3.300772 q -0.390624,0.410155 -0.8984353,0.618488 -0.5013008,0.208332 -1.1197888,0.208332 -1.2630176,0 -2.0898385,-0.904945 -0.82682078,-0.911456 -0.82682078,-2.6041604 0,-1.1328096 0.37760321,-1.9986928 Q 1.2239552,5.7369235 1.8945265,5.3137475 2.5650977,4.8840611 3.3723873,4.8840611 q 0.6966128,0 1.2825489,0.3059888 0.4296864,0.227864 0.944008,0.8723937 V 5.0403107 H 8.0794067 Z M 5.4231634,8.5168644 q 0,-0.8919248 -0.3385408,-1.2890592 -0.3320304,-0.3971344 -0.8463521,-0.3971344 -0.4752592,0 -0.8007792,0.3971344 -0.3190096,0.390624 -0.3190096,1.3151008 0,0.8268209 0.3124992,1.2109345 0.3190096,0.3776035 0.7747376,0.3776035 0.5338529,0 0.8723937,-0.3971347 Q 5.4231634,9.3371749 5.4231634,8.5168644 Z M 12.643197,5.0403107 h 1.263018 V 6.98041 h -1.263018 v 4.973946 H 9.9869538 V 6.98041 H 8.997373 V 5.0403107 H 9.9869538 V 4.7278115 q 0,-0.423176 0.091145,-0.9309872 0.09115,-0.5078112 0.338541,-0.8268208 0.253906,-0.3255201 0.703123,-0.5208321 0.455728,-0.2018224 1.328122,-0.2018224 0.696613,0 2.024735,0.16276 l -0.292968,1.6015585 q -0.47526,-0.078125 -0.768228,-0.078125 -0.358072,0 -0.514321,0.1236976 -0.15625,0.1171872 -0.221354,0.3776032 -0.03255,0.1432288 -0.03255,0.6054672 z"
       id="text1"
       transform="matrix(1.1338365,0,0,1.1338365,-0.47053468,-1.5423153)"
       aria-label="qf" />
  </g>
  <g
     id="layer2"
     style="display:none">
    <path
       id="rect19"
       style="fill:#5e2d15;fill-opacity:1"
       d="m 8,10.148087 c 0,0 2.385572,0.473908 3.146338,0.147076 C 11.199918,11.706611 11.960601,16 11.960601,16 H 6.5849082 Z" />
    <path
       style="fill:#c0a975;fill-opacity:1"
       d="m 7.9963715,10.734375 c 0,0 2.4831435,-0.551419 2.2726795,1.028978 -0.210464,1.580397 -0.07374,2.517897 -0.7612408,2.556959 -0.6874977,0.03906 -0.7181927,0 -1.5114389,0 -0.7932463,0 -1.3323088,-2.226562 -1.3323088,-2.226562 z"
       id="path20" />
    <g
       id="g17">
      <path
         style="display:inline;fill:#c0a975;fill-opacity:1"
         d="m 10.445312,5.0390625 c 0,0 0.947645,-1.1583866 1.796875,-1.671875 C 13.25,2.7578125 14.632812,2.671875 14.632812,2.671875 c 0,0 -1.28125,0.2734375 -2.296875,0.859375 -0.91097,0.52556 -1.890625,1.5078125 -1.890625,1.5078125 z"
         id="path17" />
      <path
         style="fill:#e7dabd;fill-opacity:1"
         d="m 8.75,6.453125 c 0,0 0.21875,-0.59375 0.265625,-0.96875 C 9.0625,5.109375 8.5007852,4.7686311 8.4695352,4.1592561 8.4382852,3.5498811 8.5417912,3.2265873 8.8934684,2.9430243 8.7148156,3.4770535 8.740892,3.8675491 8.9422391,4.2571226 9.1321457,4.6245606 9.3109296,4.7956019 9.5921796,4.7799769 9.8734296,4.7643519 10.371697,4.2194731 11.496994,3.4233107 12.475086,2.7312985 13.109375,2.609375 13.40625,2.03125 c 0.296875,-0.578125 0.04639,-1.82267613 -0.453125,-2.421875 -0.577528,-0.6927787 -1.71875,-1.25046 -1.71875,-1.25046 0,0 0.744634,-0.178336 1.762429,0.6126505 0.686027,0.53315071 1.066378,1.00939546 1.173176,1.73594544 C 14.267341,1.3698632 14.125,2.03125 14.125,2.03125 c 0,0 0.461966,-0.4922016 0.463063,-1.40513956 0.0011,-0.88933234 -0.227993,-1.79391894 -1.160311,-2.58800774 -0.689926,-0.5876348 -1.21274,-0.7554323 -2.327529,-0.9612228 0.774511,-0.3494216 1.973465,0.031654 2.490386,0.3915449 0.603228,0.4199793 1.188245,0.6645938 1.6084,2.22438105 0.332654,1.23494917 0.08225,2.26031915 0.08225,2.26031915 0,0 0.560316,-0.6899025 0.604799,-1.38480339 0.07092,-1.10796245 -0.158754,-1.97195331 -1.260264,-3.13748421 1.075054,0.2928769 1.659545,1.2311173 1.828775,2.22319174 0.232917,1.36542296 0.02441,2.32877186 -0.698878,2.75032526 -0.435926,0.2540705 -1.266814,0.362924 -2.129958,0.670974 -0.863145,0.30805 -2.067905,1.0583646 -2.533419,1.4905029 C 10.231018,5.3653761 9.625,6.5 9.625,6.5 9.625,6.5 9.40625,6.828125 9.109375,6.734375 8.8125,6.640625 8.75,6.453125 8.75,6.453125 Z"
         id="path18" />
    </g>
    <path
       id="path1"
       style="fill:#6f3d24;fill-opacity:1"
       d="M 14.138672,2.2695312 C 13.276409,2.2567302 11.048266,3.8615809 10.619141,4.4765625 10.129378,5.1784455 10.265354,5.7666122 9.2617188,6.2773438 8.8495963,6.4082681 8.4223788,6.4651529 8,6.5410156 7.1364562,6.5019696 5.9194725,5.7825806 5.2421875,6.5214844 c -0.447954,0.4887075 0.039794,1.2307894 0.058594,1.9707031 0.01518,0.5975075 -0.7810497,1.7581165 -0.2929687,2.5000005 0.3072289,0.466988 1.0045997,1.071888 1.7363281,1.457031 0.1204869,0.345708 0.5276578,0.599609 1.0136719,0.599609 h 0.484375 c 0.4860141,0 0.893185,-0.253901 1.0136719,-0.599609 0.7317284,-0.385143 1.4290993,-0.990043 1.7363283,-1.457031 0.488081,-0.741884 -0.308149,-1.902493 -0.292969,-2.5000005 0.0049,-0.1916212 0.04061,-0.3827255 0.08398,-0.5703125 0.0522,-0.1662061 0.125858,-0.3354251 0.271485,-0.5292969 0.287357,-0.3825572 1.342698,-0.2730658 2.042968,-0.6054687 1.330552,-0.6315852 1.734641,-3.8654859 1.31836,-4.40625 -0.05813,-0.075517 -0.15416,-0.1094994 -0.27734,-0.1113282 z" />
    <g
       id="g8"
       clip-path="none">
      <path
         style="fill:#e7dabd;fill-opacity:1"
         d="m 10.547023,7.0681622 c 0,0 0.25947,-0.2816811 0.33681,-0.5550247 0.07141,-0.2523872 -0.0469,-0.6736207 0.09114,-1.1706008 0.13805,-0.4969802 0.690251,-1.2838654 1.490941,-1.7670406 0.80069,-0.4831751 2.305436,-1.0629853 2.305436,-1.0629853 l -0.767699,4.3846827 c 0,0 -0.875001,-0.2817037 -1.766859,-0.2735025 -0.786972,0.00724 -1.689769,0.4444712 -1.689769,0.4444712 z"
         id="path3" />
      <path
         style="display:inline;fill:#c0a975;fill-opacity:1"
         d="m 10.547023,7.0681622 c 0,0 0.25947,-0.2816811 0.33681,-0.5550247 0.07141,-0.2523872 -0.0469,-0.6736207 0.09114,-1.1706008 0.13805,-0.4969802 0.690251,-1.2838654 1.490941,-1.7670406 C 13.266604,3.092321 14.77135,2.5125108 14.77135,2.5125108 14.263708,2.7393459 13.724268,3.02733 13.236662,3.3411651 12.749056,3.6550003 12.512159,4 12.941061,4.2475866 c -0.698051,0.2418513 -0.742187,0.6178871 -0.07195,0.7834505 -0.538609,0.064815 -1.026557,0.597154 -0.523731,0.839439 -0.334159,0.1377152 -1.053995,0.3725456 -0.515046,0.6128043 -0.367095,0.088375 -0.932714,0.3042673 -1.283309,0.5848818 z"
         id="path3-5" />
      <path
         style="display:inline;fill:#955c50;fill-opacity:1"
         d="M 14.15833,6.9524363 C 13.343744,6.2454657 11.960601,6.2992064 11.960601,6.2992064 12.573484,6.2170697 13.040739,6.0378486 13.47871,5.8391042 13.184584,5.642888 12.83805,5.4990804 12.396894,5.4498951 12.942738,5.3463042 13.295659,5.1600322 13.639344,4.9698016 13.467497,4.7274985 13.146725,4.6341206 12.769629,4.5970664 c 0.337632,-0.1406755 0.654163,-0.3341061 1.1044,-0.19327 -0.20674,-0.2458685 -0.42073,-0.4820718 -0.80069,-0.4969802 0.273078,-0.1392197 0.540877,-0.3206711 0.842105,-0.2346851 0.06882,-0.2063306 0.02695,-0.365222 -0.11044,-0.4831751 0,0 0.483166,-0.5107851 0.966346,-0.6764452"
         id="path4" />
    </g>
    <path
       style="fill:#2a190f;fill-opacity:1"
       d="m 8.9857019,8.8607692 c 0,0 -0.068513,-0.6797645 0.10161,-1.0377303 0.1396884,-0.2939257 0.3927347,-0.4866911 0.6951143,-0.5543228 0.3851878,-0.086153 0.5611878,-0.06317 0.5611878,-0.06317 0,0 -0.172599,-0.1732524 -0.6103987,-0.1753214 C 9.2590958,7.0279844 8.8645129,7.2171024 8.7483882,7.8347581 8.6258838,8.4863468 8.9857019,8.8607696 8.9857019,8.8607692 Z"
       id="path2" />
    <path
       style="fill:#e7dabd;fill-opacity:1"
       d="m 10.982252,7.5903493 c 0,0 -0.541378,-0.3425048 -1.1269512,-0.1657281 -0.5855728,0.1767767 -0.7071068,0.7292039 -0.7181554,0.894932 -0.011048,0.1657282 0.022652,0.7075471 0.022652,0.7075471 0,0 0.4465766,0.391531 0.6706101,0.4518798 0.2320205,0.0625 0.5220765,0.089059 0.7872415,-0.054572 0.265165,-0.1436311 0.353555,-0.4419418 0.353555,-0.4419418 z"
       id="path12" />
    <path
       style="fill:#e7dabd;fill-opacity:1"
       d="m 9.8994949,12.385417 c 0,0 0.5413791,-0.685009 0.4861361,-1.082757 C 10.330388,10.904912 9.9785423,10.916879 9.2926788,10.463429 8.6068153,10.00998 8.2451634,9.3360461 8,9.3360461 c -0.2451634,0 -1.8680584,3.2321279 -1.8680584,3.2321279 l 0.8175922,0.800564 1.767767,0.09944 z"
       id="path15" />
    <path
       style="fill:#c0a975;fill-opacity:1"
       d="m 9.4078348,12.573242 c -0.5248059,-0.596621 -0.9484662,-0.524805 -1.407835,-0.524805 -0.4593689,0 -1.4205922,0.364602 -1.4150679,0.651864 0.00552,0.287262 1.4150679,0.602145 1.4150679,0.602145 0,0 1.1813398,-0.04972 1.407835,-0.729204 z"
       id="path5" />
    <circle
       style="fill:#000000;fill-opacity:1"
       id="path6"
       cx="7.9963713"
       cy="13.048788"
       r="0.24153468" />
    <g
       id="g9">
      <path
         style="fill:#2a190f;fill-opacity:1"
         d="m 9.5078102,11.266224 c 0,0 -0.089463,-0.401685 -0.5348315,-0.530814 C 8.2379059,10.522285 8.1210938,10.148691 8,10.148087 7.7845563,10.147013 7.4743396,10.728136 7.4743396,10.728136 l 0.9360096,1.502602 c 0,0 0.1935271,-0.0081 0.4947768,0.06629 0.3012497,0.07439 0.569,-0.09944 0.569,-0.09944 z"
         id="path14" />
      <path
         style="fill:#000000"
         d="m 7.9999995,10.463429 c 0,0 0.1703984,0.264706 0.4300391,0.303376 0.2596408,0.03867 0.8091223,0.08118 0.8407003,0.341924 0.02194,0.181163 0.02661,0.629067 -0.2385549,0.757407 -0.265165,0.12834 -0.5237951,0.0057 -0.5243004,0.179597 -5.053e-4,0.173856 0.3287952,0.07004 0.270184,0.273393 -0.022744,0.07891 -0.3591013,0.237544 -0.7816963,0.248592 -0.422595,0.01105 -0.4557406,-0.182301 -0.4557406,-0.182301 z"
         id="path7" />
      <path
         style="fill:#000000"
         d="m 9.3736004,12.535108 c -0.1701637,0.03307 -0.4021829,-0.01914 -0.3690375,-0.155215 0.033145,-0.136071 0.2755049,-0.158051 0.4032719,-0.573243 0.1209897,-0.393168 0,-0.736009 0,-0.736009 0,0 0.3904147,0.315204 0.3093592,0.78997 -0.067187,0.393536 -0.3435936,0.674497 -0.3435936,0.674497 z"
         id="path13" />
    </g>
    <g
       id="g11">
      <path
         style="fill:#000000;fill-opacity:1"
         d="m 10.863915,8.854839 c 0,0 -0.108808,0.1900124 -0.354843,0.2929354 -0.239935,0.1003715 -0.413787,0.086447 -0.5731289,0.060698 -0.1540909,-0.0249 -0.5758139,-0.3060738 -0.5758139,-0.3060738 0,0 0.2810308,0.3125782 0.5617458,0.3866638 0.362315,0.095621 0.562501,0.03906 0.75,-0.113281 0.223115,-0.1812777 0.19204,-0.3209423 0.19204,-0.3209424 z"
         id="path11" />
      <path
         id="path9"
         d="m 10.905314,8.2346609 c 0.161707,0.3742002 -0.0531,0.8270273 -0.479795,1.0114183 C 9.9988278,9.4304701 9.3601292,8.9023988 9.3601292,8.9023988 c 0,0 -0.013301,-0.9168717 0.4133893,-1.1012622 0.4266915,-0.1843906 0.9700875,0.059325 1.1317955,0.4335243 z"
         style="fill:#20140c;fill-opacity:1;stroke-width:0.852568" />
      <path
         style="fill:#000000;fill-opacity:1"
         d="m 9.3601292,8.9023988 c 0,0 -0.147681,-0.4255127 0,-0.7574463 0.147681,-0.3319335 0.4397459,-0.5660051 0.7995148,-0.5798101 0.359769,-0.013805 1.201875,0.2478766 1.201875,0.2478766 0,0 -0.424806,0.3460233 -0.591237,0.2213356 C 10.603851,7.909667 10.100524,7.7791212 9.8399248,7.8909803 9.5634827,8.0096396 9.4207593,8.3815905 9.3601292,8.9023988 Z"
         id="path10" />
      <rect
         style="fill:#120c09;fill-opacity:1;stroke-width:1.14184"
         id="rect11"
         width="1.2070312"
         height="0.390625"
         x="8.0570698"
         y="9.8654966"
         ry="0.1953125"
         transform="rotate(-9.1771109)" />
    </g>
    <path
       id="path19"
       style="display:inline;fill:#e7dabd;fill-opacity:1"
       d="m 9.0117188,5.3671875 c 0.00722,0.039063 0.00884,0.077719 0.00391,0.1171875 C 8.96875,5.859375 8.75,6.453125 8.75,6.453125 c 0,0 0.048391,0.2666726 0.359375,0.28125 C 9.46875,6.7512207 9.625,6.5 9.625,6.5 c 0,0 0.081175,-0.5086572 0.391622,-0.851611 z" />
  </g>
  <g
     id="g40"
     style="display:none">
    <path
       id="path21"
       style="fill:#5e2d15;fill-opacity:1"
       d="m 8,10.148087 c 0,0 2.385572,0.473908 3.146338,0.147076 C 11.199918,11.706611 11.960601,16 11.960601,16 H 6.5849082 Z" />
    <path
       style="fill:#c0a975;fill-opacity:1"
       d="m 7.9963715,10.734375 c 0,0 2.4831435,-0.551419 2.2726795,1.028978 -0.210464,1.580397 -0.07374,2.517897 -0.7612408,2.556959 -0.6874977,0.03906 -0.7181927,0 -1.5114389,0 -0.7932463,0 -1.3323088,-2.226562 -1.3323088,-2.226562 z"
       id="path22" />
    <g
       id="g24">
      <path
         style="display:inline;fill:#c0a975;fill-opacity:1"
         d="m 10.445312,5.0390625 c 0,0 0.947645,-1.1583866 1.796875,-1.671875 C 13.25,2.7578125 14.632812,2.671875 14.632812,2.671875 c 0,0 -1.28125,0.2734375 -2.296875,0.859375 -0.91097,0.52556 -1.890625,1.5078125 -1.890625,1.5078125 z"
         id="path23" />
      <path
         style="fill:#e7dabd;fill-opacity:1"
         d="m 8.75,6.453125 c 0,0 0.21875,-0.59375 0.265625,-0.96875 C 9.0625,5.109375 8.5007852,4.7686311 8.4695352,4.1592561 8.4382852,3.5498811 8.5417912,3.2265873 8.8934684,2.9430243 8.7148156,3.4770535 8.740892,3.8675491 8.9422391,4.2571226 9.1321457,4.6245606 9.3109296,4.7956019 9.5921796,4.7799769 9.8734296,4.7643519 10.371697,4.2194731 11.496994,3.4233107 12.475086,2.7312985 13.109375,2.609375 13.40625,2.03125 c 0.296875,-0.578125 0.04639,-1.82267613 -0.453125,-2.421875 -0.577528,-0.6927787 -1.71875,-1.25046 -1.71875,-1.25046 0,0 0.744634,-0.178336 1.762429,0.6126505 0.686027,0.53315071 1.066378,1.00939546 1.173176,1.73594544 C 14.267341,1.3698632 14.125,2.03125 14.125,2.03125 c 0,0 0.461966,-0.4922016 0.463063,-1.40513956 0.0011,-0.88933234 -0.227993,-1.79391894 -1.160311,-2.58800774 -0.689926,-0.5876348 -1.21274,-0.7554323 -2.327529,-0.9612228 0.774511,-0.3494216 1.973465,0.031654 2.490386,0.3915449 0.603228,0.4199793 1.188245,0.6645938 1.6084,2.22438105 0.332654,1.23494917 0.08225,2.26031915 0.08225,2.26031915 0,0 0.560316,-0.6899025 0.604799,-1.38480339 0.07092,-1.10796245 -0.158754,-1.97195331 -1.260264,-3.13748421 1.075054,0.2928769 1.659545,1.2311173 1.828775,2.22319174 0.232917,1.36542296 0.02441,2.32877186 -0.698878,2.75032526 -0.435926,0.2540705 -1.266814,0.362924 -2.129958,0.670974 -0.863145,0.30805 -2.067905,1.0583646 -2.533419,1.4905029 C 10.231018,5.3653761 9.625,6.5 9.625,6.5 9.625,6.5 9.40625,6.828125 9.109375,6.734375 8.8125,6.640625 8.75,6.453125 8.75,6.453125 Z"
         id="path24" />
    </g>
    <path
       id="path25"
       style="fill:#6f3d24;fill-opacity:1"
       d="M 14.138672,2.2695312 C 13.276409,2.2567302 11.048266,3.8615809 10.619141,4.4765625 10.129378,5.1784455 10.265354,5.7666122 9.2617188,6.2773438 8.8495963,6.4082681 8.4223788,6.4651529 8,6.5410156 7.1364562,6.5019696 5.9194725,5.7825806 5.2421875,6.5214844 c -0.447954,0.4887075 0.039794,1.2307894 0.058594,1.9707031 0.01518,0.5975075 -0.7810497,1.7581165 -0.2929687,2.5000005 0.3072289,0.466988 1.0045997,1.071888 1.7363281,1.457031 0.1204869,0.345708 0.5276578,0.599609 1.0136719,0.599609 h 0.484375 c 0.4860141,0 0.893185,-0.253901 1.0136719,-0.599609 0.7317284,-0.385143 1.4290993,-0.990043 1.7363283,-1.457031 0.488081,-0.741884 -0.308149,-1.902493 -0.292969,-2.5000005 0.0049,-0.1916212 0.04061,-0.3827255 0.08398,-0.5703125 0.0522,-0.1662061 0.125858,-0.3354251 0.271485,-0.5292969 0.287357,-0.3825572 1.342698,-0.2730658 2.042968,-0.6054687 1.330552,-0.6315852 1.734641,-3.8654859 1.31836,-4.40625 -0.05813,-0.075517 -0.15416,-0.1094994 -0.27734,-0.1113282 z" />
    <g
       id="g28"
       clip-path="none">
      <path
         style="fill:#e7dabd;fill-opacity:1"
         d="m 10.547023,7.0681622 c 0,0 0.25947,-0.2816811 0.33681,-0.5550247 0.07141,-0.2523872 -0.0469,-0.6736207 0.09114,-1.1706008 0.13805,-0.4969802 0.690251,-1.2838654 1.490941,-1.7670406 0.80069,-0.4831751 2.305436,-1.0629853 2.305436,-1.0629853 l -0.767699,4.3846827 c 0,0 -0.875001,-0.2817037 -1.766859,-0.2735025 -0.786972,0.00724 -1.689769,0.4444712 -1.689769,0.4444712 z"
         id="path26" />
      <path
         style="display:inline;fill:#c0a975;fill-opacity:1"
         d="m 10.547023,7.0681622 c 0,0 0.25947,-0.2816811 0.33681,-0.5550247 0.07141,-0.2523872 -0.0469,-0.6736207 0.09114,-1.1706008 0.13805,-0.4969802 0.690251,-1.2838654 1.490941,-1.7670406 C 13.266604,3.092321 14.77135,2.5125108 14.77135,2.5125108 14.263708,2.7393459 13.724268,3.02733 13.236662,3.3411651 12.749056,3.6550003 12.512159,4 12.941061,4.2475866 c -0.698051,0.2418513 -0.742187,0.6178871 -0.07195,0.7834505 -0.538609,0.064815 -1.026557,0.597154 -0.523731,0.839439 -0.334159,0.1377152 -1.053995,0.3725456 -0.515046,0.6128043 -0.367095,0.088375 -0.932714,0.3042673 -1.283309,0.5848818 z"
         id="path27" />
      <path
         style="display:inline;fill:#955c50;fill-opacity:1"
         d="M 14.15833,6.9524363 C 13.343744,6.2454657 11.960601,6.2992064 11.960601,6.2992064 12.573484,6.2170697 13.040739,6.0378486 13.47871,5.8391042 13.184584,5.642888 12.83805,5.4990804 12.396894,5.4498951 12.942738,5.3463042 13.295659,5.1600322 13.639344,4.9698016 13.467497,4.7274985 13.146725,4.6341206 12.769629,4.5970664 c 0.337632,-0.1406755 0.654163,-0.3341061 1.1044,-0.19327 -0.20674,-0.2458685 -0.42073,-0.4820718 -0.80069,-0.4969802 0.273078,-0.1392197 0.540877,-0.3206711 0.842105,-0.2346851 0.06882,-0.2063306 0.02695,-0.365222 -0.11044,-0.4831751 0,0 0.483166,-0.5107851 0.966346,-0.6764452"
         id="path28" />
    </g>
    <path
       style="fill:#2a190f;fill-opacity:1"
       d="m 8.9857019,8.8607692 c 0,0 -0.068513,-0.6797645 0.10161,-1.0377303 0.1396884,-0.2939257 0.3927347,-0.4866911 0.6951143,-0.5543228 0.3851878,-0.086153 0.5611878,-0.06317 0.5611878,-0.06317 0,0 -0.172599,-0.1732524 -0.6103987,-0.1753214 C 9.2590958,7.0279844 8.8645129,7.2171024 8.7483882,7.8347581 8.6258838,8.4863468 8.9857019,8.8607696 8.9857019,8.8607692 Z"
       id="path29" />
    <path
       style="fill:#e7dabd;fill-opacity:1"
       d="m 10.982252,7.5903493 c 0,0 -0.541378,-0.3425048 -1.1269512,-0.1657281 -0.5855728,0.1767767 -0.7071068,0.7292039 -0.7181554,0.894932 -0.011048,0.1657282 0.022652,0.7075471 0.022652,0.7075471 0,0 0.4465766,0.391531 0.6706101,0.4518798 0.2320205,0.0625 0.5220765,0.089059 0.7872415,-0.054572 0.265165,-0.1436311 0.353555,-0.4419418 0.353555,-0.4419418 z"
       id="path30" />
    <path
       style="fill:#e7dabd;fill-opacity:1"
       d="m 9.8994949,12.385417 c 0,0 0.5413791,-0.685009 0.4861361,-1.082757 C 10.330388,10.904912 9.9785423,10.916879 9.2926788,10.463429 8.6068153,10.00998 8.2451634,9.3360461 8,9.3360461 c -0.2451634,0 -1.8680584,3.2321279 -1.8680584,3.2321279 l 0.8175922,0.800564 1.767767,0.09944 z"
       id="path31" />
    <path
       style="fill:#c0a975;fill-opacity:1"
       d="m 9.4078348,12.573242 c -0.5248059,-0.596621 -0.9484662,-0.524805 -1.407835,-0.524805 -0.4593689,0 -1.4205922,0.364602 -1.4150679,0.651864 0.00552,0.287262 1.4150679,0.602145 1.4150679,0.602145 0,0 1.1813398,-0.04972 1.407835,-0.729204 z"
       id="path32" />
    <circle
       style="fill:#000000;fill-opacity:1"
       id="circle32"
       cx="7.9963713"
       cy="13.048788"
       r="0.24153468" />
    <g
       id="g35">
      <path
         style="fill:#2a190f;fill-opacity:1"
         d="m 9.5078102,11.266224 c 0,0 -0.089463,-0.401685 -0.5348315,-0.530814 C 8.2379059,10.522285 8.1210938,10.148691 8,10.148087 7.7845563,10.147013 7.4743396,10.728136 7.4743396,10.728136 l 0.9360096,1.502602 c 0,0 0.1935271,-0.0081 0.4947768,0.06629 0.3012497,0.07439 0.569,-0.09944 0.569,-0.09944 z"
         id="path33" />
      <path
         style="fill:#000000"
         d="m 7.9999995,10.463429 c 0,0 0.1703984,0.264706 0.4300391,0.303376 0.2596408,0.03867 0.8091223,0.08118 0.8407003,0.341924 0.02194,0.181163 0.02661,0.629067 -0.2385549,0.757407 -0.265165,0.12834 -0.5237951,0.0057 -0.5243004,0.179597 -5.053e-4,0.173856 0.3287952,0.07004 0.270184,0.273393 -0.022744,0.07891 -0.3591013,0.237544 -0.7816963,0.248592 -0.422595,0.01105 -0.4557406,-0.182301 -0.4557406,-0.182301 z"
         id="path34" />
      <path
         style="fill:#000000"
         d="m 9.3736004,12.535108 c -0.1701637,0.03307 -0.4021829,-0.01914 -0.3690375,-0.155215 0.033145,-0.136071 0.2755049,-0.158051 0.4032719,-0.573243 0.1209897,-0.393168 0,-0.736009 0,-0.736009 0,0 0.3904147,0.315204 0.3093592,0.78997 -0.067187,0.393536 -0.3435936,0.674497 -0.3435936,0.674497 z"
         id="path35" />
    </g>
    <g
       id="g39">
      <path
         style="fill:#000000;fill-opacity:1"
         d="m 10.863915,8.854839 c 0,0 -0.108808,0.1900124 -0.354843,0.2929354 -0.239935,0.1003715 -0.413787,0.086447 -0.5731289,0.060698 -0.1540909,-0.0249 -0.5758139,-0.3060738 -0.5758139,-0.3060738 0,0 0.2810308,0.3125782 0.5617458,0.3866638 0.362315,0.095621 0.562501,0.03906 0.75,-0.113281 0.223115,-0.1812777 0.19204,-0.3209423 0.19204,-0.3209424 z"
         id="path36" />
      <path
         id="path37"
         d="m 10.905314,8.2346609 c 0.161707,0.3742002 -0.0531,0.8270273 -0.479795,1.0114183 C 9.9988278,9.4304701 9.3601292,8.9023988 9.3601292,8.9023988 c 0,0 -0.013301,-0.9168717 0.4133893,-1.1012622 0.4266915,-0.1843906 0.9700875,0.059325 1.1317955,0.4335243 z"
         style="fill:#20140c;fill-opacity:1;stroke-width:0.852568" />
      <path
         style="fill:#000000;fill-opacity:1"
         d="m 9.3601292,8.9023988 c 0,0 -0.147681,-0.4255127 0,-0.7574463 0.147681,-0.3319335 0.4397459,-0.5660051 0.7995148,-0.5798101 0.359769,-0.013805 1.201875,0.2478766 1.201875,0.2478766 0,0 -0.424806,0.3460233 -0.591237,0.2213356 C 10.603851,7.909667 10.100524,7.7791212 9.8399248,7.8909803 9.5634827,8.0096396 9.4207593,8.3815905 9.3601292,8.9023988 Z"
         id="path38" />
      <rect
         style="fill:#120c09;fill-opacity:1;stroke-width:1.14184"
         id="path39"
         width="1.2070312"
         height="0.390625"
         x="8.0570698"
         y="9.8654966"
         ry="0.1953125"
         transform="rotate(-9.1771109)" />
    </g>
    <path
       id="path40"
       style="display:inline;fill:#e7dabd;fill-opacity:1"
       d="m 9.0117188,5.3671875 c 0.00722,0.039063 0.00884,0.077719 0.00391,0.1171875 C 8.96875,5.859375 8.75,6.453125 8.75,6.453125 c 0,0 0.048391,0.2666726 0.359375,0.28125 C 9.46875,6.7512207 9.625,6.5 9.625,6.5 c 0,0 0.081175,-0.5086572 0.391622,-0.851611 z" />
  </g>
</svg>
