<?xml version="1.0" standalone="no"?>
<!DOCTYPE svg PUBLIC "-//W3C//DTD SVG 20010904//EN" "http://www.w3.org/TR/2001/REC-SVG-20010904/DTD/svg10.dtd">
<!-- Created using Krita: https://krita.org -->
<svg xmlns="http://www.w3.org/2000/svg" 
    xmlns:xlink="http://www.w3.org/1999/xlink"
    xmlns:krita="http://krita.org/namespaces/svg/krita"
    xmlns:sodipodi="http://sodipodi.sourceforge.net/DTD/sodipodi-0.dtd"
    width="16.008pt"
    height="16.008pt"
    viewBox="0 0 16.008 16.008">
<defs/>
<path id="shape0" fill="#fc7f7f" fill-rule="evenodd" stroke="#000000" stroke-opacity="0" stroke-width="0" stroke-linecap="square" stroke-linejoin="bevel" d="M3.19094 14.5166L3.24558 14.516L3.29999 14.5124L3.35416 14.506L3.40807 14.4969L3.46173 14.4851L3.51511 14.4707L3.5682 14.4538L3.62099 14.4344L3.67346 14.4126L3.72561 14.3885L3.77742 14.3622L3.82888 14.3336L3.87998 14.303L3.93071 14.2704L3.98104 14.2357L4.03098 14.1992L4.0805 14.1609L4.1296 14.1208L4.17827 14.079L4.22648 14.0357L4.27424 13.9907L4.32152 13.9444L4.36831 13.8966L4.41461 13.8475L4.46039 13.7971L4.50565 13.7456L4.55038 13.693L4.59456 13.6393L4.63818 13.5846L4.68122 13.529L4.72369 13.4727L4.76555 13.4155L4.80681 13.3577L4.84744 13.2992L4.88744 13.2403L4.9268 13.1808L4.96549 13.1209L5.00352 13.0607L5.04086 13.0003L5.07751 12.9396L5.11344 12.8789L5.14866 12.8181L5.18315 12.7573L5.21689 12.6966L5.24987 12.6361L5.28208 12.5758L5.31351 12.5158L5.34415 12.4562L5.37398 12.397L5.40299 12.3384L5.43117 12.2804L5.45851 12.223L5.48499 12.1663L5.5106 12.1105L5.53533 12.0555L5.55917 12.0015L5.58211 11.9485L5.60412 11.8966L5.62521 11.8458L5.64535 11.7963L5.66454 11.7481L5.68276 11.7012L5.70001 11.6558L5.717 11.6115L5.73447 11.5678L5.75241 11.5248L5.77083 11.4823L5.7897 11.4405L5.80904 11.3992L5.82883 11.3585L5.84907 11.3183L5.86976 11.2786L5.89088 11.2394L5.91244 11.2006L5.93442 11.1623L5.95683 11.1245L5.97966 11.087L6.0029 11.0499L6.02655 11.0132L6.05061 10.9768L6.07506 10.9407L6.0999 10.905L6.12514 10.8695L6.15075 10.8342L6.17675 10.7992L6.20312 10.7645L6.22985 10.7299L6.25695 10.6955L6.28441 10.6612L6.31222 10.6271L6.34037 10.5931L6.36887 10.5591L6.39771 10.5253L6.42688 10.4915L6.45638 10.4577L6.4862 10.4239L6.51633 10.3901L6.54678 10.3563L6.57754 10.3224L6.6086 10.2885L6.63996 10.2544L6.6716 10.2203L6.70354 10.186L6.73576 10.1515L6.76825 10.1169L6.80101 10.082L6.83405 10.047L6.86734 10.0117L6.90089 9.97608L6.93469 9.94023L6.96874 9.90407L7.00303 9.86758L7.03756 9.83075L7.07231 9.79355L7.1073 9.75596L7.1425 9.71796L7.17792 9.67953L7.21355 9.64066L7.24939 9.60131L7.28543 9.56147L7.32167 9.52111L7.35809 9.48022L7.3947 9.43878L7.43149 9.39676L7.46846 9.35414L7.5056 9.31091L7.54256 9.26838L7.57901 9.22787L7.61497 9.18933L7.65043 9.15273L7.68541 9.11802L7.71993 9.08517L7.75398 9.05413L7.78759 9.02486L7.82076 8.99732L7.8535 8.97147L7.88582 8.94728L7.91773 8.92469L7.94925 8.90368L7.98037 8.88419L8.01112 8.86619L8.0415 8.84965L8.07152 8.83451L8.10119 8.82073L8.13053 8.80829L8.15954 8.79713L8.18823 8.78721L8.21661 8.7785L8.2447 8.77096L8.2725 8.76454L8.30002 8.7592L8.32728 8.75491L8.35428 8.75162L8.38103 8.74929L8.40755 8.74788L8.43384 8.74735L8.45992 8.74767L8.48579 8.74878L8.51146 8.75066L8.53695 8.75325L8.56226 8.75652L8.58741 8.76043L8.6124 8.76494L8.63724 8.77001L8.66195 8.77559L8.68654 8.78165L8.71101 8.78814L8.73538 8.79503L8.75965 8.80227L8.78384 8.80983L8.80795 8.81766L8.832 8.82572L8.856 8.83397L8.87995 8.84238L8.90387 8.8509L8.92776 8.85949L8.95164 8.86811L8.97552 8.87672L8.9994 8.88528L9.0233 8.89375L9.04723 8.90208L9.07119 8.91025L9.09521 8.9182L9.11928 8.9259L9.14341 8.9333L9.16763 8.94037L9.19193 8.94707L9.21633 8.95335L9.24084 8.95917L9.28201 8.96969L9.31967 8.98167L9.354 8.99505L9.38517 9.00977L9.39227 9.0138L9.39851 9.01022L9.43627 8.99532L9.47639 8.98604L9.51842 8.98285L10.386 8.98285L10.386 5.01888L10.391 4.97419L10.4053 4.93318L10.4278 4.89699L10.4572 4.86681L10.4925 4.84381L10.5325 4.82915L10.576 4.824L14.586 4.824L14.6296 4.82915L14.6696 4.84381L14.7049 4.86681L14.7343 4.89699L14.7568 4.93318L14.7711 4.97419L14.7761 5.01888L14.7761 7.04452L14.7888 7.0269L14.8147 6.9906L14.8406 6.95389L14.8663 6.91679L14.8919 6.87931L14.9174 6.84144L14.9428 6.80319L14.9681 6.76458L14.9933 6.7256L15.0182 6.68627L15.0431 6.64659L15.0677 6.60656L15.0922 6.56619L15.1165 6.52549L15.1406 6.48447L15.1645 6.44313L15.1882 6.40147L15.2117 6.35951L15.2349 6.31724L15.2579 6.27468L15.2806 6.23183L15.3031 6.1887L15.3253 6.14529L15.3472 6.10162L15.3688 6.05767L15.3901 6.01347L15.4111 5.96902L15.4318 5.92433L15.4522 5.87939L15.4722 5.83423L15.4919 5.78883L15.5112 5.74321L15.5301 5.69739L15.5487 5.65135L15.5669 5.60511L15.5846 5.55867L15.602 5.51205L15.619 5.46524L15.6348 5.41871L15.6488 5.37292L15.6609 5.32787L15.6713 5.28354L15.6799 5.23994L15.6868 5.19706L15.6921 5.1549L15.6957 5.11344L15.6977 5.07269L15.6981 5.03263L15.6969 4.99327L15.6943 4.9546L15.6901 4.91661L15.6845 4.8793L15.6775 4.84266L15.6691 4.80669L15.6594 4.77139L15.6484 4.73674L15.636 4.70275L15.6225 4.6694L15.6077 4.6367L15.5917 4.60463L15.5746 4.5732L15.5564 4.5424L15.537 4.51222L15.5167 4.48266L15.4953 4.45371L15.4729 4.42537L15.4496 4.39763L15.4254 4.37048L15.4003 4.34394L15.3743 4.31797L15.3476 4.29259L15.32 4.26779L15.2917 4.24356L15.2627 4.2199L15.2329 4.1968L15.2026 4.17425L15.1716 4.15226L15.14 4.13082L15.1079 4.10992L15.0753 4.08955L15.0422 4.06972L15.0086 4.05041L14.9746 4.03162L14.9403 4.01335L14.9055 3.99559L14.8705 3.97834L14.8352 3.96159L14.7996 3.94534L14.7638 3.92958L14.7278 3.9143L14.6917 3.8995L14.6554 3.88518L14.6191 3.87134L14.5827 3.85795L14.5463 3.84503L14.5099 3.83256L14.4735 3.82055L14.4373 3.80898L14.4011 3.79785L14.3651 3.78716L14.3293 3.77689L14.2948 3.7666L14.2628 3.75582L14.2331 3.74456L14.2056 3.73284L14.1803 3.72066L14.1571 3.70805L14.1357 3.695L14.1162 3.68153L14.0984 3.66765L14.0822 3.65336L14.0675 3.63869L14.0543 3.62364L14.0423 3.60823L14.0315 3.59245L14.0219 3.57633L14.0132 3.55987L14.0054 3.54309L13.9984 3.52599L13.9921 3.50859L13.9863 3.4909L13.981 3.47292L13.9761 3.45467L13.9714 3.43616L13.9669 3.4174L13.9625 3.39841L13.958 3.37918L13.9533 3.35973L13.9484 3.34008L13.9432 3.32022L13.9374 3.30019L13.9311 3.27997L13.9241 3.2596L13.9164 3.23906L13.9077 3.21839L13.8981 3.19758L13.8874 3.17665L13.8754 3.15561L13.8622 3.13446L13.8476 3.11323L13.8315 3.09192L13.8137 3.07054L13.7943 3.0491L13.773 3.02761L13.7498 3.00609L13.7246 2.98454L13.6972 2.96298L13.6676 2.94141L13.6357 2.91985L13.6013 2.8983L13.5644 2.87679L13.5248 2.85531L13.4825 2.83388L13.4373 2.81251L13.3891 2.79121L13.3379 2.76999L13.2835 2.74886L13.2258 2.72783L13.1648 2.70692L13.1002 2.68613L13.0321 2.66548L12.9603 2.64497L12.8846 2.62462L12.8051 2.60443L12.7243 2.58505L12.6449 2.56709L12.5668 2.55051L12.49 2.53526L12.4144 2.52132L12.3401 2.50864L12.2669 2.49719L12.1948 2.48693L12.1239 2.47782L12.0539 2.46983L11.985 2.46291L11.9171 2.45703L11.85 2.45215L11.7838 2.44823L11.7185 2.44524L11.654 2.44314L11.5902 2.44189L11.5271 2.44145L11.4647 2.44179L11.4029 2.44286L11.3417 2.44463L11.2811 2.44707L11.2209 2.45012L11.1612 2.45377L11.1019 2.45796L11.0431 2.46266L10.9845 2.46784L10.9262 2.47345L10.8682 2.47946L10.8104 2.48583L10.7528 2.49253L10.6953 2.4995L10.6378 2.50673L10.5805 2.51416L10.5231 2.52177L10.4657 2.52951L10.4082 2.53734L10.3506 2.54524L10.2928 2.55315L10.2348 2.56105L10.1765 2.56889L10.118 2.57664L10.0592 2.58426L9.99993 2.59172L9.94028 2.59896L9.88018 2.60597L9.81959 2.61269L9.75845 2.6191L9.69673 2.62515L9.63439 2.6308L9.57139 2.63603L9.50768 2.64078L9.44322 2.64503L9.37798 2.64873L9.3119 2.65186L9.24496 2.65436L9.1771 2.6562L9.10828 2.65735L9.03846 2.65776L8.96761 2.6574L8.89568 2.65624L8.82262 2.65423L8.74841 2.65133L8.67374 2.64822L8.59938 2.64558L8.52534 2.64336L8.45166 2.64154L8.37836 2.64007L8.30546 2.63893L8.23297 2.63808L8.16094 2.63749L8.08937 2.63711L8.01829 2.63693L7.94772 2.63689L7.8777 2.63698L7.80823 2.63715L7.73935 2.63737L7.67107 2.63761L7.60343 2.63783L7.53643 2.63799L7.47012 2.63807L7.4045 2.63803L7.3396 2.63783L7.27545 2.63744L7.21206 2.63682L7.14947 2.63595L7.08769 2.63478L7.02675 2.63329L6.96667 2.63143L6.90747 2.62918L6.84918 2.6265L6.79182 2.62335L6.73541 2.61971L6.67998 2.61553L6.62554 2.61078L6.57213 2.60543L6.51976 2.59945L6.46846 2.59279L6.41825 2.58543L6.36916 2.57733L6.3212 2.56845L6.2744 2.55877L6.22879 2.54825L6.18438 2.53684L6.1412 2.52453L6.09927 2.51127L6.05862 2.49704L6.01927 2.48179L5.98124 2.46549L5.94456 2.4481L5.90924 2.42961L5.87531 2.40996L5.8428 2.38912L5.81173 2.36706L5.78211 2.34375L5.75398 2.31916L5.72735 2.29324L5.70226 2.26596L5.67871 2.23729L5.65674 2.20719L5.63637 2.17564L5.61763 2.14259L5.60052 2.10801L5.58509 2.07186L5.57134 2.03413L5.55931 1.99475L5.54662 1.95543L5.53094 1.91784L5.51239 1.88197L5.49106 1.8478L5.46706 1.81532L5.4405 1.7845L5.41147 1.75533L5.38009 1.7278L5.34645 1.70188L5.31066 1.67755L5.27283 1.65481L5.23306 1.63363L5.19145 1.61399L5.14811 1.59588L5.10313 1.57928L5.05664 1.56417L5.00872 1.55054L4.95949 1.53836L4.90905 1.52763L4.8575 1.51831L4.80495 1.51041L4.7515 1.50389L4.69725 1.49874L4.64231 1.49495L4.58679 1.49249L4.53078 1.49135L4.4744 1.49151L4.41774 1.49296L4.36091 1.49567L4.30402 1.49963L4.24716 1.50482L4.19045 1.51122L4.13399 1.51882L4.07787 1.5276L4.02222 1.53755L3.96712 1.54863L3.91268 1.56085L3.85902 1.57417L3.80622 1.58858L3.75441 1.60407L3.70367 1.62062L3.65412 1.63821L3.60585 1.65682L3.55898 1.67643L3.51361 1.69703L3.46984 1.71861L3.42777 1.74113L3.38751 1.76459L3.34917 1.78897L3.31285 1.81425L3.27865 1.84041L3.24667 1.86744L3.21703 1.89531L3.18982 1.92402L3.16515 1.95354L3.14313 1.98385L3.12385 2.01495L3.10742 2.04681L3.09395 2.0794L3.08354 2.11273L3.0763 2.14677L3.07232 2.18149L3.07171 2.21689L3.07169 2.25208L3.06941 2.2862L3.06493 2.31928L3.05831 2.35135L3.0496 2.38244L3.03884 2.41258L3.0261 2.4418L3.01143 2.47013L2.99487 2.4976L2.97649 2.52424L2.95633 2.55008L2.93445 2.57515L2.9109 2.59947L2.88573 2.62309L2.859 2.64602L2.83076 2.66831L2.80106 2.68997L2.76995 2.71104L2.73749 2.73154L2.70374 2.75152L2.66873 2.77099L2.63254 2.78999L2.5952 2.80855L2.55678 2.82669L2.51732 2.84445L2.47688 2.86186L2.43551 2.87894L2.39326 2.89573L2.35019 2.91226L2.30635 2.92855L2.2618 2.94464L2.21658 2.96055L2.17074 2.97632L2.12435 2.99197L2.07745 3.00754L2.0301 3.02306L1.98235 3.03854L1.93426 3.05404L1.88586 3.06956L1.83723 3.08516L1.78841 3.10084L1.73945 3.11665L1.69041 3.13261L1.64134 3.14876L1.59229 3.16512L1.54332 3.18172L1.49448 3.1986L1.44582 3.21577L1.39739 3.23329L1.34926 3.25116L1.30146 3.26942L1.25405 3.28811L1.2071 3.30725L1.16064 3.32687L1.11473 3.347L1.06943 3.36768L1.02478 3.38892L0.980848 3.41077L0.937678 3.43324L0.895324 3.45638L0.85384 3.48021L0.813277 3.50475L0.77369 3.53005L0.735578 3.55608L0.699382 3.58278L0.665066 3.61016L0.632592 3.63818L0.601924 3.66685L0.573026 3.69614L0.54586 3.72605L0.52039 3.75655L0.49658 3.78765L0.474392 3.81932L0.45379 3.85156L0.434737 3.88434L0.417197 3.91766L0.401133 3.95151L0.386508 3.98586L0.373286 4.02072L0.36143 4.05605L0.350903 4.09186L0.341669 4.12813L0.333691 4.16484L0.326932 4.20199L0.321355 4.23956L0.316925 4.27753L0.313604 4.3159L0.311355 4.35464L0.310143 4.39376L0.309929 4.43323L0.310679 4.47304L0.312354 4.51318L0.314918 4.55364L0.318335 4.5944L0.322568 4.63545L0.327581 4.67678L0.333336 4.71837L0.339796 4.76021L0.346926 4.80229L0.354689 4.8446L0.363048 4.88712L0.371965 4.92984L0.381406 4.97274L0.391332 5.01582L0.401707 5.05906L0.412495 5.10244L0.423659 5.14596L0.435163 5.1896L0.446968 5.23335L0.45904 5.2772L0.471341 5.32112L0.483834 5.36512L0.496484 5.40918L0.509252 5.45327L0.522103 5.4974L0.535 5.54155L0.547906 5.5857L0.560785 5.62984L0.573599 5.67396L0.586313 5.71805L0.598889 5.76209L0.611292 5.80606L0.623483 5.84997L0.635427 5.89379L0.647087 5.93751L0.658425 5.98112L0.670171 6.02481L0.682701 6.06738L0.695995 6.10887L0.710032 6.14929L0.724792 6.18866L0.740254 6.22701L0.756397 6.26436L0.773201 6.30073L0.790644 6.33615L0.808707 6.37064L0.827369 6.40421L0.846608 6.4369L0.866405 6.46872L0.886738 6.4997L0.907587 6.52986L0.928932 6.55922L0.950751 6.5878L0.973024 6.61563L0.99573 6.64273L1.01885 6.66912L1.04236 6.69483L1.06624 6.71987L1.09048 6.74427L1.11504 6.76805L1.13991 6.79124L1.16507 6.81385L1.1905 6.83591L1.21618 6.85744L1.24208 6.87847L1.26819 6.89901L1.29448 6.91909L1.32094 6.93873L1.34755 6.95795L1.37427 6.97678L1.4011 6.99524L1.42802 7.01335L1.45499 7.03113L1.482 7.0486L1.50904 7.0658L1.53607 7.08273L1.56308 7.09943L1.59005 7.11591L1.61696 7.1322L1.64378 7.14832L1.6705 7.16429L1.6971 7.18014L1.72355 7.19588L1.74983 7.21155L1.77593 7.22715L1.80182 7.24272L1.82748 7.25828L1.8529 7.27385L1.87804 7.28945L1.9029 7.3051L1.92744 7.32083L1.95166 7.33666L1.97552 7.35261L1.99901 7.3687L2.0221 7.38497L2.04479 7.40142L2.06703 7.41808L2.08883 7.43497L2.10981 7.4518L2.13033 7.4688L2.15039 7.48598L2.16997 7.50334L2.1891 7.5209L2.20776 7.53867L2.22595 7.55665L2.24367 7.57486L2.26093 7.59331L2.27772 7.61199L2.29404 7.63094L2.30989 7.65015L2.32527 7.66963L2.34018 7.68939L2.35462 7.70945L2.36859 7.72981L2.38209 7.75048L2.39512 7.77148L2.40767 7.7928L2.41976 7.81447L2.43137 7.83649L2.4425 7.85886L2.45316 7.88161L2.46335 7.90474L2.47306 7.92825L2.4823 7.95216L2.49106 7.97648L2.49934 8.00122L2.50715 8.02639L2.51448 8.05199L2.52133 8.07804L2.52771 8.10455L2.5336 8.13152L2.53902 8.15897L2.54395 8.1869L2.54841 8.21532L2.55238 8.24425L2.55588 8.27369L2.55889 8.30366L2.56142 8.33416L2.56346 8.3652L2.56503 8.3968L2.56611 8.42895L2.56671 8.46168L2.56682 8.49498L2.56645 8.52888L2.56559 8.56338L2.56425 8.59849L2.56242 8.63421L2.5601 8.67057L2.5573 8.70756L2.55401 8.7452L2.55023 8.7835L2.54596 8.82247L2.5412 8.86211L2.53596 8.90244L2.53022 8.94346L2.52399 8.98519L2.51727 9.02764L2.51006 9.07081L2.50236 9.11471L2.49417 9.15936L2.48548 9.20476L2.47692 9.25039L2.46909 9.29569L2.46198 9.34067L2.45557 9.38533L2.44987 9.42966L2.44484 9.47367L2.44048 9.51735L2.43678 9.56071L2.43373 9.60374L2.43131 9.64644L2.42951 9.68881L2.42832 9.73085L2.42772 9.77256L2.42771 9.81393L2.42827 9.85497L2.42939 9.89567L2.43105 9.93603L2.43325 9.97606L2.43597 10.0157L2.4392 10.0551L2.44293 10.0941L2.44714 10.1328L2.45182 10.1711L2.45696 10.2091L2.46255 10.2467L2.46858 10.284L2.47502 10.3209L2.48188 10.3575L2.48914 10.3937L2.49678 10.4296L2.50479 10.4651L2.51316 10.5003L2.52189 10.5351L2.53094 10.5696L2.54033 10.6037L2.55002 10.6374L2.56001 10.6708L2.57029 10.7038L2.58084 10.7365L2.59166 10.7688L2.60272 10.8007L2.61402 10.8323L2.62554 10.8635L2.63728 10.8944L2.64922 10.9248L2.66134 10.9549L2.67364 10.9847L2.6861 11.014L2.69871 11.043L2.71146 11.0716L2.72434 11.0998L2.73733 11.1277L2.75042 11.1552L2.76359 11.1823L2.77685 11.209L2.79016 11.2354L2.80353 11.2613L2.81694 11.2869L2.83037 11.3121L2.84382 11.3369L2.85727 11.3613L2.8707 11.3853L2.88412 11.409L2.89673 11.434L2.90781 11.4621L2.91742 11.4932L2.92562 11.5271L2.93248 11.5638L2.93806 11.6031L2.94242 11.6449L2.94563 11.6891L2.94775 11.7356L2.94883 11.7843L2.94896 11.835L2.94818 11.8877L2.94656 11.9422L2.94417 11.9984L2.94106 12.0563L2.93731 12.1157L2.93296 12.1764L2.9281 12.2384L2.92278 12.3016L2.91705 12.3658L2.911 12.431L2.90467 12.497L2.89814 12.5636L2.89146 12.6309L2.8847 12.6987L2.87792 12.7668L2.87119 12.8352L2.86456 12.9038L2.85811 12.9723L2.85189 13.0408L2.84596 13.1091L2.8404 13.1771L2.83526 13.2447L2.83061 13.3117L2.8265 13.3781L2.82301 13.4437L2.82019 13.5085L2.81812 13.5723L2.81684 13.6349L2.81643 13.6964L2.81695 13.7566L2.81846 13.8153L2.82103 13.8724L2.82471 13.9279L2.82957 13.9817L2.83568 14.0335L2.84309 14.0833L2.85188 14.1311L2.86209 14.1766L2.87381 14.2197L2.88708 14.2604L2.90197 14.2986L2.91855 14.334L2.93688 14.3667L2.95702 14.3965L2.97904 14.4232L3.00299 14.4469L3.02895 14.4673L3.05696 14.4843L3.08711 14.4979L3.11944 14.5079L3.15403 14.5141L3.19094 14.5166"/><rect id="shape1" transform="translate(9.50400005610604, 9.23400005451212)" fill="#f1954c" fill-rule="evenodd" stroke="#000000" stroke-opacity="0" stroke-width="0" stroke-linecap="square" stroke-linejoin="bevel" width="6.1319999628075" height="6.32999995547534" rx="0.26545454384448" ry="0.2740259720985"/><rect id="shape0" transform="matrix(0.999999991666685 0 0 0.999999991666685 10.6200000626943 5.03027768364065)" fill="#f1954c" fill-rule="evenodd" stroke="#000000" stroke-opacity="0" stroke-width="0" stroke-linecap="square" stroke-linejoin="bevel" width="3.8688000269574" height="3.99372213746247" rx="0.167480520647506" ry="0.172888404219155"/><rect id="shape2" transform="translate(0.335999999999973, 0.335999999999973)" fill="#f1954c" fill-rule="evenodd" stroke="#000000" stroke-opacity="0" stroke-width="0" stroke-linecap="square" stroke-linejoin="bevel" width="15.4079999999988" height="0.287999999999977" rx="0.239999999999981" ry="0.143999999999988"/><rect id="shape01" transform="matrix(0.999999972378336 0 0 0.999999972378336 0.285599887110442 15.3336000795057)" fill="#f1954c" fill-rule="evenodd" stroke="#000000" stroke-opacity="0" stroke-width="0" stroke-linecap="square" stroke-linejoin="bevel" width="8.74274011042857" height="0.287999999999977" rx="0.136179752498887" ry="0.143999999999988"/>
</svg>
