<?xml version="1.0" standalone="no"?>
<!DOCTYPE svg PUBLIC "-//W3C//DTD SVG 20010904//EN" "http://www.w3.org/TR/2001/REC-SVG-20010904/DTD/svg10.dtd">
<!-- Created using Krita: https://krita.org -->
<svg xmlns="http://www.w3.org/2000/svg"
    xmlns:xlink="http://www.w3.org/1999/xlink"
    xmlns:krita="http://krita.org/namespaces/svg/krita"
    xmlns:sodipodi="http://sodipodi.sourceforge.net/DTD/sodipodi-0.dtd"
    width="16.008pt"
    height="16.008pt"
    viewBox="0 0 16.008 16.008">
<defs/>
<g id="group0" transform="matrix(1.24435719708823 0 0 1.24435719708823 0.359999999999971 0.0613782161843011)" fill="none">
  <g id="group1" transform="translate(1.23000022789226, 0)" fill="none">
   <path id="shape0" transform="translate(-2.77800016257938, -1.92600011271703)" fill="#f1954c" fill-rule="evenodd" d="M10.536 5.274L10.572 11.07L8.38495 9.93401L8.37312 9.90342L8.33766 9.81811L8.30017 9.73388L8.26068 9.65076L8.21921 9.56879L8.1758 9.48798L8.13047 9.40839L8.08327 9.33003L8.03422 9.25293L7.98334 9.17713L7.93068 9.10266L7.87627 9.02955L7.82012 8.95782L7.76228 8.88752L7.70277 8.81867L7.64163 8.75129L7.57889 8.68543L7.51457 8.62111L7.44871 8.55837L7.38133 8.49723L7.31248 8.43772L7.24218 8.37988L7.17045 8.32373L7.09734 8.26932L7.02287 8.21666L6.94707 8.16578L6.86997 8.11673L6.79161 8.06953L6.71202 8.0242L6.63121 7.98079L6.54924 7.93932L6.46612 7.89983L6.38189 7.86234L6.29658 7.82688L6.21022 7.79348L6.12283 7.76219L6.03446 7.73301L5.94513 7.706L5.85487 7.68117L5.76371 7.65856L5.67169 7.63821L5.57883 7.62013L5.48517 7.60436L5.39073 7.59093L5.29555 7.57988L5.19965 7.57123L5.10308 7.56501L5.00585 7.56126L4.908 7.56L4.81015 7.56126L4.71292 7.56501L4.61635 7.57123L4.52045 7.57988L4.42527 7.59093L4.33083 7.60436L4.23717 7.62013L4.14431 7.63821L4.05229 7.65856L4.01973 7.66664L3.156 7.218L2.778 2.934L10.536 5.274"/>
   <path id="shape1" transform="translate(8.08200047299013, 2.07000012114447)" fill="#f1954c" fill-rule="evenodd" d="M0.036 1.278L2.916 0L2.772 5.058L0 7.038L0.036 1.278"/>
   <path id="shape2" transform="translate(0.198000011587732, 0)" fill="#f1954c" fill-rule="evenodd" d="M7.704 3.06L10.656 1.872L2.556 0L0 0.9L7.704 3.06"/>
  </g>
  <path id="shape3" transform="translate(-0.953999899923923, -2.52000014748022)" fill="#f1954c" fill-rule="evenodd" d="M7.608 11.931L7.60688 11.8438L7.60353 11.7571L7.59799 11.671L7.59028 11.5855L7.58042 11.5007L7.56845 11.4165L7.5544 11.333L7.53828 11.2502L7.52013 11.1681L7.49998 11.0869L7.47784 11.0064L7.45376 10.9268L7.42776 10.848L7.39985 10.7701L7.37008 10.6931L7.33847 10.6171L7.30505 10.542L7.26984 10.4679L7.23287 10.3948L7.19417 10.3228L7.15377 10.2518L7.11169 10.1819L7.06796 10.1132L7.02261 10.0456L6.97566 9.97925L6.92715 9.91407L6.87709 9.85013L6.82553 9.78746L6.77248 9.72607L6.71798 9.66601L6.66204 9.6073L6.6047 9.54996L6.54599 9.49402L6.48593 9.43952L6.42454 9.38647L6.36187 9.3349L6.29793 9.28485L6.23275 9.23634L6.16636 9.18939L6.09879 9.14404L6.03006 9.10031L5.9602 9.05823L5.88924 9.01783L5.81721 8.97913L5.74413 8.94216L5.67003 8.90695L5.59494 8.87353L5.51889 8.84192L5.4419 8.81215L5.364 8.78424L5.28522 8.75824L5.20558 8.73416L5.12511 8.71202L5.04385 8.69187L4.96181 8.67372L4.87903 8.6576L4.79553 8.64355L4.71134 8.63158L4.62649 8.62172L4.541 8.61401L4.45491 8.60847L4.36823 8.60512L4.281 8.604L4.19377 8.60512L4.10709 8.60847L4.021 8.61401L3.93551 8.62172L3.85066 8.63158L3.76647 8.64355L3.68297 8.6576L3.60019 8.67372L3.51815 8.69187L3.43689 8.71202L3.35642 8.73416L3.27678 8.75824L3.198 8.78424L3.1201 8.81215L3.04311 8.84192L2.96706 8.87353L2.89197 8.90695L2.81787 8.94216L2.74479 8.97913L2.67276 9.01783L2.6018 9.05823L2.53194 9.10031L2.46321 9.14404L2.39564 9.18939L2.32925 9.23634L2.26407 9.28485L2.20013 9.3349L2.13746 9.38647L2.07607 9.43952L2.01601 9.49402L1.9573 9.54996L1.89996 9.6073L1.84402 9.66601L1.78952 9.72607L1.73647 9.78746L1.6849 9.85013L1.63485 9.91407L1.58634 9.97925L1.53939 10.0456L1.49404 10.1132L1.45031 10.1819L1.40823 10.2518L1.36783 10.3228L1.32913 10.3948L1.29216 10.4679L1.25695 10.542L1.22353 10.6171L1.19192 10.6931L1.16215 10.7701L1.13424 10.848L1.10824 10.9268L1.08416 11.0064L1.06202 11.0869L1.04187 11.1681L1.02372 11.2502L1.0076 11.333L0.993546 11.4165L0.981576 11.5007L0.971722 11.5855L0.96401 11.671L0.958467 11.7571L0.955121 11.8438L0.954 11.931L0.955121 12.0182L0.958467 12.1049L0.96401 12.191L0.971722 12.2765L0.981576 12.3613L0.993546 12.4455L1.0076 12.529L1.02372 12.6118L1.04187 12.6939L1.06202 12.7751L1.08416 12.8556L1.10824 12.9352L1.13424 13.014L1.16215 13.0919L1.19192 13.1689L1.22353 13.2449L1.25695 13.32L1.29216 13.3941L1.32913 13.4672L1.36783 13.5392L1.40823 13.6102L1.45031 13.6801L1.49404 13.7488L1.53939 13.8164L1.58634 13.8827L1.63485 13.9479L1.6849 14.0119L1.73647 14.0745L1.78952 14.1359L1.84402 14.196L1.89996 14.2547L1.9573 14.312L2.01601 14.368L2.07607 14.4225L2.13746 14.4755L2.20013 14.5271L2.26407 14.5771L2.32925 14.6257L2.39564 14.6726L2.46321 14.718L2.53194 14.7617L2.6018 14.8038L2.67276 14.8442L2.74479 14.8829L2.81787 14.9198L2.89197 14.9551L2.96706 14.9885L3.04311 15.0201L3.1201 15.0499L3.198 15.0778L3.27678 15.1038L3.35642 15.1278L3.43689 15.15L3.51815 15.1701L3.60019 15.1883L3.68297 15.2044L3.76647 15.2185L3.85066 15.2304L3.93551 15.2403L4.021 15.248L4.10709 15.2535L4.19377 15.2569L4.281 15.258L4.36823 15.2569L4.45491 15.2535L4.541 15.248L4.62649 15.2403L4.71134 15.2304L4.79553 15.2185L4.87903 15.2044L4.96181 15.1883L5.04385 15.1701L5.12511 15.15L5.20558 15.1278L5.28522 15.1038L5.364 15.0778L5.4419 15.0499L5.51889 15.0201L5.59494 14.9885L5.67003 14.9551L5.74413 14.9198L5.81721 14.8829L5.88924 14.8442L5.9602 14.8038L6.03006 14.7617L6.09879 14.718L6.16636 14.6726L6.23275 14.6257L6.29793 14.5771L6.36187 14.5271L6.42454 14.4755L6.48593 14.4225L6.54599 14.368L6.6047 14.312L6.66204 14.2547L6.71798 14.196L6.77248 14.1359L6.82553 14.0745L6.87709 14.0119L6.92715 13.9479L6.97566 13.8827L7.02261 13.8164L7.06796 13.7488L7.11169 13.6801L7.15377 13.6102L7.19417 13.5392L7.23287 13.4672L7.26984 13.3941L7.30505 13.32L7.33847 13.2449L7.37008 13.1689L7.39985 13.0919L7.42776 13.014L7.45376 12.9352L7.47784 12.8556L7.49998 12.7751L7.52013 12.6939L7.53828 12.6118L7.5544 12.529L7.56845 12.4455L7.58042 12.3613L7.59028 12.2765L7.59799 12.191L7.60353 12.1049L7.60688 12.0182L7.608 11.931M6.3456 10.2408L6.34429 10.2005L6.34044 10.1609L6.3341 10.122L6.32538 10.084L6.31434 10.047L6.30107 10.011L6.28565 9.97603L6.26816 9.94228L6.24868 9.90979L6.22729 9.87865L6.20407 9.84893L6.17911 9.82072L6.15248 9.79409L6.12427 9.76913L6.09455 9.74591L6.0634 9.72452L6.03092 9.70504L5.99717 9.68755L5.96225 9.67213L5.92622 9.65886L5.88917 9.64782L5.85118 9.6391L5.81234 9.63276L5.77272 9.6289L5.7324 9.6276L5.69208 9.6289L5.65246 9.63276L5.61361 9.6391L5.57563 9.64782L5.53858 9.65886L5.50255 9.67213L5.46762 9.68755L5.43388 9.70504L5.40139 9.72452L5.37025 9.74591L5.34053 9.76913L5.31232 9.79409L5.28569 9.82072L5.26073 9.84893L5.23751 9.87865L5.21612 9.90979L5.19664 9.94228L5.17915 9.97603L5.16373 10.011L5.15046 10.047L5.13942 10.084L5.13069 10.122L5.12436 10.1609L5.1205 10.2005L5.1192 10.2408L5.1205 10.2811L5.12436 10.3207L5.13069 10.3596L5.13942 10.3976L5.15046 10.4346L5.16373 10.4706L5.17915 10.5056L5.19664 10.5393L5.21612 10.5718L5.23751 10.6029L5.26073 10.6327L5.28569 10.6609L5.31232 10.6875L5.34053 10.7125L5.37025 10.7357L5.40139 10.7571L5.43388 10.7766L5.46762 10.794L5.50255 10.8095L5.53858 10.8227L5.57563 10.8338L5.61361 10.8425L5.65246 10.8488L5.69208 10.8527L5.7324 10.854L5.77272 10.8527L5.81234 10.8488L5.85118 10.8425L5.88917 10.8338L5.92622 10.8227L5.96225 10.8095L5.99717 10.794L6.03092 10.7766L6.0634 10.7571L6.09455 10.7357L6.12427 10.7125L6.15248 10.6875L6.17911 10.6609L6.20407 10.6327L6.22729 10.6029L6.24868 10.5718L6.26816 10.5393L6.28565 10.5056L6.30107 10.4706L6.31434 10.4346L6.32538 10.3976L6.3341 10.3596L6.34044 10.3207L6.34429 10.2811L6.3456 10.2408"/>
 </g>
</svg>
